<svg width="43" height="43" viewBox="0 0 43 43" fill="none" xmlns="http://www.w3.org/2000/svg">
<g clip-path="url(#clip0_156_65)">
<path d="M35.3717 13.9862C33.6038 13.9862 31.9821 14.6063 30.7096 15.64C29.393 14.5674 27.7459 13.9831 26.0476 13.9862C24.2797 13.9862 22.658 14.6063 21.3855 15.64C20.0689 14.5674 18.4218 13.9831 16.7235 13.9862C14.9556 13.9862 13.3339 14.6063 12.0614 15.64C10.9758 14.7589 9.66268 14.2035 8.27431 14.0381C6.88595 13.8727 5.47913 14.104 4.21683 14.7053C2.95454 15.3066 1.88844 16.2532 1.14204 17.4355C0.395643 18.6178 -0.00050354 19.9874 -0.00050354 21.3856C-0.00050354 22.7837 0.395643 24.1533 1.14204 25.3356C1.88844 26.5179 2.95454 27.4645 4.21683 28.0658C5.47913 28.6671 6.88595 28.8984 8.27431 28.733C9.66268 28.5676 10.9758 28.0122 12.0614 27.1311C13.3339 28.1648 14.9556 28.785 16.7235 28.785C18.4914 28.785 20.1131 28.1648 21.3855 27.1311C22.658 28.1648 24.2797 28.785 26.0476 28.785C27.8155 28.785 29.4372 28.1648 30.7096 27.1311C31.6293 27.8775 32.7147 28.3921 33.8747 28.6318C35.0346 28.8715 36.2351 28.8293 37.3753 28.5087C38.5155 28.188 39.562 27.5984 40.427 26.7893C41.292 25.9801 41.9501 24.9752 42.346 23.8589C42.7419 22.7426 42.864 21.5476 42.7021 20.3743C42.5403 19.201 42.0991 18.0837 41.4157 17.1163C40.7323 16.1489 39.8267 15.3597 38.775 14.815C37.7232 14.2703 36.5561 13.9861 35.3717 13.9862ZM30.7096 24.711C30.0154 23.7412 29.6427 22.5782 29.6439 21.3856C29.6439 20.1452 30.0396 18.9975 30.7096 18.0601C31.3797 18.9975 31.7753 20.1452 31.7753 21.3856C31.7753 22.6259 31.3797 23.7736 30.7096 24.711ZM21.3855 24.711C20.6913 23.7412 20.3186 22.5782 20.3198 21.3856C20.3198 20.1452 20.7155 18.9975 21.3855 18.0601C22.0556 18.9975 22.4512 20.1452 22.4512 21.3856C22.4512 22.6259 22.0556 23.7736 21.3855 24.711ZM12.0614 24.711C11.3672 23.7412 10.9945 22.5782 10.9957 21.3856C10.9957 20.1452 11.3914 18.9975 12.0614 18.0601C12.7315 18.9975 13.1272 20.1452 13.1272 21.3856C13.1272 22.6259 12.7315 23.7736 12.0614 24.711ZM1.67163 21.3856C1.67206 20.3168 1.9715 19.2695 2.5361 18.362C3.1007 17.4545 3.90793 16.7231 4.86652 16.2505C5.82511 15.7779 6.89681 15.5829 7.96044 15.6876C9.02406 15.7923 10.0372 16.1925 10.8852 16.8429C9.87149 18.1399 9.32182 19.7394 9.32409 21.3856C9.32409 23.0982 9.90863 24.6754 10.8852 25.9282C10.0372 26.5786 9.02406 26.9788 7.96044 27.0835C6.89681 27.1882 5.82511 26.9932 4.86652 26.5206C3.90793 26.048 3.1007 25.3166 2.5361 24.4091C1.9715 23.5017 1.67206 22.4543 1.67163 21.3856ZM13.2376 25.9282C14.2514 24.6312 14.8011 23.0317 14.7988 21.3856C14.7988 19.6729 14.2143 18.0957 13.2376 16.8429C14.2366 16.0733 15.4625 15.6566 16.7235 15.6578C18.0351 15.6578 19.2434 16.0998 20.2093 16.8429C19.1956 18.1399 18.6459 19.7394 18.6482 21.3856C18.6482 23.0982 19.2327 24.6754 20.2093 25.9282C19.2104 26.6978 17.9845 27.1145 16.7235 27.1133C15.4625 27.1145 14.2366 26.6978 13.2376 25.9282ZM22.5617 25.9282C23.5755 24.6312 24.1252 23.0317 24.1229 21.3856C24.1229 19.6729 23.5383 18.0957 22.5617 16.8411C23.5277 16.0998 24.7359 15.656 26.0476 15.656C27.3592 15.656 28.5675 16.098 29.5334 16.8411C28.5197 18.1381 27.97 19.7376 27.9723 21.3838C27.9723 23.0964 28.5568 24.6736 29.5334 25.9264C28.5345 26.696 27.3086 27.1128 26.0476 27.1115C24.7868 27.1133 23.5609 26.6971 22.5617 25.9282ZM35.3717 27.1133C34.1107 27.1145 32.8848 26.6978 31.8858 25.9282C32.8984 24.6305 33.4479 23.0315 33.447 21.3856C33.447 19.6729 32.8624 18.0957 31.8858 16.8429C32.6079 16.2883 33.4518 15.9139 34.3475 15.7506C35.2432 15.5874 36.1649 15.64 37.0362 15.9041C37.9076 16.1682 38.7033 16.6363 39.3576 17.2694C40.0119 17.9025 40.5059 18.6825 40.7985 19.5447C41.0911 20.4068 41.174 21.3263 41.0403 22.2269C40.9065 23.1275 40.56 23.9832 40.0295 24.7231C39.499 25.4631 38.7997 26.0658 37.9896 26.4815C37.1796 26.8972 36.2821 27.1138 35.3717 27.1133Z" fill="black"/>
</g>
<defs>
<clipPath id="clip0_156_65">
<rect width="42.7711" height="42.7711" fill="white"/>
</clipPath>
</defs>
</svg>
