<svg width="32" height="32" viewBox="0 0 32 32" fill="none" xmlns="http://www.w3.org/2000/svg">
<g clip-path="url(#clip0_156_67)">
<path d="M15.8253 0C7.08578 0 0 7.08578 0 15.8253C0 24.5648 7.08578 31.6506 15.8253 31.6506C24.5648 31.6506 31.6506 24.5648 31.6506 15.8253C31.6506 7.08578 24.5648 0 15.8253 0ZM15.8253 1.02864C23.9964 1.02864 30.6206 7.65285 30.6206 15.8253C30.6206 23.9964 23.9977 30.6206 15.8253 30.6206C7.65285 30.6206 1.02996 23.9964 1.02996 15.8253C1.02996 7.65417 7.65417 1.02864 15.8253 1.02864ZM14.9312 1.85947C14.4969 1.87881 14.0608 1.9131 13.6229 1.96234L13.4818 5.84481C13.7924 5.79232 14.1047 5.75097 14.4182 5.72085L14.5105 3.09912L14.4933 2.91845L14.55 3.08989L15.4257 5.05355H16.2249L17.1006 3.09121L17.1533 2.91845L17.1401 3.09912L17.2324 5.72085C17.5384 5.74986 17.8562 5.79206 18.1688 5.84481L18.025 1.96234C17.5902 1.91359 17.1539 1.87928 16.7168 1.85947L15.8556 4.00248L15.8253 4.16074L15.795 4.00248L14.9312 1.85947ZM23.7617 4.26492L21.7268 7.4669C21.984 7.66472 22.3229 7.95617 22.5405 8.1553L24.4567 7.16095L24.578 7.06995L24.487 7.19392L23.4953 9.1101C23.7103 9.34088 24.0202 9.7141 24.1942 9.94093L27.3989 7.90474C27.2024 7.65046 27.0001 7.40071 26.7922 7.15567L24.7626 8.49291L24.6242 8.61424L24.727 8.46258L25.6238 6.67432L24.9908 6.04131L23.2025 6.93808L23.0509 7.04094L23.1709 6.90115L24.5134 4.87156C24.276 4.6711 24.0505 4.48779 23.7617 4.26492ZM7.25326 4.99156C6.7785 5.04036 6.41188 5.36478 5.41621 6.47519C5.07097 6.86648 4.73803 7.26846 4.4179 7.68055L7.15304 10.2746C8.05903 9.27231 8.42697 8.90041 9.14175 8.14739C9.64684 7.61329 9.93301 7.00006 9.4266 6.41057C9.1523 6.09142 8.69073 6.02153 8.30565 6.17978L8.26872 6.19297L8.28191 6.15868C8.32947 5.98369 8.32444 5.79858 8.26745 5.62643C8.21046 5.45428 8.10403 5.30274 7.96145 5.1907C7.86248 5.1123 7.74888 5.05442 7.62728 5.02046C7.50568 4.98649 7.37853 4.9758 7.25326 4.99156ZM7.26118 5.80261C7.44053 5.75382 7.62648 5.88174 7.66736 6.06637C7.70956 6.25099 7.59351 6.42507 7.46427 6.57014C7.17414 6.89983 6.10461 8.01815 6.10461 8.01815L5.57446 7.51306C6.12439 6.84049 6.70993 6.22857 6.975 5.98592C7.05453 5.90302 7.15261 5.84019 7.26118 5.80261ZM15.8253 6.43958C13.5021 6.43855 11.2612 7.29951 9.5364 8.85576C7.81155 10.412 6.72546 12.5529 6.48837 14.8639V14.8666C6.33935 16.3328 6.53746 17.8135 7.06667 19.1889C7.59588 20.5644 8.44134 21.796 9.5347 22.7842C10.6281 23.7724 11.9386 24.4895 13.3604 24.8774C14.7822 25.2653 16.2753 25.3132 17.7191 25.0172C19.8355 24.5826 21.7369 23.4305 23.1018 21.7556C24.4667 20.0807 25.2113 17.9859 25.2097 15.8253C25.208 13.3371 24.2186 10.9513 22.4591 9.19192C20.6995 7.43259 18.3135 6.44361 15.8253 6.44222V6.43958ZM8.52324 6.75872C8.58654 6.75784 8.64809 6.77675 8.70787 6.81543C8.82392 6.89324 8.87668 7.02643 8.84766 7.15831C8.81337 7.31525 8.68282 7.46295 8.57731 7.57768L7.19919 9.05471L6.64531 8.5272C6.64531 8.5272 7.68318 7.42998 8.02343 7.07787C8.15794 6.93808 8.24498 6.85367 8.3373 6.80752C8.39393 6.77642 8.45864 6.75967 8.52324 6.75872ZM15.8253 7.67263C16.8963 7.67142 17.957 7.88146 18.9466 8.29074C19.9363 8.70002 20.8355 9.3005 21.5928 10.0578C22.3501 10.8151 22.9506 11.7143 23.3599 12.704C23.7691 13.6936 23.9792 14.7543 23.978 15.8253H15.8253V23.978C14.7543 23.9792 13.6936 23.7691 12.704 23.3599C11.7143 22.9506 10.8151 22.3501 10.0578 21.5928C9.3005 20.8355 8.70002 19.9363 8.29074 18.9466C7.88146 17.957 7.67142 16.8963 7.67263 15.8253H15.8253V7.67263Z" fill="black"/>
</g>
<defs>
<clipPath id="clip0_156_67">
<rect width="31.6506" height="31.6506" fill="white"/>
</clipPath>
</defs>
</svg>
