<svg width="32" height="32" viewBox="0 0 32 32" fill="none" xmlns="http://www.w3.org/2000/svg">
<g clip-path="url(#clip0_156_69)">
<path d="M15.8253 0C8.81469 0 3.02263 7.09501 3.02263 15.8253C3.02263 24.5556 8.77249 31.6506 15.8253 31.6506C22.8781 31.6506 28.628 24.5556 28.628 15.8253C28.628 7.09501 22.8359 0 15.8253 0ZM5.41489 21.4077C5.16432 20.6111 4.95332 19.7711 4.86892 18.931L15.8253 10.7876L26.8648 18.931C26.7498 19.7698 26.5676 20.598 26.3201 21.4077V21.4499H26.2779L15.8253 13.6427L5.41489 21.4077ZM6.63212 24.1784L6.58992 24.1362L15.8253 17.2944L25.0607 24.1362V24.1784C22.8781 27.9989 19.5192 30.2659 15.8464 30.2659C12.1736 30.2659 8.77381 27.9567 6.63212 24.1784ZM15.8253 7.05149L4.57615 15.4059V15.3637C4.65923 11.8373 5.83426 8.39532 8.01815 5.62458C10.115 3.06483 12.8871 1.59572 15.8253 1.59572C18.7635 1.59572 21.5752 3.06483 23.6324 5.62458C25.6897 8.18432 26.9492 11.712 27.0745 15.4059V15.4481L27.0336 15.4059L15.8253 7.05149Z" fill="black"/>
</g>
<defs>
<clipPath id="clip0_156_69">
<rect width="31.6506" height="31.6506" fill="white"/>
</clipPath>
</defs>
</svg>
