<svg width="39" height="39" viewBox="0 0 39 39" fill="none" xmlns="http://www.w3.org/2000/svg">
<g clip-path="url(#clip0_156_71)">
<path d="M19.247 13.2098C9.41819 13.2098 1.45154 15.9269 1.45154 19.2502C1.45154 22.5735 9.41819 25.2889 19.247 25.2889C29.0742 25.2889 37.0408 22.5735 37.0408 19.2502C37.0408 15.9269 29.0742 13.2098 19.247 13.2098ZM10.1079 23.2183C9.05571 23.2263 8.13025 22.5767 8.02279 21.4524C7.96256 20.8666 8.13157 20.2802 8.49434 19.8164C8.8071 19.409 9.33639 19.0705 9.78389 18.9871C9.92824 18.9599 10.1255 18.9775 10.2073 19.0738C10.334 19.2229 10.2971 19.3849 10.1704 19.4491C9.8288 19.6239 9.41659 19.9222 9.21289 20.3312C9.12044 20.5049 9.0767 20.7004 9.0863 20.8969C9.0959 21.0934 9.15848 21.2837 9.26742 21.4476C9.68925 22.0843 10.8665 22.1019 11.9604 21.0867C12.2315 20.8365 12.4737 20.5991 12.7191 20.3168C13.2002 19.765 13.3606 19.5629 14.0022 18.6744C14.0097 18.6637 14.0118 18.6541 14.0086 18.6455C14.0043 18.6348 13.9936 18.6295 13.9765 18.6295C13.5483 18.6407 13.1746 18.769 12.8137 19.0385C12.7094 19.1155 12.5587 19.1042 12.4929 19.0048C12.4191 18.8925 12.472 18.7433 12.5923 18.6599C13.1746 18.2542 13.8113 18.182 14.4625 18.0713C14.4625 18.0713 14.5074 18.0745 14.5443 18.0232C14.8122 17.6816 15.0127 17.3736 15.2981 17.0272C15.5836 16.6743 15.9558 16.3535 16.238 16.1097C16.6326 15.7697 16.886 15.6558 17.1427 15.5163C17.2116 15.481 17.1346 15.4377 17.1138 15.4377C15.6767 15.1682 14.1834 14.8186 12.7559 15.3479C11.7679 15.7168 11.3333 16.4995 11.5418 17.024C11.6909 17.3945 12.1785 17.457 12.6373 17.2325C13.0362 17.0346 13.3746 16.7333 13.6172 16.3599C13.7568 16.145 14.0503 16.299 13.8915 16.6727C13.4745 17.6527 12.6773 18.4322 11.7054 18.4659C10.8778 18.4915 10.3437 17.8837 10.3453 17.133C10.3485 15.651 11.9973 14.6758 13.7295 14.5315C15.8162 14.3582 17.7922 14.9148 19.8645 15.165C21.4508 15.3575 22.9729 15.3623 24.5672 14.995C24.7564 14.9549 24.888 15.0752 24.8767 15.2645C24.8607 15.5403 24.6474 15.805 24.1229 16.0921C23.5246 16.4193 22.8991 16.5187 22.2463 16.5251C20.6681 16.538 19.1973 15.9221 17.6752 15.5917C17.6784 15.6574 17.6944 15.7376 17.6383 15.7793C16.7962 16.4016 16.0343 17.0336 15.5243 17.9189C15.5067 17.9398 15.5163 17.959 15.5452 17.9574C15.9894 17.9334 16.3872 17.9221 16.801 17.8901C16.8732 17.8837 16.8764 17.866 16.87 17.8131C16.8473 17.6491 16.8647 17.4821 16.9205 17.3262C16.9764 17.1704 17.0691 17.0303 17.1908 16.9181C17.4666 16.6727 17.8115 16.6454 18.0408 16.8219C18.2975 17.024 18.2766 17.388 18.1339 17.6607C18.0703 17.7804 17.9833 17.8862 17.8781 17.9716C17.7728 18.057 17.6514 18.1204 17.5212 18.1579C17.5212 18.1579 17.4731 18.1675 17.4795 18.2125C17.4891 18.2814 17.8003 18.4546 17.8275 18.5012C17.8548 18.5445 17.8404 18.6134 17.7938 18.6648C17.7756 18.6876 17.7524 18.7059 17.726 18.7184C17.6996 18.7309 17.6707 18.7373 17.6415 18.7369C17.5885 18.7369 17.5565 18.7177 17.4875 18.6808C17.322 18.5939 17.1749 18.4757 17.0544 18.3327C17.0159 18.283 16.9951 18.2814 16.8956 18.2862C16.4482 18.3135 15.7505 18.3809 15.2773 18.4402C15.1634 18.453 15.1458 18.4755 15.1233 18.5156C14.3695 19.7586 13.5643 21.0979 12.6806 21.9961C11.731 22.9584 10.9435 23.2119 10.1079 23.2183ZM30.5546 17.1779C30.4086 17.4313 27.589 21.7234 27.4109 22.1661C27.3548 22.3072 27.3468 22.4147 27.4045 22.4933C27.5521 22.6922 27.8809 22.5751 28.0862 22.4324C28.6973 22.0121 29.1207 21.5021 29.589 21.0562C29.6163 21.0353 29.6628 21.0273 29.6933 21.0562C29.7623 21.1204 29.8633 21.2022 29.9339 21.2759C29.9402 21.2817 29.9452 21.2886 29.9488 21.2964C29.9524 21.3041 29.9543 21.3125 29.9546 21.321C29.9549 21.3295 29.9535 21.338 29.9505 21.3459C29.9475 21.3539 29.9429 21.3612 29.9371 21.3674C29.5074 21.9048 29.0213 22.3947 28.4871 22.8285C27.7333 23.4123 26.9811 23.5615 26.6074 23.1878C26.4746 23.0509 26.395 22.8712 26.3828 22.681C26.3796 22.5895 26.3331 22.5847 26.2898 22.6264C25.8439 23.0675 25.0708 23.5551 24.3683 23.207C23.7813 22.9183 23.6449 22.2158 23.754 21.6256C23.7556 21.6128 23.7444 21.5294 23.6722 21.5775C23.5239 21.6848 23.3621 21.7722 23.191 21.8373C23.0069 21.9215 22.8064 21.9637 22.604 21.9608C22.4585 21.9621 22.3152 21.9254 22.1883 21.8542C22.0614 21.783 21.9553 21.6799 21.8806 21.555C21.786 21.3844 21.7338 21.1935 21.7282 20.9985C21.7266 20.9808 21.701 20.9471 21.6753 20.9904C21.1941 21.7234 20.7466 22.4324 20.2719 23.1766C20.2462 23.2119 20.2238 23.2343 20.1757 23.2359L19.2342 23.2375C19.1764 23.2375 19.1491 23.1926 19.1796 23.1365C19.3464 22.8157 20.2607 21.4844 20.8798 20.3521C21.0514 20.0409 21.0161 19.8805 20.9102 19.8116C20.7771 19.7249 20.5125 19.8549 20.2895 20.0249C19.6816 20.4852 19.1716 21.2038 18.9118 21.5245C18.7594 21.7122 18.615 21.9913 18.2173 22.4227C17.5901 23.1044 16.7577 23.4958 15.959 23.2247C15.7481 23.153 15.558 23.0307 15.4054 22.8685C15.2527 22.7063 15.1421 22.5092 15.0832 22.2944C15.0592 22.211 15.0127 22.1886 14.9661 22.2431C14.8378 22.4035 14.5732 22.6425 14.3518 22.7916C14.3278 22.8093 14.2684 22.8446 14.2171 22.8189C14.1228 22.7231 14.0409 22.6159 13.9733 22.4997C13.9636 22.4783 13.9609 22.4545 13.9655 22.4314C13.9701 22.4084 13.9818 22.3874 13.999 22.3714C14.3149 22.0939 14.4882 21.9367 14.6261 21.7619C14.7288 21.6336 14.8073 21.4893 14.8988 21.2567C15.0912 20.7723 15.5291 19.8677 16.4032 19.3994C16.726 19.2161 17.0811 19.0969 17.449 19.0481C17.6094 19.0321 17.7425 19.0513 17.7906 19.1764C17.8083 19.2293 17.8532 19.3448 17.8805 19.4298C17.8981 19.4812 17.8853 19.5212 17.8243 19.5437C17.3111 19.7394 16.793 20.0425 16.4369 20.5221C16.0311 21.0642 15.9221 21.7186 16.1931 22.0939C16.3904 22.3666 16.7096 22.4147 17.0175 22.3169C17.4827 22.1693 17.8805 21.7347 18.0858 21.2535C18.3071 20.7258 18.3424 20.1035 18.1788 19.5549C18.1531 19.4603 18.1772 19.3881 18.2381 19.3368C18.3616 19.2358 18.5332 19.1572 18.583 19.1315C18.6319 19.1053 18.6889 19.0982 18.7428 19.1115C18.7967 19.1248 18.8438 19.1577 18.8749 19.2037C19.0449 19.4555 19.1363 19.81 19.1475 20.1772C19.1572 20.2558 19.1892 20.2574 19.2277 20.2173C19.5325 19.8934 19.8148 19.5469 20.1388 19.2871C20.4355 19.0513 20.8156 18.8588 21.1701 18.8668C21.6288 18.8765 21.8566 19.1876 21.8421 19.7426C21.8405 19.8132 21.8902 19.8067 21.9239 19.7602C22.0304 19.6007 22.1602 19.458 22.3089 19.3368C22.6254 19.0759 22.952 18.9572 23.2889 18.9807C23.7059 19.0128 24.0395 19.3929 23.9705 19.826C23.9539 19.963 23.9042 20.0938 23.8256 20.2073C23.7471 20.3207 23.6422 20.4134 23.5198 20.4772C23.4171 20.5324 23.3 20.5552 23.1841 20.5426C23.0681 20.53 22.9587 20.4826 22.8702 20.4066C22.802 20.3412 22.752 20.2593 22.725 20.1687C22.698 20.0782 22.695 19.9822 22.7163 19.8901C22.7243 19.8501 22.673 19.8132 22.6296 19.8581C22.2223 20.2815 22.1918 20.83 22.458 21.077C22.7515 21.3497 23.1926 21.1669 23.5134 20.9568C24.1004 20.5734 24.5559 20.0537 25.0836 19.6528C25.4333 19.3865 25.8327 19.1491 26.2802 19.0898C26.526 19.0522 26.7774 19.081 27.0083 19.1732C27.3291 19.3031 27.5312 19.5742 27.5569 19.8083C27.5633 19.8773 27.6146 19.8853 27.6579 19.8244C27.9113 19.4298 29.2699 17.3912 29.3821 17.1779C29.4142 17.1122 29.4527 17.1025 29.5249 17.1025H30.4969C30.553 17.1025 30.5787 17.1346 30.5546 17.1779ZM26.8335 20.713C26.8283 20.7227 26.8252 20.7335 26.8244 20.7445C26.8236 20.7556 26.825 20.7667 26.8287 20.7771C26.8335 20.8092 26.8768 20.8413 26.9185 20.8573C26.9346 20.8621 26.9426 20.8733 26.9249 20.9086C26.8046 21.1653 26.6956 21.3128 26.5448 21.5358C26.4111 21.7323 26.2489 21.908 26.0636 22.057C25.7781 22.2928 25.3836 22.5494 25.0564 22.3778C24.912 22.3024 24.8479 22.0987 24.8527 21.9351C24.8591 21.4732 25.0644 20.9985 25.4445 20.5317C25.9064 19.9623 26.4181 19.6672 26.7533 19.8292C27.0998 19.9944 26.9907 20.3986 26.8335 20.713ZM17.2918 17.696C17.28 17.5935 17.2931 17.4897 17.33 17.3934C17.3668 17.2971 17.4264 17.2111 17.5035 17.1426C17.595 17.0624 17.7169 17.0432 17.7922 17.1074C17.8756 17.1795 17.8355 17.3592 17.7505 17.4827C17.6582 17.6217 17.5186 17.7226 17.3576 17.7666C17.3287 17.773 17.303 17.7601 17.2918 17.696ZM19.247 12.0294C8.56491 12.0294 0 15.2324 0 19.247C0 23.2375 8.63388 26.4646 19.247 26.4646C29.8601 26.4646 38.494 23.2247 38.494 19.247C38.494 15.2693 29.8601 12.0294 19.247 12.0294ZM19.247 25.8359C9.06052 25.8359 0.801958 22.8879 0.801958 19.2502C0.801958 15.6109 9.06212 12.6629 19.247 12.6629C29.4319 12.6629 37.6888 15.6109 37.6888 19.2502C37.6888 22.8879 29.4319 25.8359 19.247 25.8359Z" fill="black"/>
</g>
<defs>
<clipPath id="clip0_156_71">
<rect width="38.494" height="38.494" fill="white"/>
</clipPath>
</defs>
</svg>
