<svg width="32" height="32" viewBox="0 0 32 32" fill="none" xmlns="http://www.w3.org/2000/svg">
<g clip-path="url(#clip0_156_73)">
<path d="M31.5214 9.06C31.0862 4.81618 28.264 3.92337 25.7794 3.51586C24.5319 3.30486 22.311 3.12023 20.8789 3.06748C19.6313 2.98835 16.701 2.94879 15.8214 2.94879C14.9549 2.94879 12.0101 2.98835 10.7638 3.06748C9.34485 3.12023 7.11084 3.30486 5.86328 3.51586C3.38003 3.93655 0.553893 4.82673 0.121335 9.06C0.0158329 10.2166 -0.0105426 11.7279 0.00264518 13.3434C0.0422084 16.0218 0.2664 17.8351 0.398278 19.0972C0.490592 19.9636 0.844024 22.5524 1.30428 23.8923C1.93465 25.732 2.51227 26.27 3.18221 26.8226C4.4179 27.8209 6.44091 28.1361 6.86159 28.2152C9.14703 28.624 13.772 28.7005 15.8082 28.7005C17.8444 28.7005 22.468 28.6346 24.7547 28.2152C25.1886 28.1361 27.2116 27.8328 28.4341 26.8226C29.1041 26.27 29.6817 25.732 30.3121 23.8923C30.7736 22.5524 31.1402 19.9636 31.2326 19.0972C31.3644 17.8351 31.6005 16.0218 31.6269 13.3434C31.6796 11.7279 31.6401 10.2166 31.5214 9.06ZM29.9705 16.1814C29.7199 19.5706 29.4192 21.5936 28.9854 23.0654C28.6029 24.3525 28.1453 25.2058 27.449 25.8243C26.3056 26.8621 24.7284 27.085 23.8092 27.2169C21.8125 27.5202 18.4615 27.6125 15.8214 27.6125C13.1812 27.6125 9.83016 27.507 7.83353 27.2169C6.91435 27.085 5.33709 26.8621 4.19371 25.8243C3.51059 25.2058 3.03847 24.3393 2.67053 23.0641C2.23665 21.6068 1.93465 19.5693 1.6854 16.1801C1.54034 14.1452 1.56671 10.8337 1.7909 9.05868C2.13115 6.40662 3.44597 5.07861 6.2576 4.58012C7.5711 4.34274 9.34353 4.1713 11.0131 4.09217C12.353 3.99986 14.5738 3.96029 15.8082 3.97348C17.0425 3.96029 19.2634 4.01304 20.6032 4.09217C22.2847 4.1713 24.0452 4.34274 25.3587 4.58012C28.1835 5.07861 29.4984 6.41981 29.8267 9.06C30.0892 10.8337 30.1274 14.1452 29.9705 16.1814ZM23.1115 5.11686C22.3889 8.36368 22.1 9.84862 21.5079 12.1987C20.9435 14.4604 20.4964 16.548 19.7473 17.5595C18.9732 18.5842 17.9472 18.8084 17.2509 18.8862C16.883 18.9258 16.6205 18.9389 15.8451 18.9521C15.3716 18.962 14.898 18.94 14.4274 18.8862C13.7311 18.8071 12.6932 18.5842 11.9323 17.5595C11.17 16.548 10.7362 14.4604 10.1717 12.2C9.5519 9.86181 9.27759 8.36236 8.54171 5.11818C8.54171 5.11818 7.81902 5.14455 7.49065 5.17093C7.05677 5.1973 6.71521 5.23687 6.34727 5.28962C6.79961 12.3741 7.25986 19.9003 7.83221 26.5615C8.87801 26.693 9.93019 26.7674 10.9841 26.7843C11.4193 25.1148 11.9705 22.8016 12.5758 21.8165C13.0743 21.0147 13.8498 20.9237 14.2837 20.8709C14.9668 20.7786 15.5444 20.7654 15.82 20.7654C16.0838 20.7523 16.6601 20.7654 17.3564 20.8709C17.7916 20.9369 18.5657 21.016 19.0642 21.8165C19.684 22.8016 20.2208 25.1134 20.6547 26.783C20.6547 26.783 21.1268 26.7698 22.191 26.7171C22.7326 26.6933 23.2716 26.6406 23.8079 26.5588C24.4119 19.4506 24.8431 12.411 25.2928 5.28962C24.9235 5.23687 24.5833 5.1973 24.1494 5.17093C23.8461 5.14455 23.1115 5.11686 23.1115 5.11686Z" fill="black"/>
</g>
<defs>
<clipPath id="clip0_156_73">
<rect width="31.6506" height="31.6506" fill="white"/>
</clipPath>
</defs>
</svg>
