<svg width="32" height="32" viewBox="0 0 32 32" fill="none" xmlns="http://www.w3.org/2000/svg">
<g clip-path="url(#clip0_156_83)">
<path d="M15.8253 23.9516C7.08578 23.9516 0 20.3144 0 15.824C0 11.3362 7.08578 7.69901 15.8253 7.69901C24.5661 7.69901 31.6506 11.3362 31.6506 15.824C31.6506 20.3144 24.5661 23.9516 15.8253 23.9516ZM10.0253 9.45561C4.88079 10.5212 1.28317 12.9636 1.28317 15.8042C1.28317 17.3775 2.3883 18.8295 4.24777 19.9926C4.40207 20.0876 4.50362 20.106 4.57879 20.1021C4.7133 20.0942 4.78979 20.0098 4.84386 19.9095C4.88966 19.8245 4.93233 19.7379 4.97178 19.6497C5.57842 18.2202 7.7122 13.2761 10.5146 9.92246C10.566 9.86252 10.6119 9.79808 10.6517 9.72992C10.7124 9.61914 10.6992 9.53078 10.6517 9.47671C10.5753 9.39099 10.3563 9.39099 10.0253 9.45561ZM12.8475 11.7371C11.3006 15.4943 14.2283 15.0288 15.0208 14.8534C16.366 14.5553 17.6505 14.045 18.6791 13.6335C21.6094 12.4611 23.1656 11.2861 23.6812 10.8337C23.7303 10.792 23.7778 10.7484 23.8237 10.7032C23.8962 10.6267 23.9516 10.5462 23.9516 10.4394C23.9516 10.3163 23.8474 10.2183 23.639 10.1453L23.5546 10.1124C21.3154 9.39891 18.6435 8.98349 15.7712 8.98349C15.7488 8.98349 15.6934 8.98085 15.6169 8.98349C15.2741 8.99404 14.8916 9.07053 14.5791 9.23274C13.5531 9.76553 13.1073 11.1094 12.8475 11.7371ZM26.8067 11.7411C26.7622 11.8269 26.7199 11.914 26.6801 12.0022C26.0735 13.4291 23.941 18.3719 21.1386 21.7255C21.0872 21.7859 21.0413 21.8507 21.0015 21.9194C20.9356 22.0301 20.9501 22.1211 21.0015 22.1739C21.0767 22.2583 21.2956 22.2596 21.6266 22.195C26.7698 21.1268 30.3674 18.687 30.3674 15.8451C30.3674 14.2718 29.2649 12.8211 27.4041 11.658C27.2512 11.5617 27.1483 11.5432 27.0745 11.5485C26.9386 11.5577 26.8634 11.6408 26.8067 11.7411ZM18.8031 19.9135C20.35 16.1563 17.421 16.6245 16.6311 16.7986C15.2833 17.0953 13.9988 17.607 12.9715 18.0171C10.0398 19.1882 8.485 20.3672 7.96672 20.8169C7.9043 20.8723 7.8577 20.9162 7.82693 20.9487C7.75176 21.0239 7.69901 21.1044 7.69901 21.2125C7.69901 21.3351 7.80451 21.4367 8.01024 21.5066C8.02606 21.5132 8.0775 21.5356 8.09728 21.5409C10.3339 22.253 13.0058 22.6697 15.8781 22.6697H16.0337C16.3936 22.6618 16.7476 22.5763 17.0715 22.4192C18.0975 21.8864 18.5446 20.5426 18.8031 19.9135Z" fill="black"/>
</g>
<defs>
<clipPath id="clip0_156_83">
<rect width="31.6506" height="31.6506" fill="white"/>
</clipPath>
</defs>
</svg>
