<svg width="33" height="8" viewBox="0 0 33 8" fill="none" xmlns="http://www.w3.org/2000/svg">
<path d="M18.8576 6.59256C18.8585 6.6541 18.877 6.68575 18.9131 6.68751C18.9421 6.68544 18.9696 6.67434 18.9916 6.65586L29.1227 0.254525C29.2938 0.137822 29.4989 0.0777241 29.7078 0.0830837H31.9345C32.2758 0.0830837 32.506 0.304638 32.506 0.636969V4.7766C32.506 5.27774 32.3923 5.56787 31.9372 5.83294L29.2365 7.41547C29.2095 7.43346 29.1783 7.44436 29.1457 7.44712C29.1132 7.44712 29.0807 7.42207 29.0807 7.33107V2.5004C29.0807 2.44369 29.0644 2.40677 29.0252 2.40677C28.9962 2.40883 28.9686 2.41993 28.9466 2.43842L21.5434 7.12139C21.3759 7.23269 21.1773 7.29116 20.9745 7.28887H16.0661C15.7221 7.28887 15.4945 7.06732 15.4945 6.73235V0.766209C15.4945 0.722689 15.4742 0.681807 15.4349 0.681807C15.4064 0.684149 15.3794 0.69523 15.3577 0.713458L10.4724 3.56597C10.4236 3.59762 10.4101 3.62004 10.4101 3.64246C10.4101 3.66092 10.4209 3.6807 10.4534 3.71499L13.9437 7.11084C13.9898 7.15567 14.0223 7.18996 14.0223 7.22821C14.0223 7.25986 13.9695 7.28491 13.9085 7.28491H10.7541C10.5062 7.28491 10.3152 7.25063 10.1812 7.12007L8.06556 5.06278C8.05739 5.0536 8.04745 5.04608 8.03629 5.04065C8.02513 5.03521 8.01299 5.03198 8.00055 5.03113C7.9775 5.03222 7.95512 5.03903 7.93553 5.05091L4.4005 7.12139C4.23147 7.23194 4.03113 7.2882 3.82758 7.28228H0.575628C0.227542 7.28491 0 7.06072 0 6.72971V2.66788C0 2.16675 0.113771 1.87662 0.571564 1.61286L3.29124 0.0211014C3.31226 0.00786533 3.33664 0.00056054 3.36166 0C3.40501 0 3.42668 0.0395638 3.42668 0.131878V5.57051C3.42668 5.62721 3.44022 5.65359 3.48221 5.65359C3.51146 5.64935 3.53929 5.63852 3.56347 5.62194L12.741 0.242655C12.9188 0.125779 13.1308 0.0683834 13.3451 0.0791271H18.286C18.6273 0.0791271 18.8576 0.300681 18.8576 0.633013L18.8548 6.59124L18.8576 6.59256Z" fill="black"/>
</svg>
