<svg width="44" height="44" viewBox="0 0 44 44" fill="none" xmlns="http://www.w3.org/2000/svg">
<path d="M17.3503 17.5745L16.4985 19.0046H17.3623L17.3503 17.5745ZM15.4107 22.9875H15.0808L14.7569 23.9698H15.0568C15.2159 23.9841 15.3756 23.9513 15.5172 23.8753C15.6589 23.7993 15.7766 23.6832 15.8566 23.5405C15.8566 23.5405 16.1245 22.9875 15.4107 22.9875ZM21.8073 13.2181C11.9835 13.2181 4.01128 17.0627 4.01128 21.805C4.01128 26.5473 11.9755 30.3919 21.8073 30.3919C31.639 30.3919 39.6032 26.5473 39.6032 21.805C39.6032 17.0627 31.633 13.2181 21.8073 13.2181ZM29.5095 19.6877L31.761 18.8828H29.7875L30.1574 17.785H33.2087L32.8268 18.9592L29.3596 20.1314L29.5095 19.6877ZM25.3725 15.9174H26.9721C27.2731 15.8659 27.5821 15.902 27.8644 16.0217C28.1467 16.1413 28.391 16.3399 28.57 16.5949C28.7491 16.85 28.8556 17.1515 28.8778 17.4656C28.9 17.7797 28.837 18.094 28.6957 18.3731C28.5207 19.068 28.1275 19.6835 27.5776 20.1234C27.0277 20.5632 26.3521 20.8026 25.6564 20.8041H23.7428C23.8748 20.7422 23.9708 20.4223 23.9708 20.4223C23.9708 20.4223 25.1905 17.0256 25.3465 16.5695C25.5024 16.1134 25.3745 15.9215 25.3725 15.9174ZM18.9739 20.7917C19.0579 20.7917 19.1539 20.5214 19.1539 20.5214L20.6895 16.1753C20.7023 16.1323 20.7063 16.087 20.7015 16.0423C20.6967 15.9976 20.6831 15.9544 20.6615 15.9153H22.1092L22.4091 18.435L23.2209 16.2001C23.2501 16.108 23.2536 16.0093 23.2309 15.9153H24.5786C24.4867 15.9153 24.4187 16.134 24.4187 16.134L22.755 20.7876H21.4873L21.1634 18.1709C21.1634 18.1709 20.4216 20.2572 20.3396 20.4801C20.3238 20.531 20.3188 20.5849 20.3251 20.6379C20.3313 20.691 20.3485 20.742 20.3756 20.7876L18.9739 20.7917ZM14.189 20.6349C14.189 20.6349 16.7884 16.6644 16.9884 16.3549C17.1883 16.0453 17.0863 15.9091 17.0863 15.9091H18.604C18.478 15.969 18.486 16.2434 18.486 16.2434L18.686 20.54C18.6875 20.5912 18.7006 20.6414 18.7242 20.6866C18.7478 20.7317 18.7813 20.7705 18.8219 20.8H17.2783C17.3459 20.7306 17.384 20.6363 17.3843 20.5379V20.1087H15.8366C15.8366 20.1087 15.6367 20.4533 15.5727 20.5957C15.5437 20.6601 15.5313 20.7312 15.5367 20.8021H14.003C14.079 20.7672 14.1427 20.7088 14.185 20.6349H14.189ZM10.8577 20.5751C10.9537 20.3687 12.3294 16.425 12.3294 16.425C12.3294 16.425 12.5174 16.0123 12.3054 15.907H14.013C13.985 15.907 13.8951 15.9545 13.7591 16.3012C13.6671 16.5406 12.5154 19.7104 12.5154 19.7104H13.7571C13.7571 19.7104 14.043 19.7372 14.079 19.6258L13.6631 20.7959H10.6898C10.6898 20.7959 10.7618 20.7814 10.8577 20.5751ZM11.9735 23.6375L11.6016 24.7354H8.55026L8.93217 23.5612L12.3994 22.389L12.2494 22.8327L9.99793 23.6375H11.9735ZM17.2343 23.7098C17.1245 24.0449 16.9191 24.338 16.6451 24.5505C16.371 24.763 16.0411 24.885 15.6986 24.9005L16.5305 26.4441C16.5305 26.4441 16.6944 26.7557 16.8544 26.7557H15.1808C15.1932 26.6948 15.1847 26.6313 15.1568 26.5762L14.4089 25.0615L13.8571 26.5968C13.8571 26.5968 13.8571 26.7578 13.905 26.7578H12.3334C12.452 26.6189 12.5437 26.4578 12.6033 26.2831L13.927 22.3787C13.927 22.3787 14.039 22.032 13.8971 21.869H15.8746C15.8746 21.869 17.8062 21.8132 17.2323 23.7098H17.2343ZM19.3038 26.8775C19.0172 26.8754 18.7349 26.8042 18.4796 26.6695C18.2244 26.5349 18.0031 26.3405 17.8335 26.102C17.664 25.8634 17.5508 25.5873 17.503 25.2955C17.4552 25.0038 17.4741 24.7046 17.5582 24.4217C17.6243 23.7015 17.9435 23.0311 18.4554 22.5369C18.9674 22.0427 19.6369 21.7589 20.3376 21.739C21.5373 21.739 22.0572 22.5644 22.0572 23.8748C22.0497 24.6418 21.7615 25.3774 21.2505 25.9343C20.7395 26.4911 20.0434 26.8281 19.3018 26.8775H19.3038ZM23.7668 26.7743H22.4851C22.5691 26.7268 22.5851 26.4957 22.5851 26.4957V22.2631C22.5851 21.9515 22.4671 21.8855 22.4671 21.8855H24.0807C23.9228 21.9185 23.9268 22.3271 23.9268 22.3271L23.9048 24.8675C23.9048 24.8675 25.5384 22.3477 25.6484 22.1661C25.6648 22.146 25.6771 22.1227 25.6845 22.0975C25.6918 22.0723 25.694 22.0458 25.691 22.0197C25.688 21.9935 25.6799 21.9683 25.667 21.9456C25.6542 21.9229 25.637 21.9031 25.6164 21.8875H27.454C27.296 21.8875 26.6882 22.6614 26.6882 22.6614C26.6882 22.6614 24.0228 26.3492 23.8888 26.5143C23.8237 26.5833 23.7804 26.6711 23.7648 26.766L23.7668 26.7743ZM29.0096 26.7743H25.8104C25.8743 26.7743 26.0983 26.3141 26.0983 26.3141C26.0983 26.3141 27.358 22.8059 27.498 22.3931C27.6379 21.9804 27.53 21.8793 27.53 21.8793H30.6413L30.2254 23.0349C30.2008 22.9935 30.1649 22.9605 30.1222 22.9399C30.0796 22.9194 30.032 22.9122 29.9854 22.9194H28.6937L28.3918 23.7923H29.4115C29.6795 23.7923 29.7255 23.6932 29.7295 23.6809L29.2996 24.9191C29.2516 24.853 29.0296 24.8695 29.0296 24.8695H27.9759L27.6899 25.6599H29.0456C29.3476 25.6599 29.3955 25.5959 29.3955 25.5959L29.0096 26.7743ZM34.4944 23.7696C34.3862 24.0982 34.1828 24.3845 33.9117 24.5897C33.6406 24.795 33.3149 24.9092 32.9787 24.917L33.8106 26.4586C33.8106 26.4586 33.9865 26.7722 34.1465 26.7722H32.4129C32.4247 26.7111 32.4155 26.6476 32.3869 26.5927L31.665 25.0759L31.1651 26.473C31.1651 26.473 31.0812 26.7764 31.2011 26.7722H29.5695C29.6961 26.6425 29.7931 26.4853 29.8534 26.312L31.2291 22.3911C31.2291 22.3911 31.3411 22.0444 31.1971 21.8814H33.1587C33.39 21.8441 33.6269 21.8734 33.8431 21.9661C34.0594 22.0587 34.2467 22.2111 34.3845 22.4064C34.5224 22.6018 34.6054 22.8325 34.6244 23.0734C34.6434 23.3143 34.5977 23.5559 34.4924 23.7717L34.4944 23.7696ZM20.1196 22.8884C19.7377 22.8389 19.2258 23.3012 19.0199 24.2401C18.9239 24.6735 18.8199 25.6104 19.4098 25.7218C19.8397 25.8044 20.3136 25.4845 20.5615 24.463C20.9355 22.9173 20.2556 22.9049 20.1196 22.8884ZM27.1301 18.5836C27.7979 16.91 26.8681 16.9657 26.8681 16.9657H26.5082L25.5764 19.6794H25.7964C26.1223 19.6774 26.7242 19.6031 27.1301 18.5836ZM32.7908 23.0205H32.3569L32.039 23.9925H32.3409C32.3409 23.9925 32.9268 24.0379 33.1067 23.5632C33.3187 23.006 32.7908 23.0205 32.7908 23.0205ZM21.8073 11.9551C11.3096 11.9551 2.79956 16.3652 2.79956 21.8133C2.79956 27.2613 11.3096 31.6652 21.8073 31.6652C32.3049 31.6652 40.815 27.2469 40.815 21.8133C40.815 16.3796 32.3049 11.9551 21.8073 11.9551ZM21.8073 30.881C11.7215 30.881 3.54539 26.8176 3.54539 21.8009C3.54539 16.7841 11.7215 12.7207 21.8073 12.7207C31.893 12.7207 40.0691 16.7841 40.0691 21.8009C40.0691 26.8176 31.893 30.881 21.8073 30.881ZM40.2131 17.525C39.0194 16.0854 37.5557 14.9103 35.9101 14.0704C33.9038 13.0139 31.7712 12.2354 29.5675 11.755C27.0208 11.1834 24.4215 10.899 21.8153 10.9068C19.207 10.8986 16.6057 11.1829 14.057 11.755C11.854 12.2356 9.72208 13.0141 7.71645 14.0704C6.07156 14.9105 4.6085 16.0857 3.41542 17.525C2.41474 18.7184 1.84962 20.2353 1.81778 21.8133C1.85018 23.3915 2.41602 24.9083 3.41742 26.1015C4.6105 27.5408 6.07356 28.716 7.71845 29.5561C9.72345 30.6122 11.8547 31.3908 14.057 31.8715C16.6044 32.4433 19.2044 32.7276 21.8113 32.7197C24.4175 32.7275 27.0168 32.4431 29.5635 31.8715C31.7672 31.3911 33.8998 30.6126 35.9061 29.5561C37.5517 28.7162 39.0154 27.5411 40.2091 26.1015C41.2105 24.9083 41.7763 23.3915 41.8087 21.8133C41.7775 20.2356 41.2131 18.7187 40.2131 17.525ZM35.7481 29.2424C31.4069 31.4012 26.633 32.471 21.8153 32.3648C16.9962 32.4717 12.2208 31.4018 7.87841 29.2424C4.19524 27.2489 2.1657 24.6116 2.1657 21.8133C2.1657 19.0149 4.19524 16.3817 7.87841 14.3841C12.2208 12.2247 16.9962 11.1548 21.8153 11.2617C26.633 11.1555 31.4069 12.2253 35.7481 14.3841C39.4333 16.3776 41.4608 19.0149 41.4608 21.8133C41.4608 24.6116 39.4333 27.2448 35.7481 29.2424Z" fill="black"/>
</svg>
