<svg width="32" height="32" viewBox="0 0 32 32" fill="none" xmlns="http://www.w3.org/2000/svg">
<g clip-path="url(#clip0_156_96)">
<path d="M15.824 16.9805C15.7765 16.9805 15.6855 16.9199 15.5312 16.6377C14.8864 15.4347 13.9996 14.3781 12.9266 13.5346C12.0847 12.8754 11.1508 12.3431 10.1546 11.9547L9.69959 11.7753C8.36499 11.2478 6.9816 10.7032 5.69711 9.95938C5.55473 9.87878 5.41403 9.79524 5.2751 9.70881C5.53094 9.26043 5.82899 8.83183 6.15868 8.44015C6.63645 7.86759 7.19276 7.36545 7.8111 6.94862C8.47343 6.50357 9.19067 6.14629 9.94488 5.88569C11.5512 5.31334 13.4752 5.03244 15.824 5.0298C18.1754 5.03244 20.0981 5.31334 21.7044 5.887C22.459 6.14709 23.1767 6.50393 23.8395 6.94862C24.4577 7.36504 25.0141 7.86674 25.4919 8.43883C25.8216 8.83183 26.1183 9.26043 26.3755 9.70881C26.2383 9.79409 26.0977 9.8785 25.9535 9.96202C24.6664 10.7058 23.2856 11.2505 21.9484 11.7767L21.4934 11.956C20.4981 12.3446 19.5651 12.8769 18.724 13.5359C17.6508 14.3799 16.764 15.4368 16.1194 16.6403C15.9651 16.9212 15.8728 16.9805 15.824 16.9805ZM15.824 26.3082C13.7878 26.3056 12.134 26.1381 10.7731 25.7979C9.43715 25.4655 8.32675 24.9539 7.37591 24.2312C6.6472 23.6713 6.02536 22.9847 5.54017 22.2042C5.08573 21.476 4.72672 20.6924 4.47197 19.8726C4.07455 18.5987 3.86703 17.2731 3.8561 15.9387C3.8561 15.0499 3.91808 14.2072 4.03413 13.4317C5.4927 14.2177 6.87346 14.612 8.09596 14.9615L8.3795 15.0406C10.0807 15.5299 11.4311 16.1708 12.5139 17.003C13.1403 17.4883 13.6876 18.0487 14.1359 18.6699C14.6226 19.3398 15.0103 20.1047 15.2925 20.9448C15.4191 21.3259 15.5563 21.562 15.824 21.562C16.097 21.562 16.2302 21.3246 16.3581 20.9448C16.8596 19.3781 17.8294 18.0028 19.1367 17.0043C20.2181 16.1708 21.5699 15.5299 23.2711 15.0406L23.556 14.9615C24.7771 14.612 26.1579 14.2177 27.6152 13.4317C27.7338 14.2085 27.7945 15.0499 27.7945 15.9374C27.7945 16.5414 27.7338 18.1318 27.1813 19.8726C26.9269 20.6923 26.5684 21.4759 26.1144 22.2042C25.6276 22.9851 25.004 23.6718 24.2734 24.2312C23.3199 24.9539 22.2095 25.4655 20.8788 25.7979C19.5139 26.1381 17.8615 26.3056 15.824 26.3082ZM28.6055 7.11215C26.088 4.40866 22.0249 3.16901 15.824 3.16241C9.62574 3.16901 5.56259 4.40734 3.04505 7.11083C1.17371 9.11668 0 11.8927 0 15.6591C0 17.7415 0.514322 23.0443 4.70011 25.782C7.20579 27.42 10.4421 28.4803 15.824 28.4882C21.2085 28.4803 24.4435 27.42 26.9505 25.782C31.135 23.0443 31.6506 17.7402 31.6506 15.6591C31.6506 11.9033 30.4677 9.10745 28.6042 7.10951L28.6055 7.11215Z" fill="black"/>
</g>
<defs>
<clipPath id="clip0_156_96">
<rect width="31.6506" height="31.6506" fill="white"/>
</clipPath>
</defs>
</svg>
