<svg width="32" height="33" viewBox="0 0 32 33" fill="none" xmlns="http://www.w3.org/2000/svg">
<g clip-path="url(#clip0_156_98)">
<path d="M15.8253 0C24.5595 0 31.6506 7.2827 31.6506 16.253C31.6506 25.2233 24.5595 32.506 15.8253 32.506C7.09105 32.506 0 25.2233 0 16.253C0 7.2827 7.09105 0 15.8253 0ZM4.27942 23.7551C5.51155 25.7553 7.21627 27.4028 9.23498 28.5445C11.2537 29.6861 13.5208 30.2848 15.8253 30.2848C20.6797 30.2848 24.9473 27.6789 27.3712 23.7551L15.8253 19.2368L4.27942 23.7551ZM18.3415 14.7604L27.9251 22.7718C28.9549 20.7619 29.4913 18.5242 29.4878 16.253C29.4878 8.69942 23.6628 2.53141 16.3792 2.23208L18.3415 14.7604ZM15.2714 2.23208C7.98782 2.53141 2.16279 8.69942 2.16279 16.253C2.16279 18.6056 2.72723 20.8228 3.72554 22.7718L13.3091 14.7604L15.2714 2.23208Z" fill="black"/>
</g>
<defs>
<clipPath id="clip0_156_98">
<rect width="31.6506" height="32.506" fill="white"/>
</clipPath>
</defs>
</svg>
