<svg width="39" height="39" viewBox="0 0 39 39" fill="none" xmlns="http://www.w3.org/2000/svg">
<g clip-path="url(#clip0_156_104)">
<path d="M33.0022 23.9866L32.9861 24.0315C30.986 29.8745 25.4718 33.7929 19.255 33.7929C13.0382 33.7929 7.51435 29.8665 5.52228 24.0251L5.50624 23.9785H1.13878V24.5062L2.95602 24.7195C4.07876 24.8479 4.31453 25.3451 4.62088 25.9706L4.69787 26.1246C7.32508 31.7303 13.0446 35.3503 19.2614 35.3503C25.4782 35.3503 31.1994 31.7303 33.8266 26.1326L33.9036 25.9802C34.2083 25.3547 34.4457 24.8575 35.5684 24.7276L37.3873 24.5126V23.9866H33.0022ZM5.52228 14.4545C7.52236 8.61143 13.0382 4.68664 19.255 4.68664C25.4718 4.68664 30.9941 8.61143 32.9877 14.4545L33.0038 14.4994H37.3793V13.9733L35.5604 13.76C34.4377 13.6301 34.2019 13.1345 33.8955 12.5073L33.8202 12.3534C31.193 6.76371 25.4702 3.14368 19.255 3.14368C13.0302 3.14368 7.31706 6.76371 4.68985 12.3694L4.61286 12.5218C4.30812 13.1473 4.07074 13.6445 2.948 13.7744L1.13076 13.9877V14.5154H5.49983L5.52228 14.4545ZM27.7558 16.9983L24.9601 21.4812H26.1663L26.6635 20.6793H29.9243L30.4215 21.4812H31.6196L28.824 16.9983H27.7558ZM29.4126 19.8308H27.1751L28.2979 18.028L29.4126 19.8308ZM33.9196 18.121L37.2413 21.4812H38.494V16.9983H37.5092V20.3425L34.2019 16.9983H32.9268V21.4812H33.9196V18.121ZM0 21.4812H0.992824V18.121L4.32255 21.4812H5.57521V16.9983H4.58239V20.3425L1.27511 16.9983H0V21.4812ZM7.76776 16.9983H8.76059V21.4812H7.76616L7.76776 16.9983ZM14.9629 20.5333C14.9309 20.5413 14.809 20.5413 14.764 20.5413H10.8152V21.4588H14.825C14.8555 21.4588 15.0928 21.4588 15.1378 21.4508C15.9558 21.3738 16.3295 20.6937 16.3295 20.0987C16.3295 19.4876 15.9397 18.8316 15.1987 18.7626C15.0544 18.7466 14.9325 18.7466 14.8779 18.7466H12.2587C12.1615 18.7479 12.0643 18.7404 11.9684 18.7241C11.7615 18.6696 11.6861 18.4867 11.6861 18.3344C11.6861 18.1964 11.7615 18.0136 11.9748 17.9526C12.0655 17.9338 12.1582 17.9263 12.2507 17.9302H16.0311V17.0288H12.1898C12.0294 17.0288 11.9075 17.0352 11.808 17.0512C11.4948 17.0891 11.207 17.2424 11.0009 17.4811C10.7947 17.7199 10.685 18.027 10.6933 18.3424C10.6933 18.8925 11.0365 19.5341 11.792 19.6416C11.9299 19.656 12.1208 19.656 12.2058 19.656H14.756C14.8025 19.656 14.9164 19.656 14.9389 19.664C15.2292 19.7009 15.3286 19.9158 15.3286 20.1067C15.3318 20.2106 15.2961 20.3119 15.2284 20.3908C15.1608 20.4698 15.0661 20.5206 14.9629 20.5333ZM22.4324 20.5333C22.4003 20.5413 22.2784 20.5413 22.2255 20.5413H18.2846V21.4588H22.2944C22.3249 21.4588 22.5623 21.4588 22.6072 21.4508C23.4252 21.3738 23.7989 20.6937 23.7989 20.0987C23.7989 19.4876 23.4092 18.8316 22.6681 18.7626C22.5238 18.7466 22.4019 18.7466 22.3474 18.7466H19.7282C19.6309 18.7479 19.5337 18.7404 19.4379 18.7241C19.2309 18.6696 19.1556 18.4867 19.1556 18.3344C19.1556 18.1964 19.2309 18.0136 19.4443 17.9526C19.5349 17.9338 19.6276 17.9263 19.7201 17.9302H23.5006V17.0288H19.6592C19.4988 17.0288 19.3769 17.0352 19.2775 17.0512C18.9643 17.0891 18.6765 17.2424 18.4703 17.4811C18.2641 17.7199 18.1545 18.027 18.1627 18.3424C18.1627 18.8925 18.506 19.5341 19.263 19.6416C19.3994 19.656 19.5902 19.656 19.6752 19.656H22.2255C22.272 19.656 22.3859 19.656 22.4083 19.664C22.6986 19.7009 22.7981 19.9158 22.7981 20.1067C22.7978 20.2097 22.7608 20.3092 22.6938 20.3874C22.6268 20.4656 22.5341 20.5173 22.4324 20.5333Z" fill="black"/>
</g>
<defs>
<clipPath id="clip0_156_104">
<rect width="38.494" height="38.494" fill="white"/>
</clipPath>
</defs>
</svg>
