<svg width="44" height="45" viewBox="0 0 44 45" fill="none" xmlns="http://www.w3.org/2000/svg">
<g clip-path="url(#clip0_156_106)">
<path d="M22.3422 8.47011C19.4371 8.35439 16.5725 9.19372 14.1708 10.8643C11.7691 12.5348 9.95758 14.9482 9.00342 17.7483H10.0359C10.9365 15.3028 12.5469 13.1954 14.6525 11.7072C16.758 10.2191 19.2586 9.42084 21.8205 9.41905C23.4733 9.41857 25.11 9.7502 26.6371 10.395C28.1641 11.0398 29.5516 11.9851 30.7201 13.1769C31.8887 14.3687 32.8154 15.7836 33.4474 17.3408C34.0793 18.898 34.4041 20.5669 34.4031 22.2521C34.4031 22.4671 34.4031 22.6858 34.385 22.9026L35.3538 23.012C35.3538 22.7636 35.372 22.506 35.372 22.2706C35.3681 18.7 34.0096 15.2693 31.5809 12.6969C29.1521 10.1245 25.8415 8.60987 22.3422 8.47011ZM1.57964 18.7436L0 19.5832L24.0855 22.2521L30.684 18.7436H1.57964ZM8.27268 21.4922V22.2521C8.28651 25.5108 9.42876 28.6598 11.4979 31.1434C13.567 33.6271 16.43 35.2858 19.5816 35.8268C22.7333 36.3679 25.9712 35.7565 28.7238 34.1006C31.4765 32.4447 33.5671 29.8507 34.6267 26.7763H33.5906C32.691 29.2185 31.0824 31.3229 28.9795 32.8088C26.8765 34.2946 24.3791 35.0913 21.8205 35.0925C18.4833 35.0876 15.2844 33.7328 12.926 31.3253C10.5676 28.9179 9.24251 25.6547 9.24155 22.2521V21.5997L8.27268 21.4922ZM19.5301 22.2595L12.9316 25.7773H42.036L43.6229 24.9377V24.9266L19.5301 22.2595ZM43.6229 24.9266L43.6265 24.9284L43.6229 24.9154V24.9266Z" fill="black"/>
</g>
<defs>
<clipPath id="clip0_156_106">
<rect width="43.6265" height="44.4819" fill="white"/>
</clipPath>
</defs>
</svg>
