<svg width="32" height="32" viewBox="0 0 32 32" fill="none" xmlns="http://www.w3.org/2000/svg">
<g clip-path="url(#clip0_156_108)">
<path d="M4.86161 4.88115V4.19355C5.12234 4.15904 5.37818 4.12668 5.62914 4.09648C5.91594 4.06304 6.20275 4.0323 6.48955 4.00426C6.67532 3.98485 6.72258 4.03015 6.7291 4.22267V4.45403C6.7291 4.62553 6.6851 4.67406 6.51236 4.69509C6.11801 4.74363 5.72365 4.78408 5.3293 4.82938L4.86161 4.88115ZM23.6179 4.50095V4.91998C23.6179 5.05912 23.556 5.13192 23.3996 5.1206C22.879 5.08607 22.3586 5.04832 21.8384 5.00735C21.6983 4.99602 21.6299 4.93778 21.625 4.80673C21.6155 4.5048 21.6155 4.20265 21.625 3.90072C21.625 3.76158 21.6967 3.70657 21.8401 3.7179C22.3615 3.75457 22.8825 3.79556 23.4028 3.84086C23.5658 3.85542 23.613 3.91528 23.6196 4.08354C23.6217 4.22699 23.6212 4.36613 23.6179 4.50095ZM29.1031 2.29093C29.121 3.0125 29.1503 3.70334 29.1552 4.39417C29.1552 5.49756 29.178 6.60095 29.1552 7.70273C29.1218 10.5627 28.7315 13.4076 27.9933 16.1723C26.9838 19.8726 25.0112 23.244 22.2735 25.9475C20.4584 27.7447 18.3512 29.2253 16.0404 30.3271C15.9774 30.362 15.9065 30.3803 15.8343 30.3803C15.7622 30.3803 15.6912 30.362 15.6282 30.3271C11.157 28.22 7.51644 24.6994 5.27715 20.3173C4.41115 18.6014 3.76358 16.7851 3.34937 14.9104C3.03428 13.5006 2.81003 12.0724 2.67799 10.6343C2.51256 8.70722 2.45272 6.77263 2.49874 4.83909C2.50852 4.07059 2.53296 3.3021 2.55089 2.53361C2.55089 2.45757 2.56066 2.38153 2.56555 2.28769C11.3496 0.819151 20.3193 0.820245 29.1031 2.29093ZM17.2822 26.1805C17.4451 25.8828 17.6081 25.6288 17.7401 25.3716C17.8713 25.1229 18.0514 24.9029 18.2697 24.7244C19.531 23.6922 20.789 22.6551 22.0535 21.6294C22.2288 21.4994 22.3532 21.3129 22.4055 21.102C22.6348 20.1745 22.781 19.2286 22.8423 18.2755C22.8909 17.5 22.874 16.7218 22.7917 15.949C22.7747 15.7792 22.7129 15.6168 22.6125 15.4782C21.9425 14.5279 21.1999 13.63 20.3914 12.7926C20.2979 12.6903 20.1708 12.6244 20.0329 12.6065C20.0427 12.6793 20.0459 12.7392 20.059 12.7974C20.2056 13.4818 20.3572 14.1629 20.4989 14.8473C20.5326 15.0065 20.6138 15.152 20.732 15.2647C21.1316 15.6484 21.4944 16.0681 21.8156 16.5185C21.9636 16.7214 22.049 16.9625 22.0617 17.2126C22.1332 18.4142 22.1082 19.6196 21.9867 20.8172C21.9762 20.9281 21.9426 21.0357 21.8882 21.1331C21.8338 21.2306 21.7597 21.3158 21.6706 21.3835C20.5299 22.3542 19.3892 23.3249 18.2615 24.307C17.9598 24.5426 17.7106 24.8379 17.5299 25.1742C17.5299 25.1855 17.5038 25.1904 17.4875 25.1984C17.2526 24.6857 17.2008 24.1087 17.3408 23.5628C17.5348 22.9237 17.701 22.2782 17.8786 21.6343L17.9438 21.3705L17.8965 21.3511C17.8607 21.4158 17.8275 21.4816 17.7971 21.5485C17.5722 22.0598 17.3441 22.571 17.129 23.0871C16.9742 23.4608 16.8389 23.841 16.6923 24.2196C16.6539 24.3128 16.635 24.4128 16.6367 24.5135C16.6384 24.6141 16.6606 24.7134 16.702 24.8053C16.865 25.1823 17.0149 25.5657 17.1714 25.9475C17.1991 26.0074 17.2317 26.0672 17.2822 26.1805ZM13.7835 13.2957H13.702C13.7118 13.4769 13.7167 13.6614 13.7346 13.8426C13.7574 14.0901 13.79 14.3279 13.8177 14.5819C13.8428 14.7606 13.8017 14.9423 13.702 15.0932C13.5847 15.2776 13.4804 15.4685 13.3598 15.6497C12.475 16.9677 11.513 18.2329 10.4787 19.4388C10.3195 19.6106 10.2176 19.827 10.187 20.0584C10.1425 20.4899 10.0947 20.9213 10.0436 21.3528C10.0221 21.54 10.067 21.7288 10.1707 21.8867C10.3207 22.1132 10.4641 22.3445 10.627 22.5629C11.4922 23.7233 12.4277 24.8304 13.4282 25.878C13.7269 26.2195 14.0944 26.4951 14.507 26.6869C14.6439 26.7435 14.7726 26.8196 14.9063 26.8827L15.0431 26.9263L15.0725 26.8827C14.997 26.7987 14.9129 26.7228 14.8215 26.6562C14.4962 26.4551 14.2038 26.2058 13.9546 25.9168C12.9979 24.8492 12.104 23.7277 11.2772 22.5581C11.1029 22.3105 10.9513 22.0484 10.7883 21.7928C10.6948 21.6489 10.6529 21.4779 10.6694 21.3074C10.702 20.9979 10.7367 20.6894 10.7737 20.382C10.801 20.2199 10.8853 20.0726 11.0116 19.9662C11.2941 19.7074 11.57 19.4437 11.8394 19.1751C12.3583 18.7766 12.7439 18.2319 12.9459 17.6122C13.3337 16.7903 13.6873 15.9539 14.0573 15.1239C14.1313 14.9939 14.1578 14.8424 14.1322 14.6952C14.0171 14.2206 13.9008 13.7514 13.7835 13.2876V13.2957ZM15.3658 8.1622V8.22854C15.488 8.22854 15.6102 8.2431 15.7325 8.23824C16.4429 8.21452 17.1534 8.18701 17.8639 8.15573C18.1144 8.13607 18.3658 8.18064 18.594 8.28516C18.947 8.44803 19.3034 8.60658 19.663 8.76082C19.8054 8.82104 19.9557 8.86081 20.1095 8.87892C20.4044 8.9129 20.7043 8.90966 20.9976 8.94687C21.1756 8.96351 21.349 9.01231 21.5093 9.09087C22.1367 9.44033 22.7526 9.80597 23.3702 10.1732C23.5108 10.2681 23.6801 10.3115 23.8493 10.2962C23.3947 9.86421 22.9726 9.46298 22.5457 9.06336C22.5163 9.03807 22.4841 9.01635 22.4495 8.99865C21.4692 8.43422 20.4656 7.91065 19.4413 7.42931C19.2194 7.33262 18.9812 7.27776 18.739 7.26752C18.2632 7.24972 17.7873 7.22222 17.3099 7.20604C15.9741 7.16155 14.6368 7.19126 13.3044 7.29502C13.2022 7.29437 13.102 7.32264 13.0154 7.3765C12.9288 7.43037 12.8595 7.50761 12.8155 7.59918C12.672 7.8588 12.4749 8.08539 12.237 8.26413C11.8011 8.64134 11.3388 8.98735 10.8535 9.29957C10.7945 9.32812 10.7418 9.36819 10.6987 9.41739C10.6556 9.46659 10.6229 9.52391 10.6026 9.58593C10.8291 9.46136 11.0246 9.34973 11.2234 9.24456L13.7199 7.9082C13.9309 7.78934 14.1683 7.7243 14.4109 7.71891C14.802 7.71891 15.1914 7.67199 15.5825 7.66552C16.5603 7.65257 17.5527 7.64934 18.5369 7.64448C18.704 7.64237 18.8673 7.69339 19.003 7.79009C17.7955 7.88231 16.5766 7.98262 15.3658 8.15411V8.1622ZM7.04197 13.2245C7.04585 13.4712 6.95495 13.7102 6.78776 13.8927C6.6248 14.0545 6.47162 14.2373 6.32007 14.4153C6.21252 14.5415 6.20437 14.5981 6.30215 14.7243C6.49335 14.9702 6.69216 15.2102 6.89857 15.4443C6.96601 15.4992 7.04054 15.5449 7.12019 15.5802C7.18375 15.2954 7.24404 15.0479 7.29618 14.7971C7.30469 14.724 7.33806 14.6559 7.3908 14.6041C7.44354 14.5523 7.51248 14.52 7.58625 14.5124C8.0409 14.4299 8.49066 14.3328 8.94368 14.2454C9.21582 14.192 9.48958 14.1451 9.79268 14.0917L9.62973 13.8895C9.46677 13.7277 9.29403 13.5659 9.14085 13.3863C9.05863 13.2826 8.95252 13.1999 8.83144 13.1453C8.71036 13.0907 8.57784 13.0657 8.44503 13.0725C8.27602 13.0671 8.10741 13.0531 7.93986 13.0304L7.92357 12.9851C7.97929 12.9386 8.03809 12.8959 8.09956 12.8573C8.14963 12.8359 8.20076 12.817 8.25274 12.8007L10.614 11.9108C10.8512 11.8195 11.045 11.6427 11.1566 11.4158C11.1414 11.4145 11.126 11.4162 11.1114 11.4209C11.0969 11.4257 11.0834 11.4333 11.0719 11.4433C10.7939 11.6754 10.4545 11.8231 10.0942 11.8688C9.97845 11.8914 9.86601 11.9238 9.75194 11.9513C9.61664 11.9909 9.47177 11.9835 9.34129 11.9302C9.26216 11.9008 9.17617 11.8946 9.0936 11.9124C8.93064 11.9399 8.75954 11.9885 8.59169 12.0257C8.54606 12.0354 8.49718 12.037 8.41081 12.0467C8.52013 11.9164 8.66003 11.8147 8.8182 11.7507C8.98116 11.6956 9.14411 11.6245 9.30707 11.5711C9.36488 11.561 9.4171 11.5306 9.4542 11.4854C9.49131 11.4403 9.5108 11.3834 9.50914 11.3252C9.51728 11.1779 9.55802 11.0339 9.57432 10.8867C9.57786 10.8366 9.59311 10.788 9.61885 10.7448C9.64458 10.7015 9.68011 10.6648 9.72261 10.6376C9.91816 10.493 10.1104 10.3463 10.2995 10.1975C10.3364 10.1781 10.3681 10.1502 10.392 10.1162C10.4158 10.0821 10.431 10.0429 10.4364 10.0017C10.1463 10.1732 9.89046 10.3382 9.62158 10.4871C9.15411 10.7269 8.75592 11.081 8.46458 11.5161C8.3738 11.6403 8.26381 11.7495 8.13867 11.8396C7.57484 12.2716 6.99797 12.6923 6.44229 13.1339C6.28276 13.2597 6.13546 13.3999 6.00231 13.553C5.83935 13.7309 5.88172 13.9348 6.10334 14.0836L6.43903 13.8426C6.62195 13.7364 6.77148 13.5818 6.87087 13.396C6.89531 13.3184 6.98168 13.2763 7.04197 13.2245ZM19.179 10.4984C19.4587 10.5604 19.7493 10.5548 20.0264 10.4822C20.2317 10.4094 20.4533 10.3868 20.6635 10.3205C20.7744 10.2828 20.8935 10.2756 21.0082 10.2995C21.123 10.3234 21.229 10.3776 21.3154 10.4564C21.7825 10.836 22.2534 11.2092 22.7282 11.5759C22.8772 11.687 23.0378 11.7819 23.2073 11.8591C23.5185 12.0047 23.8379 12.1325 24.1557 12.2651C24.2367 12.2953 24.3081 12.3462 24.3628 12.4127C24.4175 12.4792 24.4534 12.5589 24.4669 12.6437C24.4783 12.7052 24.4995 12.7634 24.5093 12.8249C24.6022 13.4721 24.6902 14.1192 24.788 14.7664C24.8512 15.1548 24.783 15.553 24.594 15.8989C24.3561 16.3535 24.1231 16.8098 23.8787 17.2611C23.8295 17.3669 23.7544 17.4587 23.6603 17.5281C23.523 17.6008 23.4113 17.7132 23.3399 17.8505C23.2686 17.9878 23.2411 18.1434 23.2611 18.2966C23.2625 18.4225 23.2565 18.5483 23.2431 18.6735C23.3152 18.6288 23.3777 18.5706 23.4273 18.5021C24.0659 17.6278 24.6208 16.6962 25.0845 15.7193C25.1258 15.636 25.1522 15.5462 25.1628 15.454C25.2748 14.3008 25.2304 13.138 25.0308 11.9966C25.02 11.92 24.9931 11.8466 24.9518 11.7811C24.9105 11.7156 24.8558 11.6595 24.7912 11.6164C23.7834 10.9037 22.7147 10.28 21.5973 9.75258C21.494 9.69789 21.3795 9.66741 21.2626 9.66348C21.1456 9.65955 21.0293 9.68229 20.9226 9.72993C20.3995 9.95643 19.8732 10.1748 19.3501 10.3997C19.2911 10.4292 19.234 10.4621 19.179 10.4984ZM16.2458 27.1108C16.2686 26.8759 16.2264 26.6392 16.1236 26.4264C16.0191 26.2091 15.9245 25.9872 15.84 25.7615C15.5641 25.0604 15.2925 24.3593 15.0252 23.6582C14.9632 23.4992 14.9381 23.3283 14.9519 23.1583C14.9959 22.6859 15.0464 22.2135 15.136 21.7491C15.3739 20.5066 15.6347 19.2689 15.884 18.028C15.9037 17.7533 15.8642 17.4775 15.7683 17.2191C15.7231 17.2759 15.6879 17.3399 15.664 17.4084C15.519 17.7853 15.3691 18.1607 15.2305 18.5409C14.7912 19.7117 14.4068 20.9021 14.0784 22.1083C13.9895 22.4226 14.016 22.7581 14.1534 23.0548C14.7536 24.3956 15.4215 25.7056 16.1545 26.9797L16.2507 27.1108H16.2458ZM9.88883 10.8689L9.90675 10.9239C10.0697 10.9239 10.2441 10.9352 10.4119 10.9239C10.7951 10.9284 11.1777 10.891 11.5526 10.8123C12.0301 10.6667 12.5075 10.5243 12.9817 10.3674C13.0847 10.3354 13.174 10.2706 13.236 10.1829C13.4934 9.76714 13.7346 9.34164 13.979 8.91775C13.9895 8.88804 13.9955 8.85697 13.997 8.82553C13.6651 8.77801 13.3268 8.80117 13.0046 8.89348C12.469 9.10704 11.9388 9.33355 11.4141 9.57299C11.2844 9.64161 11.1693 9.73445 11.0752 9.84641C10.9203 10.0105 10.7771 10.1851 10.6466 10.369C10.5196 10.5568 10.3324 10.6965 10.1153 10.7654C10.0373 10.7941 9.96155 10.8287 9.88883 10.8689ZM9.93119 14.4752L9.92142 14.5237C9.98986 14.5528 10.0588 14.5803 10.1284 14.6062C10.5043 14.74 10.8791 14.8748 11.2528 15.0107C11.3158 15.026 11.3741 15.0562 11.4228 15.0987C11.4715 15.1412 11.5091 15.1948 11.5324 15.2548C11.5558 15.3149 11.5642 15.3796 11.5569 15.4436C11.5497 15.5076 11.5269 15.5689 11.4907 15.6222C11.2347 16.1027 10.9306 16.5564 10.583 16.9764C10.5146 17.0604 10.4261 17.126 10.3256 17.1673C9.98986 17.2903 9.64439 17.3922 9.30381 17.5087C9.25318 17.5281 9.19793 17.5323 9.14492 17.5208C9.0919 17.5093 9.04346 17.4826 9.0056 17.444C8.89479 17.3447 8.78235 17.2482 8.66828 17.1544C8.62917 17.122 8.58517 17.0977 8.52325 17.0541C8.47179 17.3292 8.49313 17.613 8.58517 17.8776C8.68632 18.1295 8.76857 18.3885 8.83124 18.6525C8.89153 18.8693 8.9339 19.091 8.99419 19.3094C9.03493 19.4615 9.07893 19.4987 9.22885 19.4712C9.45758 19.4225 9.68249 19.3576 9.90186 19.277C10.014 19.2141 10.1162 19.1351 10.205 19.0424C10.151 19.0177 10.0904 19.0109 10.0322 19.023C9.84809 19.0635 9.6672 19.1104 9.48306 19.1443C9.29892 19.1783 9.29077 19.1443 9.25818 18.9923C9.21379 18.7636 9.1725 18.5344 9.13434 18.3047C9.09523 18.0749 9.10989 18.0814 9.325 18.0086L10.7443 17.5232C10.8668 17.4937 10.9731 17.4184 11.0409 17.3129C11.3886 16.7057 11.7346 16.0973 12.079 15.4879C12.1144 15.4285 12.126 15.3581 12.1116 15.2906C12.0878 15.1879 12.0371 15.0934 11.9647 15.0164C11.8923 14.9394 11.8008 14.8827 11.6993 14.8521C11.2104 14.7356 10.7215 14.6078 10.2196 14.4913C10.1242 14.4775 10.0276 14.4721 9.93119 14.4752ZM17.7107 13.5222C17.6977 13.4446 17.6928 13.3993 17.683 13.3604L17.393 11.9966C17.3639 11.9153 17.3564 11.8279 17.3712 11.7429C17.386 11.6578 17.4227 11.578 17.4777 11.5112C17.5556 11.4146 17.6254 11.3118 17.6863 11.2038C18.0676 10.589 18.0627 10.7686 17.8916 9.97261C17.8878 9.94194 17.8796 9.91197 17.8672 9.88362C17.8527 9.84758 17.8284 9.81623 17.7971 9.79302C17.6201 9.66312 17.3997 9.60525 17.1811 9.63124C16.5407 9.76714 15.8954 9.88524 15.2534 10.0147C15.1258 10.0358 15.0096 10.1006 14.9251 10.1978C14.8406 10.295 14.793 10.4185 14.7906 10.547C14.9274 10.5728 15.066 10.589 15.2012 10.6246C15.3913 10.6708 15.5917 10.6502 15.7683 10.5664C16.1643 10.4046 16.5701 10.2622 16.966 10.0988C17.0342 10.0704 17.1077 10.0568 17.1816 10.0587C17.2554 10.0607 17.3281 10.0782 17.3946 10.1101C17.4509 10.1379 17.5008 10.1769 17.5412 10.2247C17.5815 10.2725 17.6115 10.328 17.6293 10.3879C17.647 10.4477 17.6521 10.5106 17.6443 10.5725C17.6364 10.6344 17.6158 10.694 17.5836 10.7476C17.4098 10.987 17.2311 11.2221 17.0475 11.453C17.0073 11.4955 16.9802 11.5485 16.9692 11.6058C16.9583 11.6631 16.9639 11.7223 16.9856 11.7765C17.1344 12.2414 17.2795 12.7079 17.4207 13.176C17.4426 13.2503 17.4797 13.3194 17.5296 13.379C17.5795 13.4385 17.6411 13.4873 17.7107 13.5222ZM10.2767 4.98631L8.17941 5.13192V4.63038L10.0387 4.48639V4.17737L8.18267 4.31004V3.8538L10.2718 3.69201C10.2718 3.62891 10.2848 3.58361 10.2848 3.53831C10.2827 3.48417 10.2778 3.43018 10.2701 3.37653L7.84372 3.55449V5.47168L10.2881 5.28724L10.2767 4.98631ZM16.8063 4.82452H15.136C14.9633 4.82452 14.8997 4.75496 14.8965 4.58023V3.85865C14.8965 3.57391 14.934 3.53508 15.2224 3.53508H17.0263V3.22283C16.9758 3.22283 16.9383 3.20988 16.8992 3.20988H15.211C15.1251 3.21288 15.0395 3.22261 14.9552 3.23901C14.8514 3.24561 14.7541 3.29134 14.6832 3.36684C14.6123 3.44233 14.5732 3.54188 14.5738 3.64509C14.5564 4.00965 14.5564 4.37422 14.5738 4.73878C14.5737 4.83419 14.6105 4.92601 14.6766 4.99527C14.7427 5.06452 14.8331 5.10591 14.9291 5.11089C15.0291 5.12888 15.1306 5.13755 15.2322 5.13678H16.9432C17.0117 5.13678 17.0785 5.12707 17.1632 5.1206C17.173 4.73716 17.1795 4.37152 17.1632 4.00103H15.8286V4.31004H16.8063V4.82452ZM18.3349 3.56258L20.4533 3.63862V3.33122C19.6385 3.2924 18.8237 3.24548 17.9959 3.24386V5.15457L20.4663 5.24841L20.4533 4.93454L18.343 4.84879V4.36828H19.2898C19.601 4.36828 19.9058 4.42329 20.2121 4.39579V4.09163L18.3381 4.01559L18.3349 3.56258ZM23.9487 4.53331V4.04794C23.9533 3.93794 23.9187 3.82986 23.8511 3.74261C23.7835 3.65536 23.6871 3.5945 23.5788 3.57067C23.5049 3.54661 23.4283 3.5314 23.3507 3.52537C22.8759 3.48762 22.4012 3.45203 21.9264 3.41859C21.8407 3.41185 21.7547 3.41185 21.669 3.41859C21.4213 3.44286 21.2925 3.55449 21.2828 3.80203C21.2697 4.15796 21.2697 4.51389 21.2828 4.86983C21.2797 4.97313 21.3162 5.07375 21.3848 5.15148C21.4534 5.2292 21.5491 5.27828 21.6527 5.28886C21.7604 5.30994 21.8692 5.3256 21.9786 5.33577C22.3208 5.36382 22.6635 5.3897 23.0068 5.41343C23.1933 5.42893 23.3804 5.43379 23.5674 5.42799C23.6188 5.43068 23.6702 5.42244 23.7182 5.40383C23.7661 5.38521 23.8095 5.35665 23.8455 5.32004C23.8814 5.28344 23.9091 5.23964 23.9266 5.19158C23.9441 5.14351 23.9511 5.09228 23.9471 5.04132C23.9585 4.8763 23.952 4.70642 23.952 4.53492L23.9487 4.53331ZM4.84532 5.20473C5.29019 5.15295 5.70084 5.10927 6.11149 5.05912C6.30497 5.03909 6.49745 5.01048 6.68836 4.97337C6.77848 4.96003 6.86188 4.9182 6.92617 4.85408C6.99046 4.78996 7.03221 4.70698 7.04523 4.61744C7.06729 4.41796 7.06729 4.21668 7.04523 4.0172C7.03894 3.93438 7.00231 3.85671 6.94226 3.79888C6.88221 3.74104 6.8029 3.70706 6.71932 3.70334C6.63597 3.68872 6.55107 3.68492 6.46674 3.69201C6.0865 3.72868 5.70627 3.76859 5.32604 3.81173C5.05879 3.84409 4.78719 3.87861 4.51125 3.91528V5.83408L4.83717 5.79525L4.84532 5.20473ZM11.4548 3.3199L11.1029 3.3377V4.67892C11.1029 5.07368 11.2414 5.20473 11.6422 5.21929H11.6895C12.1898 5.19987 12.6901 5.18855 13.1903 5.15943C13.5945 5.13516 13.7216 4.98955 13.7248 4.58184V3.43962C13.7227 3.38138 13.7183 3.31882 13.7118 3.25195H13.3859C13.3859 3.3377 13.3745 3.41374 13.3728 3.48978V4.60773C13.3728 4.79864 13.3337 4.84232 13.1414 4.85203C12.6493 4.87791 12.1572 4.89787 11.6651 4.91189C11.4907 4.91189 11.4483 4.86659 11.4451 4.68701C11.4418 4.50742 11.4451 4.29872 11.4451 4.10457L11.4548 3.3199ZM27.1394 3.90719L24.5761 3.62406V3.94764L25.6907 4.07221V5.66744L26.0427 5.71436V4.10781L27.1394 4.22267V3.90719ZM11.0067 15.9701L10.9562 15.9183L9.4081 17.1867L9.42929 17.2304L10.2604 16.9392C10.3033 16.9207 10.3405 16.8911 10.3679 16.8534C10.5852 16.5601 10.7992 16.2656 11.01 15.9701H11.0067ZM7.98223 15.3229C7.8548 15.3396 7.73299 15.3854 7.62639 15.4567C7.51979 15.528 7.43131 15.6229 7.36789 15.7339L7.82742 16.2613C7.8449 16.2082 7.85958 16.1542 7.87142 16.0995C7.91053 15.8536 7.94475 15.6093 7.98549 15.3213L7.98223 15.3229ZM10.0322 11.1828L10.011 11.6196C10.4787 11.5711 10.5521 11.4886 10.4282 11.165L10.0322 11.1828ZM1.433 1.24255C5.68047 0.508588 9.97817 0.0975326 14.2887 0.0129601C19.6245 -0.0803964 24.9571 0.330781 30.2144 1.24093C30.2144 1.29917 30.234 1.34447 30.2356 1.38977C30.2992 3.20665 30.3529 5.02191 30.3236 6.8404C30.3008 8.70988 30.1615 10.5762 29.9064 12.4285C29.5873 14.8322 28.9495 17.1834 28.0096 19.421C26.1529 23.7466 23.024 27.4148 19.0323 29.9453C18.061 30.5736 17.0447 31.1305 15.9916 31.6117C15.9411 31.6373 15.8853 31.6506 15.8286 31.6506C15.7719 31.6506 15.7161 31.6373 15.6656 31.6117C12.5761 30.2303 9.82255 28.2045 7.59213 25.6721C5.3617 23.1397 3.70678 20.1601 2.73991 16.9359C2.2824 15.4347 1.94779 13.8992 1.73936 12.3444C1.42398 10.0132 1.28562 7.66172 1.32545 5.30989C1.33849 4.02853 1.38249 2.74879 1.41345 1.46743L1.433 1.24255ZM2.02291 1.83631V2.12429C2.0077 2.7531 1.99031 3.38192 1.97076 4.01073C1.89667 6.13809 1.94346 8.2679 2.1109 10.39C2.2275 11.8216 2.43542 13.2444 2.7334 14.6499C3.17712 16.8217 3.92646 18.9207 4.95939 20.8852C7.31417 25.3044 11.066 28.8333 15.6379 30.929C15.6997 30.9595 15.7681 30.9746 15.8371 30.9729C15.9062 30.9712 15.9737 30.9528 16.0339 30.9193C17.1755 30.391 18.2711 29.7697 19.3094 29.0619C22.716 26.7819 25.4339 23.6249 27.172 19.929C28.2449 17.5777 28.9621 15.0818 29.3002 12.5224C29.5575 10.7459 29.6903 8.95385 29.6978 7.15912C29.6978 5.70303 29.6734 4.24694 29.6555 2.77953C29.6555 2.47051 29.631 2.1615 29.618 1.83469C20.4888 0.251255 11.1521 0.252873 2.02291 1.83631Z" fill="black"/>
</g>
<defs>
<clipPath id="clip0_156_108">
<rect width="31.6506" height="31.6506" fill="white"/>
</clipPath>
</defs>
</svg>
