<svg width="37" height="37" viewBox="0 0 37 37" fill="none" xmlns="http://www.w3.org/2000/svg">
<path d="M8.68388 27.8494C7.29226 27.7329 5.90063 27.618 4.509 27.5046C4.38597 27.5081 4.26474 27.4744 4.16109 27.408C4.11833 27.3616 4.08825 27.3049 4.07375 27.2434C4.05926 27.1819 4.06083 27.1177 4.07833 27.0571C4.10745 26.9038 4.2837 26.8471 4.42317 26.8548C6.13205 26.844 7.84094 26.8548 9.54982 26.8456V26.0425C7.86393 26.0348 6.18723 26.0425 4.50593 26.0425C4.18041 26.0146 3.85303 26.0672 3.55264 26.1957C3.40042 26.2706 3.27328 26.3881 3.18673 26.534C3.10019 26.6798 3.05798 26.8478 3.06526 27.0172C3.04454 27.2644 3.06684 27.5133 3.13116 27.7529C3.17572 27.8637 3.2433 27.9637 3.32944 28.0464C3.41557 28.1291 3.51829 28.1926 3.6308 28.2326C3.99878 28.336 4.37823 28.3932 4.76035 28.4027C5.98646 28.5054 7.20183 28.605 8.4218 28.7092C8.49195 28.7044 8.56227 28.7157 8.62736 28.7422C8.69246 28.7688 8.75059 28.8099 8.7973 28.8625C8.83295 28.9357 8.84781 29.0173 8.84024 29.0984C8.83267 29.1795 8.80297 29.2569 8.75439 29.3223C8.65887 29.3957 8.53835 29.4288 8.41874 29.4142H3.25377C3.23995 29.6797 3.23995 29.9457 3.25377 30.2112C5.09293 30.2235 6.92136 30.2112 8.75592 30.2112C9.04614 30.2282 9.33201 30.1345 9.55595 29.9491C9.66429 29.8295 9.74794 29.6897 9.80212 29.5377C9.8563 29.3857 9.87994 29.2244 9.87167 29.0633C9.88918 28.9049 9.87445 28.7446 9.82835 28.5921C9.78226 28.4396 9.70576 28.298 9.60346 28.1759C9.34181 27.9678 9.0182 27.8529 8.68388 27.8494ZM17.6253 26.8655C17.6945 26.8703 17.7641 26.8656 17.8322 26.8517V26.0486L17.7555 26.0394H11.3047V28.7399C11.2791 29.0864 11.3697 29.4315 11.5622 29.7208C11.6881 29.8734 11.8454 29.9972 12.0233 30.0836C12.2013 30.1701 12.3958 30.2173 12.5936 30.2219H15.9102C16.5524 30.2219 17.1961 30.2342 17.8352 30.2112V29.4204H13.1362C13.0219 29.436 12.9056 29.4221 12.7983 29.38C12.691 29.3379 12.5962 29.2689 12.5231 29.1798C12.4348 28.9618 12.4011 28.7256 12.425 28.4916H17.2957C17.4037 28.4952 17.5118 28.4905 17.6191 28.4778V27.6931C17.1593 27.6655 16.6995 27.6931 16.2398 27.6808H12.422V26.8609C14.16 26.867 15.8934 26.8624 17.6253 26.8655ZM26.913 15.8796L9.43181 12.6289V14.7746C12.9058 15.3723 16.3797 15.9654 19.8537 16.5539C20.7181 16.6965 21.5779 16.8605 22.4423 16.9877C22.45 17.0658 22.3764 17.1149 22.3304 17.167C22.0005 17.4352 21.5779 17.5619 21.1549 17.5195C19.2345 17.5011 17.3233 17.5011 15.3953 17.4705C13.4076 17.4309 11.4208 17.3507 9.43641 17.2298C9.49465 18.3456 9.53756 19.4644 9.62032 20.5786C9.62677 20.7859 9.66823 20.9906 9.74293 21.184C9.84103 21.3202 9.9845 21.417 10.1475 21.4568C10.4495 21.525 10.7576 21.5625 11.0671 21.5687C14.914 21.8514 18.7738 21.9138 22.6278 21.7557C23.5259 21.7406 24.422 21.6648 25.3099 21.5289C25.6169 21.486 25.9117 21.3798 26.1755 21.217C26.4393 21.0543 26.6665 20.8384 26.8425 20.5832C27.1104 20.0476 27.2435 19.4547 27.2302 18.856C27.2655 17.8996 27.2839 16.9432 27.3161 15.9869L27.3007 15.9532C27.1732 15.9203 27.0437 15.8958 26.913 15.8796ZM33.7071 26.0379H27.3712V26.8563H29.3974C29.5828 26.8563 29.7683 26.867 29.9537 26.844C30.0181 26.939 29.9675 27.0647 29.9798 27.1735C29.9798 28.1973 29.9675 29.2211 29.9905 30.2388H31.0971V26.8502H33.7117C33.7179 26.5896 33.7179 26.3137 33.7071 26.0379ZM19.9349 26.4639C19.6601 26.7778 19.5206 27.1878 19.5472 27.6042C19.5548 28.487 19.5472 29.3713 19.5548 30.2541H20.666C20.6798 29.8418 20.6461 29.425 20.6828 29.0142C22.0867 29.0296 23.4922 29.002 24.8945 29.028V30.2541H26.0057V26.0409H21.1135C20.6804 26.0222 20.2572 26.174 19.9349 26.4639ZM24.8869 26.8609V28.1851H20.6614V27.8004C20.6471 27.5867 20.6828 27.3726 20.7656 27.1751C20.8274 27.0739 20.9159 26.9917 21.0213 26.9377C21.1268 26.8836 21.2451 26.8597 21.3633 26.8685C22.5404 26.8624 23.7144 26.8701 24.8869 26.8609ZM14.186 10.4311C14.2938 10.2994 14.4278 10.1916 14.5796 10.1146C14.7313 10.0375 14.8974 9.99292 15.0673 9.98356C16.4099 9.91765 17.7555 9.93145 19.0981 9.92685C21.6929 9.92685 24.2845 10.0418 26.8747 10.1767C27.0199 10.1901 27.1658 10.1932 27.3115 10.1859C27.2364 9.17739 27.2134 8.16586 27.1322 7.15892C27.1284 6.94842 27.0853 6.74048 27.005 6.54587C26.8818 6.38716 26.7013 6.28314 26.5022 6.2562C26.1515 6.20156 25.7979 6.16727 25.4432 6.15351C22.0852 5.93895 18.7165 5.82093 15.3539 5.93895C14.2703 5.97726 13.1806 6.01711 12.1078 6.11673C11.402 6.12951 10.7216 6.38191 10.1782 6.83247C9.89772 7.12425 9.71045 7.49292 9.64025 7.89152C9.54308 8.4481 9.49742 9.01245 9.50384 9.57741C9.48852 10.287 9.4594 10.9951 9.4502 11.7032C13.5209 12.3975 17.5869 13.1086 21.6545 13.809C23.5458 14.1324 25.4355 14.4711 27.3253 14.7838V12.8695C23.9535 12.2411 20.5924 11.625 17.2283 10.9951C16.2152 10.805 15.2022 10.6104 14.186 10.4311Z" fill="black"/>
</svg>
