<svg width="32" height="32" viewBox="0 0 32 32" fill="none" xmlns="http://www.w3.org/2000/svg">
<g clip-path="url(#clip0_156_114)">
<path d="M15.8253 0C7.08578 0 0 7.08578 0 15.8253C0 24.5648 7.08578 31.6506 15.8253 31.6506C24.5648 31.6506 31.6506 24.5648 31.6506 15.8253C31.6506 7.08578 24.5648 0 15.8253 0ZM15.8253 30.2844C7.84012 30.2844 1.36625 23.8105 1.36625 15.8253C1.36625 7.84012 7.84012 1.36625 15.8253 1.36625C23.8105 1.36625 30.2844 7.84012 30.2844 15.8253C30.2844 23.8105 23.8105 30.2844 15.8253 30.2844ZM22.6684 20.7457L22.3137 21.7031H21.016C21.3628 20.7681 25.7346 10.3392 17.1441 3.26529C15.3406 3.07302 13.517 3.2746 11.7991 3.8561C12.0853 4.08688 15.0617 6.52925 16.4636 9.54661L16.0521 9.65739C15.2793 8.81469 12.4703 5.72348 9.79454 4.72781C8.3541 5.5124 7.07984 6.56943 6.04263 7.84012C7.29942 8.48236 10.5845 10.4434 11.832 11.9679C11.7135 12.0268 11.5961 12.0879 11.4799 12.1512C9.19054 10.4104 5.12344 9.50837 4.91639 9.46353C4.06083 10.9248 3.51036 12.5443 3.29826 14.2243C9.59673 15.4903 11.2927 18.4048 11.5828 21.7031H10.3893L8.33993 20.8103C8.23221 20.7726 8.12006 20.7491 8.00628 20.7404H4.18975C4.79413 22.1664 5.65504 23.4693 6.72971 24.5846H8.35708C8.49687 24.5846 8.62083 24.5675 8.74216 24.4976L10.3893 23.6562H22.3137L22.6684 24.6136C24.15 24.443 25.525 23.759 26.5549 22.6803C25.5252 21.6011 24.1502 20.9166 22.6684 20.7457ZM17.2087 19.9821C16.9524 19.8098 16.7527 19.5658 16.6345 19.2805C16.5162 18.9953 16.4848 18.6815 16.544 18.3784C16.6054 18.0759 16.7546 17.7982 16.973 17.5801C17.1914 17.3619 17.4692 17.213 17.7718 17.152C18.0747 17.0926 18.3884 17.1238 18.6737 17.2418C18.9589 17.3598 19.203 17.5593 19.3754 17.8153C19.7843 18.4272 19.7144 19.2568 19.1816 19.7882C18.9258 20.0435 18.5894 20.2023 18.2298 20.2376C17.8701 20.273 17.5093 20.1827 17.2087 19.9821Z" fill="black"/>
</g>
<defs>
<clipPath id="clip0_156_114">
<rect width="31.6506" height="31.6506" fill="white"/>
</clipPath>
</defs>
</svg>
