<svg width="32" height="32" viewBox="0 0 32 32" fill="none" xmlns="http://www.w3.org/2000/svg">
<g clip-path="url(#clip0_156_116)">
<path d="M15.8253 5.07465C6.88796 5.07465 0 9.62442 0 15.8253C0 22.0262 6.88928 26.576 15.8253 26.576C24.7613 26.576 31.6506 22.0262 31.6506 15.8253C31.6506 9.62442 24.7626 5.07465 15.8253 5.07465ZM25.4972 10.1374C25.4972 11.5617 23.2223 12.6602 19.5785 13.0994C19.2357 9.69695 18.2532 7.45635 16.9898 6.62025C20.8775 6.8629 25.4972 8.23839 25.4972 10.1374ZM15.8253 21.6292C14.5593 21.6292 13.5227 19.6511 13.441 15.8411C14.2023 15.9035 14.9971 15.9352 15.8253 15.9361C16.6535 15.9361 17.4478 15.9044 18.2083 15.8411C18.1279 19.6524 17.0913 21.6292 15.8253 21.6292ZM15.8253 13.3104C15.0463 13.3104 14.3034 13.2867 13.5966 13.2392C13.9408 10.9603 14.8098 9.08504 15.8253 9.08504C16.8408 9.08504 17.7085 10.9603 18.0527 13.2392C17.3467 13.2858 16.6043 13.3095 15.8253 13.3104ZM14.6621 6.61761C13.4014 7.4524 12.4123 9.69431 12.0721 13.0994C8.42829 12.6602 6.15209 11.5617 6.15209 10.1374C6.15209 8.23839 10.7731 6.85367 14.6621 6.61761ZM2.68634 15.4033C2.68349 13.8995 3.16845 12.4354 4.06842 11.2307C4.42449 13.2708 7.39437 15.0301 11.9441 15.675V15.8253C11.9441 20.7997 13.1033 24.0057 14.6964 25.0172C7.96145 24.5938 2.68634 20.4278 2.68634 15.4033ZM16.9594 25.0172C18.5512 24.0057 19.7117 20.7997 19.7117 15.8253V15.6736C24.2575 15.0301 27.234 13.2656 27.5875 11.2294C28.489 12.4338 28.9746 13.8988 28.9709 15.4033C28.9656 20.4278 23.6865 24.5938 16.9594 25.0172Z" fill="black"/>
</g>
<defs>
<clipPath id="clip0_156_116">
<rect width="31.6506" height="31.6506" fill="white"/>
</clipPath>
</defs>
</svg>
