<svg width="32" height="33" viewBox="0 0 32 33" fill="none" xmlns="http://www.w3.org/2000/svg">
<g clip-path="url(#clip0_156_118)">
<path d="M15.8253 0C7.06863 0 0 7.25968 0 16.253C0 25.2463 7.06863 32.506 15.8253 32.506C24.582 32.506 31.6506 25.2463 31.6506 16.253C31.6506 7.25968 24.582 0 15.8253 0ZM15.8253 1.90973C17.4078 1.90973 18.9376 2.2077 20.3487 2.70884L15.9967 12.3658C15.944 12.42 15.944 12.5419 15.8253 12.5419C15.7066 12.5419 15.7066 12.42 15.6539 12.3658L11.3019 2.70884C12.713 2.2077 14.2428 1.92327 15.8253 1.92327M9.09955 3.7111L14.1373 14.858C14.2428 15.0882 14.3615 15.1559 14.5065 15.1559H17.1441C17.3023 15.1559 17.4078 15.0882 17.5265 14.858L22.4983 3.7111C24.582 4.93008 26.3755 6.67728 27.6415 8.76308L20.5729 22.8084C20.5201 22.9303 20.441 22.9845 20.4015 22.9845C20.2959 22.9845 20.2959 22.8761 20.23 22.8084L17.5265 16.6593C17.4078 16.4291 17.3023 16.3749 17.1441 16.3749H14.5065C14.3615 16.3749 14.2428 16.4291 14.1241 16.6593L11.4206 22.8084C11.3547 22.8761 11.3678 22.9845 11.2492 22.9845C11.1305 22.9845 11.1305 22.8761 11.0777 22.8084L3.95633 8.76308C5.19597 6.67728 7.01588 4.93008 9.09955 3.7111ZM2.71668 11.5532L10.8535 27.8062C10.959 28.0364 11.0777 28.2125 11.3678 28.2125C11.6448 28.2125 11.7503 28.0364 11.869 27.8062L15.6539 19.1515C15.7066 19.0431 15.7725 18.9618 15.8253 18.9618C15.944 18.9618 15.944 19.0973 15.9967 19.1515L19.8344 27.8062C19.9531 28.0364 20.0586 28.2125 20.3487 28.2125C20.6256 28.2125 20.7443 28.0364 20.8498 27.8062L29.0131 11.5532C29.501 13.0024 29.7911 14.5735 29.7911 16.253C29.7252 24.0951 23.461 30.5963 15.8253 30.5963C8.18959 30.5963 1.92541 24.0951 1.92541 16.253C1.92541 14.6277 2.20235 13.0701 2.71668 11.5532Z" fill="black"/>
</g>
<defs>
<clipPath id="clip0_156_118">
<rect width="31.6506" height="32.506" fill="white"/>
</clipPath>
</defs>
</svg>
