<svg width="32" height="33" viewBox="0 0 32 33" fill="none" xmlns="http://www.w3.org/2000/svg">
<g clip-path="url(#clip0_156_120)">
<path d="M14.339 17.044H14.9852L14.9839 15.0774H14.339V14.6413H16.8975V15.0774H16.2605V17.0427H16.8526C17.3999 17.0427 17.7586 16.6715 17.7586 16.1677H18.1806V17.4842H14.339V17.044ZM20.0269 17.4869H21.5224L22.7911 15.0774H23.4267V14.6413H21.5145V15.0774H22.0671L21.1426 16.8314L20.2063 15.0774H20.8788L20.8762 14.6413H18.1015V15.0774H18.7372L20.0269 17.4869ZM6.69015 14.6413H3.91412V15.0774H4.54846L5.84085 17.4869H7.33503L8.60369 15.0774H9.23934V14.6413H7.32711V15.0774H7.87836L6.95522 16.8314L6.01889 15.0774H6.69015V14.6413ZM11.5788 14.5817C12.8647 14.5817 13.5544 15.2399 13.5544 16.0661C13.5544 16.9032 12.9029 17.5709 11.5854 17.5709C10.268 17.5709 9.61123 16.9032 9.61123 16.0661C9.61123 15.2399 10.293 14.5817 11.5788 14.5817ZM11.6013 15.0286C11.1621 15.0219 10.9063 15.5 10.897 16.0485C10.8891 16.5767 11.0949 17.1104 11.5643 17.1185C12.047 17.128 12.2554 16.5903 12.2633 16.0729C12.2738 15.5244 12.0417 15.0381 11.6013 15.03V15.0286ZM25.7623 14.5817C27.0468 14.5817 27.7365 15.2399 27.7365 16.0661C27.7365 16.9032 27.0863 17.5709 25.7689 17.5709C24.4501 17.5709 23.7933 16.9032 23.7933 16.0661C23.7933 15.2399 24.4765 14.5817 25.7623 14.5817ZM25.0805 16.0485C25.0712 16.5767 25.2783 17.1104 25.7478 17.1185C26.2304 17.128 26.4388 16.5903 26.4467 16.0729C26.4573 15.5244 26.2252 15.0381 25.7847 15.03C25.3442 15.0219 25.0897 15.5 25.0805 16.0485ZM28.8482 7.01861L27.2406 8.66829C28.6667 10.9265 29.4236 13.5614 29.4192 16.253C29.4192 23.9637 23.3331 30.2144 15.8253 30.2144C8.31751 30.2144 2.23137 23.9637 2.23137 16.253C2.23137 8.54233 8.31751 2.2917 15.8253 2.2917C18.5552 2.2917 21.0951 3.11789 23.2249 4.54003L24.8325 2.88899C22.1883 1.00297 19.0447 -0.00530279 15.8253 2.0974e-05C7.08578 2.0974e-05 0 7.27731 0 16.253C0 25.2288 7.08578 32.506 15.8253 32.506C24.5648 32.506 31.6506 25.2288 31.6506 16.253C31.6506 12.8223 30.6154 9.64077 28.8482 7.01861ZM23.7854 0.639306V1.09574C24.7455 1.62939 25.6489 2.25919 26.485 2.96755L24.2299 5.2836C25.0808 5.96921 25.8489 6.75674 26.5179 7.62945L28.7704 5.31611C29.4614 6.17752 30.0747 7.10665 30.5956 8.07641H31.0281V0.64066L23.7854 0.639306Z" fill="black"/>
</g>
<defs>
<clipPath id="clip0_156_120">
<rect width="31.6506" height="32.506" fill="white"/>
</clipPath>
</defs>
</svg>
