<svg width="155" height="44" viewBox="0 0 155 44" fill="none" xmlns="http://www.w3.org/2000/svg">
<path d="M5.32241 27.2682H2.48624L0.463659 26.4806C-0.154553 23.2476 -0.154553 19.9268 0.463659 16.6938L2.48624 15.9051L5.32241 15.8932C4.80837 17.7476 4.54673 19.6629 4.54458 21.5872C4.5443 23.5074 4.806 25.4187 5.32241 27.2682ZM34.0795 21.5872C34.0795 23.3849 33.5464 25.1422 32.5477 26.6369C31.549 28.1316 30.1294 29.2965 28.4686 29.9845C26.8078 30.6724 24.9802 30.8524 23.2171 30.5017C21.454 30.151 19.8345 29.2853 18.5633 28.0142C17.2922 26.7431 16.4265 25.1235 16.0758 23.3604C15.7251 21.5973 15.9051 19.7697 16.593 18.1089C17.281 16.4481 18.446 15.0286 19.9407 14.0298C21.4354 13.0311 23.1927 12.498 24.9903 12.498C27.4 12.5009 29.7102 13.4594 31.4142 15.1633C33.1181 16.8673 34.0766 19.1775 34.0795 21.5872ZM29.0073 17.5702C29.1662 17.7292 29.3687 17.8375 29.5892 17.8814C29.8096 17.9253 30.0382 17.9029 30.2459 17.8169C30.4536 17.7309 30.6311 17.5852 30.756 17.3983C30.8809 17.2114 30.9476 16.9917 30.9476 16.7669C30.9476 16.5421 30.8809 16.3224 30.756 16.1355C30.6311 15.9486 30.4536 15.8029 30.2459 15.7169C30.0382 15.6309 29.8096 15.6085 29.5892 15.6524C29.3687 15.6963 29.1662 15.8046 29.0073 15.9636C28.9018 16.069 28.818 16.1943 28.7609 16.3321C28.7037 16.4699 28.6743 16.6177 28.6743 16.7669C28.6743 16.9161 28.7037 17.0639 28.7609 17.2017C28.818 17.3395 28.9018 17.4647 29.0073 17.5702ZM23.8539 14.7698C23.8537 14.9946 23.9202 15.2144 24.0449 15.4014C24.1696 15.5885 24.3471 15.7343 24.5547 15.8205C24.7623 15.9066 24.9909 15.9293 25.2114 15.8856C25.4319 15.8418 25.6345 15.7337 25.7935 15.5748C25.9526 15.4159 26.0609 15.2134 26.1048 14.993C26.1488 14.7725 26.1263 14.5439 26.0403 14.3362C25.9544 14.1285 25.8087 13.951 25.6218 13.826C25.4349 13.7011 25.2151 13.6344 24.9903 13.6344C24.6891 13.6344 24.4002 13.754 24.1871 13.9669C23.9741 14.1798 23.8542 14.4686 23.8539 14.7698ZM19.3667 17.5702C19.5256 17.7292 19.7281 17.8375 19.9486 17.8814C20.1691 17.9253 20.3976 17.9029 20.6053 17.8169C20.813 17.7309 20.9905 17.5852 21.1154 17.3983C21.2403 17.2114 21.307 16.9917 21.307 16.7669C21.307 16.5421 21.2403 16.3224 21.1154 16.1355C20.9905 15.9486 20.813 15.8029 20.6053 15.7169C20.3976 15.6309 20.1691 15.6085 19.9486 15.6524C19.7281 15.6963 19.5256 15.8046 19.3667 15.9636C19.2612 16.069 19.1774 16.1943 19.1203 16.3321C19.0631 16.4699 19.0337 16.6177 19.0337 16.7669C19.0337 16.9161 19.0631 17.0639 19.1203 17.2017C19.1774 17.3395 19.2612 17.4647 19.3667 17.5702ZM19.3093 21.5872C19.3093 21.3624 19.2427 21.1427 19.1178 20.9558C18.9929 20.7689 18.8155 20.6233 18.6078 20.5373C18.4001 20.4513 18.1716 20.4288 17.9512 20.4726C17.7308 20.5165 17.5283 20.6247 17.3693 20.7836C17.2104 20.9426 17.1022 21.145 17.0583 21.3655C17.0145 21.5859 17.037 21.8144 17.123 22.0221C17.209 22.2297 17.3547 22.4072 17.5415 22.5321C17.7284 22.657 17.9481 22.7236 18.1729 22.7236C18.4743 22.7236 18.7634 22.6039 18.9765 22.3908C19.1896 22.1776 19.3093 21.8886 19.3093 21.5872ZM20.9733 25.6042C20.8144 25.4452 20.6119 25.3369 20.3915 25.293C20.171 25.249 19.9425 25.2715 19.7348 25.3575C19.5271 25.4435 19.3495 25.5891 19.2246 25.776C19.0997 25.9629 19.0331 26.1827 19.0331 26.4075C19.0331 26.6323 19.0997 26.852 19.2246 27.0389C19.3495 27.2258 19.5271 27.3715 19.7348 27.4575C19.9425 27.5435 20.171 27.5659 20.3915 27.522C20.6119 27.4781 20.8144 27.3698 20.9733 27.2108C21.0789 27.1053 21.1627 26.9801 21.2198 26.8423C21.2769 26.7044 21.3063 26.5567 21.3063 26.4075C21.3063 26.2583 21.2769 26.1105 21.2198 25.9727C21.1627 25.8349 21.0789 25.7096 20.9733 25.6042ZM26.1267 28.4046C26.127 28.1798 26.0605 27.96 25.9357 27.7729C25.811 27.5859 25.6336 27.4401 25.426 27.3539C25.2183 27.2677 24.9898 27.2451 24.7693 27.2888C24.5488 27.3325 24.3462 27.4407 24.1871 27.5996C24.0281 27.7585 23.9198 27.9609 23.8758 28.1814C23.8319 28.4019 23.8543 28.6304 23.9403 28.8382C24.0263 29.0459 24.1719 29.2234 24.3589 29.3483C24.5458 29.4733 24.7655 29.5399 24.9903 29.5399C25.2915 29.5399 25.5804 29.4204 25.7935 29.2075C26.0066 28.9946 26.1265 28.7058 26.1267 28.4046ZM29.5349 21.5872C29.5349 20.6871 29.2679 19.8071 28.7677 19.0588C28.2675 18.3104 27.5566 17.7272 26.7249 17.383C25.8931 17.0388 24.978 16.949 24.0953 17.125C23.2125 17.301 22.4018 17.7349 21.7657 18.3718C21.1295 19.0086 20.6966 19.8199 20.5217 20.7029C20.3467 21.5858 20.4376 22.5008 20.7828 23.3322C21.128 24.1635 21.7121 24.8737 22.461 25.373C23.21 25.8723 24.0902 26.1383 24.9903 26.1372C26.1961 26.1358 27.352 25.6557 28.2042 24.8026C29.0563 23.9495 29.5349 22.793 29.5349 21.5872ZM30.6182 25.6042C30.4593 25.4452 30.2569 25.3369 30.0364 25.293C29.8159 25.249 29.5874 25.2715 29.3797 25.3575C29.172 25.4435 28.9945 25.5891 28.8696 25.776C28.7447 25.9629 28.678 26.1827 28.678 26.4075C28.678 26.6323 28.7447 26.852 28.8696 27.0389C28.9945 27.2258 29.172 27.3715 29.3797 27.4575C29.5874 27.5435 29.8159 27.5659 30.0364 27.522C30.2569 27.4781 30.4593 27.3698 30.6182 27.2108C30.7235 27.105 30.8069 26.9796 30.8637 26.8416C30.9205 26.7036 30.9495 26.5558 30.9491 26.4066C30.9487 26.2574 30.9189 26.1097 30.8614 25.972C30.8039 25.8343 30.7198 25.7093 30.6139 25.6042H30.6182ZM31.8099 20.4508C31.5851 20.4503 31.3651 20.5166 31.178 20.6412C30.9908 20.7658 30.8448 20.9432 30.7585 21.1508C30.6721 21.3584 30.6493 21.587 30.6929 21.8076C30.7365 22.0281 30.8446 22.2308 31.0034 22.39C31.1623 22.5491 31.3647 22.6576 31.5852 22.7016C31.8057 22.7456 32.0344 22.7233 32.2421 22.6373C32.4499 22.5514 32.6275 22.4057 32.7525 22.2188C32.8775 22.0318 32.9442 21.812 32.9442 21.5872C32.9442 21.2858 32.8244 20.9967 32.6113 20.7836C32.3982 20.5705 32.1091 20.4508 31.8077 20.4508H31.8099ZM46.5779 21.5872C46.581 25.8447 45.3242 30.0079 42.9658 33.5525C40.6074 37.097 37.2528 39.8644 33.3245 41.5061C29.3963 43.1478 25.0701 43.5904 20.8908 42.7781C16.7115 41.9658 12.8661 39.9349 9.83883 36.9413L13.0953 34.9057C13.2586 34.8036 13.3932 34.6616 13.4865 34.4931C13.5797 34.3246 13.6285 34.1352 13.6283 33.9426V29.7176C13.628 29.5117 13.5722 29.3096 13.4669 29.1326C12.0865 26.8565 11.3566 24.2454 11.3566 21.5834C11.3566 18.9214 12.0865 16.3103 13.4669 14.0342C13.5723 13.8576 13.6281 13.6559 13.6283 13.4503V9.23719C13.6285 9.04461 13.5797 8.85515 13.4865 8.68666C13.3932 8.51816 13.2586 8.37619 13.0953 8.27411L9.83883 6.2331C12.8661 3.23948 16.7115 1.20861 20.8908 0.396288C25.0701 -0.41603 29.3963 0.0265299 33.3245 1.66823C37.2528 3.30993 40.6074 6.07734 42.9658 9.62191C45.3242 13.1665 46.581 17.3297 46.5779 21.5872ZM31.1946 7.99027C31.251 8.1284 31.3342 8.25404 31.4393 8.35998C31.5444 8.46592 31.6693 8.55009 31.807 8.60765C31.9447 8.66521 32.0923 8.69505 32.2416 8.69544C32.3908 8.69583 32.5386 8.66678 32.6766 8.60994L34.0221 8.05744C34.1601 8.00053 34.2855 7.917 34.3912 7.81162C34.4969 7.70623 34.5809 7.58106 34.6382 7.44324C34.6955 7.30542 34.7252 7.15766 34.7254 7.00839C34.7257 6.85912 34.6965 6.71127 34.6396 6.57327C34.5827 6.43527 34.4991 6.30984 34.3938 6.20412C34.2884 6.0984 34.1632 6.01448 34.0254 5.95714C33.8876 5.8998 33.7398 5.87017 33.5905 5.86993C33.4413 5.8697 33.2934 5.89886 33.1554 5.95577L31.8099 6.50827C31.6722 6.56513 31.547 6.64858 31.4415 6.75385C31.336 6.85911 31.2523 6.98413 31.1952 7.12176C31.138 7.2594 31.1085 7.40694 31.1084 7.55596C31.1083 7.70498 31.1376 7.85257 31.1946 7.99027ZM23.5289 6.58194C23.6472 6.67395 23.7826 6.74162 23.9272 6.78104C24.0719 6.82046 24.2229 6.83085 24.3715 6.81161C24.5202 6.79237 24.6636 6.74389 24.7934 6.66896C24.9232 6.59402 25.0369 6.49412 25.1279 6.37502L26.0173 5.22885C26.1931 4.98977 26.2683 4.69143 26.227 4.3976C26.1857 4.10376 26.0311 3.83773 25.7963 3.65637C25.5614 3.475 25.265 3.39268 24.9702 3.427C24.6755 3.46131 24.4059 3.60955 24.219 3.84002L23.3296 4.98619C23.1454 5.22456 23.0633 5.52632 23.1015 5.82514C23.1397 6.12396 23.295 6.39539 23.5332 6.57977L23.5289 6.58194ZM15.2122 7.91552C15.1721 8.2143 15.2523 8.51676 15.4351 8.75645C15.6179 8.99614 15.8884 9.15346 16.1872 9.19385C16.2382 9.20034 16.2896 9.20359 16.341 9.2036C16.6158 9.20318 16.8812 9.10318 17.0879 8.92212C17.2947 8.74107 17.4288 8.49122 17.4655 8.21885L17.6605 6.77694C17.6978 6.47975 17.6162 6.17986 17.4336 5.94249C17.2509 5.70511 16.9819 5.54943 16.6851 5.50932C16.3883 5.4692 16.0877 5.54788 15.8485 5.72825C15.6094 5.90862 15.4512 6.1761 15.4082 6.47252L15.2122 7.91552ZM18.2704 35.1841C18.2139 35.0459 18.1306 34.9203 18.0254 34.8143C17.9202 34.7084 17.7952 34.6242 17.6574 34.5666C17.5196 34.5091 17.3719 34.4793 17.2226 34.4789C17.0733 34.4785 16.9254 34.5076 16.7873 34.5644L15.4418 35.1169C15.1631 35.2319 14.9415 35.4528 14.8257 35.7311C14.7099 36.0095 14.7094 36.3224 14.8243 36.6011C14.9393 36.8798 15.1602 37.1014 15.4385 37.2172C15.7169 37.333 16.0298 37.3335 16.3085 37.2186L17.654 36.6661C17.9322 36.5512 18.1534 36.3306 18.269 36.0527C18.3846 35.7748 18.3851 35.4624 18.2704 35.1841ZM25.935 36.5924C25.6964 36.4086 25.3946 36.327 25.0959 36.3653C24.7971 36.4037 24.5258 36.559 24.3414 36.7972L23.452 37.9455C23.3608 38.0635 23.2937 38.1983 23.2547 38.3423C23.2156 38.4862 23.2052 38.6364 23.2242 38.7843C23.2431 38.9323 23.291 39.075 23.3652 39.2044C23.4393 39.3338 23.5382 39.4474 23.6562 39.5386C23.7742 39.6298 23.909 39.6968 24.0529 39.7359C24.1969 39.775 24.3471 39.7854 24.495 39.7664C24.6429 39.7474 24.7857 39.6995 24.9151 39.6254C25.0445 39.5513 25.1581 39.4524 25.2492 39.3344L26.1387 38.1839C26.3221 37.946 26.4036 37.6451 26.3654 37.3471C26.3273 37.0492 26.1725 36.7786 25.935 36.5946V36.5924ZM34.2517 35.2589C34.2741 35.1099 34.2665 34.9579 34.2296 34.8119C34.1926 34.6658 34.127 34.5286 34.0366 34.4081C33.9461 34.2876 33.8326 34.1864 33.7026 34.1102C33.5727 34.034 33.4288 33.9844 33.2795 33.9643C33.1302 33.9442 32.9784 33.954 32.8329 33.993C32.6875 34.0321 32.5512 34.0998 32.4321 34.192C32.313 34.2843 32.2134 34.3993 32.1391 34.5303C32.0649 34.6614 32.0174 34.8059 31.9995 34.9555L31.8045 36.3974C31.7844 36.5454 31.7936 36.6959 31.8318 36.8403C31.8699 36.9847 31.9362 37.1202 32.0267 37.2389C32.1173 37.3577 32.2304 37.4574 32.3596 37.5323C32.4888 37.6073 32.6315 37.656 32.7795 37.6758C32.8302 37.6822 32.8812 37.6855 32.9322 37.6855C33.207 37.6852 33.4724 37.5854 33.6793 37.4045C33.8862 37.2237 34.0207 36.9741 34.0578 36.7019L34.2517 35.2589ZM36.3523 21.5872C36.3523 19.34 35.686 17.1433 34.4375 15.2748C33.189 13.4063 31.4145 11.95 29.3384 11.0901C27.2622 10.2301 24.9777 10.0051 22.7737 10.4435C20.5697 10.8819 18.5452 11.964 16.9562 13.553C15.3672 15.142 14.285 17.1666 13.8466 19.3706C13.4082 21.5746 13.6332 23.8591 14.4932 25.9352C15.3532 28.0114 16.8095 29.7859 18.6779 31.0343C20.5464 32.2828 22.7431 32.9492 24.9903 32.9492C28.0027 32.9457 30.8906 31.7476 33.0207 29.6175C35.1507 27.4875 36.3489 24.5995 36.3523 21.5872ZM38.1041 14.3224L39.5471 14.5174C39.5977 14.5238 39.6488 14.5271 39.6998 14.5271C39.9815 14.5179 40.2498 14.4042 40.4524 14.2083C40.655 14.0124 40.7777 13.7482 40.7964 13.467C40.8152 13.1857 40.7288 12.9076 40.554 12.6865C40.3791 12.4654 40.1284 12.3171 39.8504 12.2705L38.4085 12.0744C38.1097 12.0341 37.8071 12.1141 37.5672 12.2968C37.3274 12.4795 37.17 12.7501 37.1296 13.0489C37.0892 13.3477 37.1692 13.6503 37.352 13.8902C37.5347 14.13 37.8053 14.2874 38.1041 14.3278V14.3224ZM40.3661 30.0166L39.8125 28.67C39.6976 28.3915 39.4767 28.17 39.1985 28.0543C38.9202 27.9386 38.6074 27.9381 38.3289 28.0531C38.0503 28.168 37.8288 28.3889 37.7131 28.6671C37.5974 28.9453 37.597 29.2581 37.7119 29.5367L38.2644 30.8833C38.35 31.0916 38.4955 31.2699 38.6827 31.3953C38.8698 31.5207 39.09 31.5875 39.3152 31.5874C39.4639 31.5879 39.6112 31.5588 39.7486 31.5019C39.8868 31.4451 40.0125 31.3616 40.1184 31.2562C40.2243 31.1507 40.3083 31.0254 40.3657 30.8874C40.4231 30.7495 40.4526 30.6015 40.4527 30.4521C40.4528 30.3026 40.4233 30.1546 40.3661 30.0166ZM42.6898 22.6705C42.7813 22.5526 42.8486 22.4178 42.8879 22.2738C42.9272 22.1298 42.9377 21.9795 42.9188 21.8315C42.8998 21.6834 42.8519 21.5406 42.7776 21.4111C42.7034 21.2816 42.6044 21.1681 42.4862 21.0769L41.3357 20.1789C41.0972 19.9945 40.7953 19.9125 40.4963 19.9508C40.1973 19.9891 39.9258 20.1446 39.7415 20.3831C39.5572 20.6215 39.4752 20.9235 39.5135 21.2224C39.5518 21.5214 39.7073 21.7929 39.9457 21.9772L41.0962 22.8666C41.3337 23.0516 41.6348 23.1349 41.9336 23.0982C42.2324 23.0614 42.5043 22.9076 42.6898 22.6705ZM11.3566 33.3197L7.11316 35.9858C5.63601 34.0291 4.47232 31.8545 3.66383 29.5399H5.32241C5.671 29.5406 6.01504 29.4608 6.32771 29.3067C6.64037 29.1525 6.91319 28.9283 7.12491 28.6513C7.33662 28.3744 7.4815 28.0523 7.54824 27.7101C7.61497 27.368 7.60177 27.0151 7.50966 26.6789C6.57943 23.3507 6.57943 19.8312 7.50966 16.5031C7.60257 16.1666 7.61638 15.8132 7.55001 15.4705C7.48365 15.1278 7.3389 14.8051 7.1271 14.5276C6.9153 14.2501 6.64218 14.0254 6.3291 13.871C6.01603 13.7167 5.67148 13.6368 5.32241 13.6377H3.67791C4.48056 11.3286 5.63928 9.15923 7.11208 7.2081L11.362 9.86444V13.1469C9.87325 15.712 9.08915 18.6252 9.08915 21.591C9.08915 24.5568 9.87325 27.4699 11.362 30.035L11.3566 33.3197ZM8.75116 12.1622C8.91017 12.0033 9.01848 11.8008 9.06239 11.5803C9.1063 11.3599 9.08384 11.1313 8.99786 10.9236C8.91187 10.7159 8.76621 10.5384 8.57931 10.4135C8.39241 10.2886 8.17266 10.2219 7.94787 10.2219C7.72307 10.2219 7.50333 10.2886 7.31643 10.4135C7.12953 10.5384 6.98387 10.7159 6.89788 10.9236C6.81189 11.1313 6.78943 11.3599 6.83334 11.5803C6.87726 11.8008 6.98557 12.0033 7.14458 12.1622C7.35767 12.3751 7.64661 12.4948 7.94787 12.4948C8.24913 12.4948 8.53806 12.3751 8.75116 12.1622ZM8.75116 31.0057C8.5922 30.8468 8.38971 30.7387 8.16928 30.6949C7.94886 30.6511 7.7204 30.6736 7.5128 30.7597C7.30519 30.8457 7.12775 30.9914 7.00291 31.1782C6.87807 31.3651 6.81144 31.5848 6.81144 31.8095C6.81144 32.0343 6.87807 32.2539 7.00291 32.4408C7.12775 32.6277 7.30519 32.7733 7.5128 32.8594C7.7204 32.9454 7.94886 32.9679 8.16928 32.9242C8.38971 32.8804 8.5922 32.7722 8.75116 32.6134C8.9622 32.4003 9.08059 32.1126 9.08059 31.8128C9.08059 31.5129 8.9622 31.2252 8.75116 31.0122V31.0057Z" fill="white"/>
<path d="M150.062 39.6809C148.179 39.6809 146.82 39.2122 145.984 38.2747C145.156 37.3372 144.742 35.845 144.742 33.7981V31.7825H148.82V34.3606C148.82 34.8372 148.89 35.2122 149.031 35.4856C149.179 35.7512 149.433 35.884 149.793 35.884C150.168 35.884 150.426 35.7747 150.566 35.5559C150.715 35.3372 150.789 34.9778 150.789 34.4778C150.789 33.845 150.726 33.3176 150.601 32.8958C150.476 32.4661 150.258 32.0598 149.945 31.677C149.64 31.2864 149.215 30.8333 148.668 30.3176L146.816 28.5598C145.433 27.2551 144.742 25.7629 144.742 24.0833C144.742 22.3254 145.148 20.9856 145.961 20.0637C146.781 19.1418 147.965 18.6809 149.512 18.6809C151.402 18.6809 152.742 19.1848 153.531 20.1926C154.328 21.2004 154.726 22.7317 154.726 24.7864H150.531V23.3684C150.531 23.0872 150.449 22.8684 150.285 22.7122C150.129 22.5559 149.914 22.4778 149.64 22.4778C149.312 22.4778 149.07 22.5715 148.914 22.759C148.765 22.9387 148.691 23.1731 148.691 23.4622C148.691 23.7512 148.769 24.0637 148.926 24.3997C149.082 24.7356 149.39 25.1223 149.851 25.5598L152.23 27.845C152.707 28.2981 153.144 28.7786 153.543 29.2864C153.941 29.7864 154.262 30.3723 154.504 31.0442C154.746 31.7083 154.867 32.5208 154.867 33.4817C154.867 35.4192 154.508 36.9387 153.789 38.0403C153.078 39.134 151.836 39.6809 150.062 39.6809Z" fill="white"/>
<path d="M137.441 39.4934V22.8293H134.992V18.8684H144.015V22.8293H141.566V39.4934H137.441Z" fill="white"/>
<path d="M124.234 39.4934V18.8684H130.562C131.617 18.8684 132.414 19.1106 132.953 19.595C133.492 20.0715 133.851 20.7434 134.031 21.6106C134.219 22.47 134.312 23.4817 134.312 24.6458C134.312 25.7708 134.168 26.6692 133.879 27.3411C133.597 28.0129 133.062 28.4778 132.273 28.7356C132.922 28.8684 133.375 29.1926 133.633 29.7083C133.898 30.2161 134.031 30.8762 134.031 31.6887V39.4934H129.965V31.4192C129.965 30.8176 129.84 30.4465 129.59 30.3059C129.347 30.1575 128.953 30.0833 128.406 30.0833V39.4934H124.234ZM128.429 26.509H129.426C129.996 26.509 130.281 25.8879 130.281 24.6458C130.281 23.8411 130.219 23.3137 130.094 23.0637C129.969 22.8137 129.734 22.6887 129.39 22.6887H128.429V26.509Z" fill="white"/>
<path d="M112.023 39.4934L114.015 18.8684H121.012L122.969 39.4934H119.066L118.773 36.1653H116.289L116.031 39.4934H112.023ZM116.582 32.8723H118.457L117.554 22.384H117.367L116.582 32.8723Z" fill="white"/>
<path d="M101.594 39.4934V18.8684H107.043C108.183 18.8684 109.086 19.1223 109.75 19.6301C110.422 20.1379 110.902 20.8606 111.191 21.7981C111.48 22.7356 111.625 23.8528 111.625 25.1497C111.625 26.3997 111.504 27.4895 111.262 28.4192C111.019 29.3411 110.586 30.0559 109.961 30.5637C109.344 31.0715 108.465 31.3254 107.324 31.3254H105.648V39.4934H101.594ZM105.648 27.6223H105.883C106.648 27.6223 107.117 27.4075 107.289 26.9778C107.461 26.5481 107.547 25.9153 107.547 25.0793C107.547 24.2981 107.461 23.6965 107.289 23.2747C107.125 22.845 106.73 22.6301 106.105 22.6301H105.648V27.6223Z" fill="white"/>
<path d="M90.156 39.4934V18.8684H96.4842C97.5388 18.8684 98.3357 19.1106 98.8748 19.595C99.4138 20.0715 99.7732 20.7434 99.9529 21.6106C100.14 22.47 100.234 23.4817 100.234 24.6458C100.234 25.7708 100.09 26.6692 99.8006 27.3411C99.5193 28.0129 98.9842 28.4778 98.1951 28.7356C98.8435 28.8684 99.2967 29.1926 99.5545 29.7083C99.8201 30.2161 99.9529 30.8762 99.9529 31.6887V39.4934H95.8865V31.4192C95.8865 30.8176 95.7615 30.4465 95.5115 30.3059C95.2693 30.1575 94.8748 30.0833 94.3279 30.0833V39.4934H90.156ZM94.3513 26.509H95.3474C95.9178 26.509 96.2029 25.8879 96.2029 24.6458C96.2029 23.8411 96.1404 23.3137 96.0154 23.0637C95.8904 22.8137 95.656 22.6887 95.3123 22.6887H94.3513V26.509Z" fill="white"/>
<path d="M77.9451 39.4934L79.9373 18.8684H86.9334L88.8904 39.4934H84.9881L84.6951 36.1653H82.2107L81.9529 39.4934H77.9451ZM82.5037 32.8723H84.3787L83.4763 22.384H83.2888L82.5037 32.8723Z" fill="white"/>
<path d="M71.9217 39.6809C70.4295 39.6809 69.2263 39.2161 68.3123 38.2864C67.406 37.3567 66.9529 36.0559 66.9529 34.384V24.8684C66.9529 22.8684 67.3474 21.3372 68.1365 20.2747C68.9334 19.2122 70.2263 18.6809 72.0154 18.6809C72.992 18.6809 73.8592 18.8606 74.617 19.22C75.3826 19.5793 75.9842 20.1184 76.4217 20.8372C76.8592 21.5481 77.0779 22.4465 77.0779 23.5325V27.095H72.9763V24.0481C72.9763 23.4309 72.8982 23.0168 72.742 22.8059C72.5857 22.5872 72.3435 22.4778 72.0154 22.4778C71.6326 22.4778 71.3748 22.6184 71.242 22.8997C71.1092 23.1731 71.0428 23.5403 71.0428 24.0012V34.3254C71.0428 34.8958 71.1248 35.2981 71.2888 35.5325C71.4607 35.7668 71.7029 35.884 72.0154 35.884C72.367 35.884 72.6131 35.7395 72.7537 35.4504C72.9021 35.1614 72.9763 34.7864 72.9763 34.3254V30.6106H77.1248V34.5129C77.1248 36.3254 76.6678 37.6418 75.7537 38.4622C74.8396 39.2747 73.5623 39.6809 71.9217 39.6809Z" fill="white"/>
<path fill-rule="evenodd" clip-rule="evenodd" d="M50.5779 39.4934L54.0689 3.49341H68.1485L71.5779 39.4934H62.1249L61.6569 34.1978H60.6297L60.2179 39.4934H50.5779ZM59.1512 32.6067H63.1199L63.5879 37.9022H69.8217L66.6954 5.08457H55.5195L52.3371 37.9022H58.7394L59.1512 32.6067ZM62.6145 27.367L61.173 10.6785H60.8735L59.6192 27.367H62.6145Z" fill="white"/>
</svg>
