<svg width="75" height="75" viewBox="0 0 75 75" fill="none" xmlns="http://www.w3.org/2000/svg">
<path d="M41.631 74.4054H33.9799C33.7436 74.4054 33.5442 74.2207 33.5294 73.9844L33.4039 72.4039C32.6358 72.3079 31.8973 72.1971 31.1957 72.0642L30.5828 73.5265C30.4941 73.7407 30.243 73.8589 30.0215 73.785L22.7471 71.4217C22.5181 71.3478 22.3926 71.1115 22.4443 70.8825L22.8135 69.339C22.1415 69.0214 21.4694 68.6817 20.8195 68.3272L19.7856 69.531C19.6305 69.7082 19.3646 69.7378 19.1726 69.6048L12.9838 65.1071C12.7918 64.9668 12.7401 64.7083 12.8657 64.5015L13.6928 63.1426C13.1463 62.633 12.6146 62.1012 12.1124 61.5621L10.7535 62.3892C10.5541 62.5148 10.2882 62.4631 10.1479 62.2711L5.65035 56.0821C5.51003 55.89 5.53958 55.6242 5.72421 55.4691L6.928 54.4351C6.56612 53.7852 6.2264 53.1131 5.90884 52.441L4.36533 52.8103C4.14378 52.8694 3.90006 52.7364 3.82621 52.5075L1.46294 45.2328C1.38908 45.0112 1.49987 44.7675 1.72142 44.6715L3.1837 44.0585C3.05077 43.3569 2.93261 42.611 2.84399 41.8503L1.26354 41.7247C1.02722 41.7026 0.849976 41.5106 0.849976 41.2742V33.6229C0.849976 33.3865 1.0346 33.1871 1.26354 33.1724L2.84399 33.0468C2.93999 32.2787 3.05077 31.5402 3.1837 30.8386L1.72142 30.2256C1.49987 30.1369 1.38908 29.8932 1.46294 29.6643L3.82621 22.3896C3.90006 22.168 4.13639 22.0277 4.36533 22.0868L5.90884 22.4561C6.2264 21.784 6.56612 21.1193 6.928 20.462L5.72421 19.428C5.54696 19.2729 5.51742 19.007 5.65035 18.815L10.1479 12.626C10.2882 12.434 10.5467 12.3823 10.7535 12.5078L12.1124 13.335C12.6146 12.7959 13.1463 12.2641 13.6928 11.7545L12.8657 10.3956C12.7401 10.1962 12.7918 9.93032 12.9838 9.78999L19.1726 5.29225C19.3646 5.15193 19.6305 5.18147 19.7856 5.36611L20.8195 6.56992C21.4694 6.21542 22.1341 5.8683 22.8135 5.55812L22.4443 4.01456C22.3926 3.78561 22.5181 3.54926 22.7471 3.47541L30.0215 1.11208C30.2504 1.03822 30.4941 1.14901 30.5828 1.37057L31.1957 2.83288C31.9047 2.69994 32.6432 2.58178 33.4039 2.49315L33.5294 0.912653C33.5516 0.676319 33.7436 0.491699 33.9799 0.491699H41.631C41.8673 0.491699 42.0667 0.676319 42.0815 0.912653L42.207 2.49315C42.9751 2.58916 43.7136 2.69994 44.4152 2.83288L45.0282 1.37057C45.1168 1.15639 45.3605 1.03822 45.5894 1.11208L52.8639 3.47541C53.0928 3.54926 53.2184 3.78561 53.1667 4.01456L52.7974 5.55812C53.4695 5.87569 54.1341 6.21542 54.7914 6.56992L55.8253 5.36611C55.9804 5.18147 56.2463 5.15931 56.4383 5.29225L62.6271 9.78999C62.8191 9.93032 62.8708 10.1888 62.7453 10.3956L61.9181 11.7545C62.4572 12.2641 62.989 12.7959 63.4985 13.335L64.8574 12.5078C65.0642 12.3823 65.3227 12.4414 65.463 12.626L69.9606 18.815C70.1009 19.007 70.0714 19.2729 69.8867 19.428L68.683 20.462C69.0374 21.1119 69.3772 21.7766 69.7021 22.4561L71.2456 22.0868C71.4746 22.0277 71.7109 22.1606 71.7847 22.3896L74.148 29.6643C74.2218 29.8858 74.1111 30.1295 73.8895 30.2256L72.4272 30.8386C72.5602 31.5476 72.6783 32.2861 72.767 33.0468L74.3474 33.1724C74.5837 33.1945 74.7683 33.3865 74.7683 33.6229V41.2742C74.7683 41.5106 74.5837 41.7099 74.3474 41.7247L72.767 41.8503C72.671 42.611 72.5602 43.3495 72.4272 44.0585L73.8895 44.6715C74.1111 44.7601 74.2218 45.0039 74.148 45.2328L71.7847 52.5075C71.7109 52.7364 71.4746 52.8694 71.2456 52.8103L69.7021 52.441C69.3845 53.1205 69.0448 53.7852 68.683 54.4351L69.8867 55.4691C70.064 55.6242 70.0935 55.89 69.9606 56.0821L65.463 62.2711C65.3227 62.4631 65.0568 62.5148 64.8574 62.3892L63.4985 61.5621C62.989 62.1012 62.4572 62.633 61.9181 63.1426L62.7453 64.5015C62.8708 64.7009 62.8191 64.9668 62.6271 65.1071L56.4383 69.6048C56.2463 69.7452 55.9804 69.7156 55.8253 69.531L54.7914 68.3272C54.1415 68.6891 53.4695 69.0288 52.7974 69.339L53.1667 70.8825C53.2184 71.1115 53.0928 71.3478 52.8639 71.4217L45.5894 73.785C45.3605 73.8589 45.1242 73.7481 45.0282 73.5265L44.4152 72.0642C43.7136 72.1971 42.9677 72.3153 42.207 72.4039L42.0815 73.9844C42.0593 74.2207 41.8673 74.4054 41.631 74.4054ZM34.4009 73.497H41.21L41.3356 71.9608C41.3504 71.7466 41.5202 71.5694 41.7344 71.5472C42.7388 71.4364 43.7062 71.2813 44.6072 71.1041C44.8288 71.0598 45.0356 71.1779 45.1168 71.3773L45.7076 72.788L52.1844 70.6831L51.8299 69.1839C51.7782 68.9771 51.889 68.7555 52.081 68.6669C52.9525 68.2681 53.8239 67.8249 54.6659 67.3449C54.8505 67.2415 55.0942 67.2784 55.2345 67.4483L56.2389 68.6152L61.7482 64.6123L60.9433 63.2976C60.8325 63.113 60.862 62.8767 61.0245 62.729C61.7335 62.0791 62.4277 61.3848 63.0776 60.6758C63.2253 60.5133 63.469 60.4838 63.6462 60.5946L64.9608 61.3922L68.9636 55.8827L67.7967 54.8782C67.6342 54.7379 67.5899 54.5016 67.7007 54.3096C68.1734 53.475 68.6165 52.6035 69.0227 51.7172C69.1113 51.5178 69.3328 51.4144 69.5396 51.4661L71.0388 51.8207L73.1436 45.3436L71.733 44.7528C71.5336 44.6715 71.4229 44.4573 71.4598 44.2432C71.6444 43.3348 71.7921 42.3673 71.9029 41.3702C71.925 41.1561 72.1023 40.9862 72.3165 40.9714L73.8526 40.8458V34.0291L72.3165 33.9035C72.1023 33.8887 71.925 33.7189 71.9029 33.5047C71.7921 32.5077 71.637 31.5402 71.4598 30.6318C71.4155 30.4176 71.5336 30.2034 71.733 30.1222L73.1436 29.5313L71.0388 23.0543L69.5396 23.4088C69.3328 23.4605 69.1113 23.3571 69.0227 23.1577C68.6165 22.2714 68.1734 21.3999 67.7007 20.5654C67.5973 20.3734 67.6342 20.137 67.7967 19.9967L68.9636 18.9923L64.9608 13.4827L63.6462 14.2803C63.4616 14.3911 63.2253 14.3616 63.0776 14.1991C62.4277 13.4901 61.7335 12.7959 61.0245 12.146C60.862 11.9982 60.8325 11.7619 60.9433 11.5773L61.7482 10.2627L56.2389 6.25974L55.2345 7.42664C55.0942 7.58912 54.8579 7.63344 54.6659 7.53004C53.8239 7.05737 52.9525 6.60685 52.081 6.20804C51.8816 6.11941 51.7782 5.89784 51.8299 5.69105L52.1844 4.1918L45.7076 2.08696L45.1168 3.49756C45.0356 3.69697 44.8288 3.81516 44.6072 3.77085C43.7062 3.58621 42.7388 3.4385 41.7344 3.32771C41.5202 3.30556 41.3504 3.12831 41.3356 2.91413L41.21 1.37794H34.4009L34.2754 2.91413C34.2606 3.12831 34.0907 3.30556 33.8765 3.32771C32.8722 3.44588 31.9047 3.59359 31.0037 3.77085C30.7895 3.81516 30.5754 3.69697 30.4941 3.49756L29.9033 2.08696L23.4265 4.1918L23.781 5.69105C23.8327 5.89784 23.7219 6.11941 23.5299 6.20804C22.6511 6.60685 21.7796 7.05737 20.9451 7.53004C20.7531 7.63344 20.5167 7.59651 20.3764 7.43403L19.372 6.26711L13.8627 10.27L14.6677 11.5847C14.7784 11.7693 14.7489 12.0056 14.5864 12.1533C13.8701 12.8106 13.1832 13.5049 12.5334 14.2065C12.3856 14.369 12.1419 14.3985 11.9647 14.2877L10.6501 13.4901L6.64735 18.9997L7.8142 20.0041C7.97668 20.1444 8.02099 20.3807 7.91022 20.5728C7.43756 21.4147 6.98706 22.2862 6.58826 23.1577C6.49964 23.3571 6.2781 23.4605 6.07131 23.4088L4.57212 23.0543L2.46733 29.5313L3.87791 30.1222C4.07731 30.2034 4.18808 30.4176 4.15116 30.6318C3.97391 31.5328 3.81882 32.4929 3.70804 33.5047C3.68588 33.7189 3.50864 33.8887 3.29447 33.9035L1.75836 34.0291V40.8458L3.29447 40.9714C3.50864 40.9862 3.68588 41.1561 3.70804 41.3702C3.8262 42.3747 3.97391 43.3421 4.15116 44.2432C4.19547 44.4573 4.07731 44.6715 3.87791 44.7528L2.46733 45.3436L4.57212 51.8207L6.07131 51.4661C6.28548 51.4144 6.49964 51.5252 6.58826 51.7172C6.98706 52.5961 7.43756 53.4676 7.91022 54.3022C8.01361 54.4942 7.97668 54.7305 7.8142 54.8709L6.64735 55.8753L10.6501 61.3848L11.9647 60.5872C12.1493 60.4764 12.3856 60.5059 12.5334 60.6684C13.1832 61.37 13.8701 62.0643 14.5864 62.7216C14.7489 62.8693 14.7784 63.1056 14.6677 63.2903L13.8627 64.6049L19.372 68.6078L20.3764 67.4409C20.5167 67.2784 20.7531 67.2341 20.9451 67.3449C21.787 67.8176 22.6511 68.2607 23.5299 68.6669C23.7293 68.7555 23.8327 68.9771 23.781 69.1839L23.4265 70.6831L29.9033 72.788L30.4941 71.3773C30.5754 71.1779 30.7895 71.0598 31.0037 71.1041C31.9047 71.2887 32.8722 71.4364 33.8765 71.5472C34.0907 71.5694 34.2606 71.7466 34.2754 71.9608L34.4009 73.497ZM37.8202 54.3908C33.3227 54.3908 29.0171 52.633 25.8193 49.4277C22.2153 45.8236 20.4355 40.8237 20.9377 35.713C21.7279 27.7293 28.094 21.363 36.0773 20.5728C41.1805 20.0706 46.1876 21.8431 49.7916 25.4545C53.3956 29.066 55.1754 34.0586 54.6732 39.1694C53.883 47.153 47.517 53.5193 39.5336 54.3096C38.9576 54.3686 38.3889 54.3908 37.8202 54.3908ZM37.7833 21.3925C37.2442 21.3925 36.7051 21.4221 36.1586 21.4738C28.6109 22.2197 22.5846 28.2463 21.8387 35.8016C21.3587 40.6391 23.0425 45.3731 26.4544 48.7852C29.8664 52.1973 34.5929 53.8738 39.4376 53.4011C46.9926 52.6552 53.0116 46.6287 53.7575 39.0733C54.2375 34.2359 52.5537 29.5018 49.1417 26.0897C46.1138 23.0617 42.0372 21.3925 37.7759 21.3925H37.7833Z" fill="#BB3434"/>
<path d="M28.6552 51.7172L28.2933 51.4661C28.0127 51.2815 27.7542 51.0747 27.4884 50.8679L27.06 50.5356L33.7731 41.2964C32.7835 40.2624 32.2149 38.8739 32.2149 37.4338C32.2149 37.1827 32.2296 36.9316 32.2666 36.6805L21.4029 33.1502L21.5211 32.7292C21.6245 32.3747 21.7427 32.0202 21.8682 31.6731L22.0159 31.2595L32.8722 34.7898C33.6771 33.2905 35.132 32.2344 36.8011 31.9316V20.5137L37.4584 20.4915C37.6799 20.4767 37.9088 20.4767 38.1378 20.4915L38.7951 20.5137V31.9316C40.4641 32.2344 41.919 33.2905 42.724 34.7898L53.5876 31.2595L53.7353 31.6731C53.8609 32.0202 53.979 32.3673 54.0824 32.7218L54.208 33.1428L43.3444 36.6731C43.3813 36.9242 43.3961 37.1753 43.3961 37.4264C43.3961 38.8665 42.8348 40.2476 41.8378 41.289L48.5509 50.5282L48.2038 50.8015C47.8862 51.0526 47.6056 51.2667 47.3176 51.4661L46.9557 51.7172L40.2352 42.4633C38.7212 43.1944 36.8971 43.1944 35.3831 42.4633L28.6626 51.7172H28.6552ZM40.4937 41.2816L47.1625 50.4617C47.2068 50.4248 47.2511 50.3953 47.2954 50.3583L40.6266 41.1782L40.9294 40.9049C41.9116 40.0187 42.4803 38.7484 42.4803 37.4338C42.4803 37.1088 42.4434 36.7838 42.3769 36.4589L42.2956 36.0601L53.078 32.5594C53.0633 32.5077 53.0411 32.456 53.0263 32.3969L42.2439 35.8976L42.0815 35.5283C41.402 34.0069 39.9545 32.9508 38.3003 32.7809L37.8941 32.7366V21.3925C37.835 21.3925 37.7833 21.3925 37.7242 21.3925V32.7366L37.318 32.7809C35.6638 32.9508 34.2163 34.0069 33.5368 35.5283L33.367 35.8976L22.5846 32.3969C22.5624 32.4486 22.5477 32.5077 22.5329 32.5594L33.3153 36.0601L33.234 36.4589C33.1676 36.7838 33.1306 37.1088 33.1306 37.4338C33.1306 38.7484 33.6993 40.0187 34.6815 40.9049L34.9843 41.1782L28.3155 50.3583C28.3598 50.3953 28.4041 50.4248 28.4484 50.4617L35.1172 41.2816L35.4717 41.4884C36.8971 42.3082 38.7212 42.3082 40.1392 41.4884L40.4937 41.2816Z" fill="#BB3434"/>
</svg>
