<svg width="57" height="54" viewBox="0 0 57 54" fill="none" xmlns="http://www.w3.org/2000/svg">
<path d="M29.5851 19.8469C30.1537 19.8469 30.619 19.3816 30.619 18.813C30.619 18.2443 30.1537 17.779 29.5851 17.779C29.0164 17.779 28.5511 18.2443 28.5511 18.813C28.5511 19.3816 29.0164 19.8469 29.5851 19.8469Z" fill="#BB3434"/>
<path d="M23.3667 20.8661C23.1599 21.0729 23.1599 21.4052 23.3667 21.612C23.5735 21.8188 23.9059 21.8188 24.1126 21.612C24.3194 21.4052 24.3194 21.0729 24.1126 20.8661C23.9059 20.6593 23.5735 20.6593 23.3667 20.8661Z" fill="#BB3434"/>
<path d="M23.3667 32.5499C23.1599 32.7567 23.1599 33.0891 23.3667 33.2959C23.5735 33.5027 23.9059 33.5027 24.1126 33.2959C24.3194 33.0891 24.3194 32.7567 24.1126 32.5499C23.9059 32.3431 23.5735 32.3431 23.3667 32.5499Z" fill="#BB3434"/>
<path d="M35.0501 32.5499C34.8433 32.7567 34.8433 33.0891 35.0501 33.2959C35.2569 33.5027 35.5892 33.5027 35.796 33.2959C36.0028 33.0891 36.0028 32.7567 35.796 32.5499C35.5892 32.3431 35.2569 32.3431 35.0501 32.5499Z" fill="#BB3434"/>
<path d="M35.0501 20.8661C34.8433 21.0729 34.8433 21.4052 35.0501 21.612C35.2569 21.8188 35.5892 21.8188 35.796 21.612C36.0028 21.4052 36.0028 21.0729 35.796 20.8661C35.5892 20.6593 35.2569 20.6593 35.0501 20.8661Z" fill="#BB3434"/>
<path d="M21.321 26.0507C20.7524 26.0507 20.2871 26.516 20.2871 27.0847C20.2871 27.6534 20.7524 28.1187 21.321 28.1187C21.8897 28.1187 22.355 27.6534 22.355 27.0847C22.355 26.516 21.8897 26.0507 21.321 26.0507Z" fill="#BB3434"/>
<path d="M29.5851 34.3151C29.0164 34.3151 28.5511 34.7803 28.5511 35.349C28.5511 35.9177 29.0164 36.383 29.5851 36.383C30.1537 36.383 30.619 35.9177 30.619 35.349C30.619 34.7803 30.1537 34.3151 29.5851 34.3151Z" fill="#BB3434"/>
<path d="M37.8417 26.0507C37.273 26.0507 36.8078 26.516 36.8078 27.0847C36.8078 27.6534 37.273 28.1187 37.8417 28.1187C38.4104 28.1187 38.8756 27.6534 38.8756 27.0847C38.8756 26.516 38.4104 26.0507 37.8417 26.0507Z" fill="#BB3434"/>
<path d="M29.5777 0.445312C21.6164 0.445312 14.2903 3.92386 9.21672 9.97993L6.43249 8.90166C4.97761 8.34037 3.34549 8.53239 2.05308 9.41126C0.760674 10.2901 0 11.7525 0 13.3108V39.603C0 41.1614 0.768059 42.6237 2.05308 43.5026C2.85068 44.0491 3.7812 44.3297 4.71912 44.3297C5.29517 44.3297 5.87121 44.2263 6.4251 44.0121L8.44866 43.2293C13.478 49.8097 21.2324 53.724 29.5777 53.724C44.2668 53.724 56.2161 41.7743 56.2161 27.0847C56.2161 12.395 44.2668 0.445312 29.5777 0.445312ZM54.2073 25.4599C51.1572 24.1453 47.7157 24.1748 44.673 25.5337C43.9197 18.0892 37.7531 12.2325 30.1759 11.9297C28.529 8.94598 28.5216 5.38619 30.1463 2.39507C42.967 2.69049 53.3801 12.779 54.2073 25.4599ZM29.5777 40.3268C24.7551 40.3268 20.3093 37.705 17.9755 33.4805C17.8278 33.2146 17.7023 32.9413 17.5694 32.6681V21.4865C17.6211 21.3683 17.6728 21.2575 17.7318 21.1394L17.9312 20.7553C20.2576 16.4865 24.7182 13.8351 29.5703 13.8351C36.8743 13.8351 42.8193 19.7804 42.8193 27.0847C42.8193 34.3889 36.8743 40.3342 29.5703 40.3342L29.5777 40.3268ZM27.9603 2.46154C26.6458 5.51912 26.6827 8.96813 28.049 12.0109C23.8911 12.4319 20.1172 14.5368 17.5767 17.8307V17.3432C17.5767 14.8322 16.0628 12.6239 13.7217 11.7155L11.1147 10.7111C15.4498 5.80715 21.4244 2.88251 27.9529 2.46892L27.9603 2.46154ZM5.73828 42.2101C4.85945 42.5424 3.91416 42.439 3.1461 41.9073C2.37065 41.3755 1.92752 40.5336 1.92752 39.5956V13.3034C1.92752 12.3654 2.37065 11.5235 3.1461 10.9917C3.62613 10.6668 4.16524 10.4969 4.71912 10.4969C5.05884 10.4969 5.40595 10.5634 5.73828 10.6889L13.0275 13.5028C14.6227 14.1232 15.6492 15.6224 15.6492 17.3359V21.0507C15.6492 21.0507 15.6492 21.0581 15.6418 21.0655H15.6492V35.5484C15.6492 37.2544 14.6153 38.7611 13.0275 39.3815L9.11332 40.8955C9.08378 40.8512 9.04685 40.8069 9.01731 40.7625L8.41172 41.1687L5.74568 42.1953L5.73828 42.2101ZM10.3245 42.4981L13.7217 41.1835C15.8338 40.3637 17.2666 38.4804 17.5251 36.2722C20.2502 39.8394 24.445 42.0328 28.9795 42.2101C30.6264 45.1938 30.6412 48.7536 29.0164 51.7521C21.6829 51.5822 14.8812 48.1849 10.3245 42.4981ZM31.2024 51.7078C32.517 48.6576 32.4874 45.216 31.1286 42.1732C38.5728 41.4198 44.4293 35.2456 44.7247 27.6755C47.7083 26.0285 51.2754 26.0212 54.259 27.646C53.9636 40.4597 43.8754 50.8732 31.195 51.7078H31.2024Z" fill="#BB3434"/>
<path d="M29.5777 22.4244C27.0076 22.4244 24.9176 24.5145 24.9176 27.0847C24.9176 29.6548 27.0076 31.7449 29.5777 31.7449C32.1477 31.7449 34.2377 29.6548 34.2377 27.0847C34.2377 24.5145 32.1477 22.4244 29.5777 22.4244ZM29.5777 29.8099C28.0711 29.8099 26.8452 28.5839 26.8452 27.0773C26.8452 25.5706 28.0711 24.3447 29.5777 24.3447C31.0842 24.3447 32.3102 25.5706 32.3102 27.0773C32.3102 28.5839 31.0842 29.8099 29.5777 29.8099Z" fill="#BB3434"/>
</svg>
