<svg width="69" height="78" viewBox="0 0 69 78" fill="none" xmlns="http://www.w3.org/2000/svg">
<path d="M0.797653 17.2007V77.1559H68.4017V17.2007H0.797653ZM16.4764 66.159C16.0481 65.3096 15.5976 64.4382 15.1028 63.6184C14.8886 63.2713 14.992 62.7986 15.3317 62.5327C18.3523 60.1915 21.5353 57.7026 24.5411 55.066C25.5602 56.5726 26.8969 57.8208 28.47 58.7366C25.8187 61.9714 22.6431 65.5681 18.8618 68.5075C18.6698 68.6626 18.4114 68.7217 18.175 68.67C17.9313 68.6257 17.7171 68.4706 17.599 68.2638C17.2075 67.5844 16.8457 66.8754 16.4838 66.1664L16.4764 66.159ZM18.3449 70.2136C18.8692 70.2136 19.3862 70.0437 19.8072 69.7114C23.9872 66.4618 27.4286 62.4589 30.2498 58.9803L30.8554 58.227L29.9839 57.806C28.0416 56.8681 26.4464 55.3836 25.3756 53.5151L24.9103 52.6953L24.2013 53.323C21.0331 56.1517 17.6211 58.8252 14.3938 61.3215C13.4337 62.0674 13.1753 63.3968 13.7882 64.4086C14.2609 65.1767 14.6892 66.026 15.1102 66.8532C15.3169 67.252 15.5311 67.6361 15.7379 68.0349C11.425 63.9212 8.47089 58.4264 7.56251 52.2669C7.93916 52.651 8.42655 52.9021 8.96567 52.9685C10.9744 53.2196 12.9832 53.3156 14.9403 53.3156C18.1307 53.3156 21.1882 53.0572 23.9429 52.7617L24.9029 52.6583L24.5854 51.7499C24.1866 50.6052 23.9872 49.4309 23.9872 48.2566C23.9872 47.3334 24.1201 46.3955 24.3712 45.4575L24.6223 44.5491L23.677 44.4974C19.4084 44.2537 15.1102 43.7293 11.0779 43.2197C9.88147 43.0572 8.75151 43.8253 8.47088 44.9775C8.2567 45.8563 7.96129 46.7574 7.68065 47.6362C7.54034 48.072 7.4148 48.5077 7.28187 48.9508C7.28187 48.7219 7.24495 48.5003 7.24495 48.2714C7.24495 42.1784 9.2685 36.558 12.6509 32.0086C12.6509 32.5403 12.8208 33.0573 13.1457 33.4783C16.4026 37.6585 20.398 41.1001 23.8838 43.914L24.6371 44.5196L25.058 43.6481C25.9959 41.7057 27.4804 40.1178 29.3562 39.0469L30.176 38.5817L29.5482 37.8727C26.7049 34.6821 24.0389 31.2774 21.5501 28.0648C20.8042 27.1046 19.4822 26.8462 18.4631 27.4592C17.6876 27.9318 16.8383 28.3676 16.0112 28.7885C15.6124 28.9879 15.2283 29.2021 14.8443 29.4089C18.9578 25.1032 24.4524 22.1416 30.6117 21.2332C30.2276 21.6099 29.9766 22.0973 29.9101 22.6364C29.2528 27.917 29.6442 33.1681 30.1169 37.6068L30.2203 38.5669L31.1286 38.2493C33.1669 37.5403 35.2791 37.4517 37.4282 38.0351L38.3366 38.2862L38.3883 37.3409C38.632 33.109 39.1489 28.7959 39.6659 24.7413C39.821 23.5375 39.0677 22.4149 37.9082 22.1342C37.0294 21.9201 36.121 21.6246 35.2496 21.344C34.8139 21.2037 34.3781 21.0781 33.9424 20.9452C34.1713 20.9452 34.3929 20.9082 34.6219 20.9082C40.7146 20.9082 46.3347 22.9392 50.884 26.3144C50.3523 26.3144 49.8353 26.4769 49.4144 26.8092C45.2343 30.0662 41.7928 34.0618 38.9717 37.5403L38.3661 38.2936L39.2376 38.7146C41.1799 39.6599 42.7751 41.137 43.8386 43.0129L44.3038 43.8327L45.0128 43.205C48.2106 40.3542 51.6152 37.688 54.8203 35.2065C55.7804 34.4606 56.0389 33.1312 55.4259 32.1194C54.9533 31.3439 54.5176 30.4946 54.0966 29.6674C53.8972 29.276 53.683 28.8919 53.4762 28.5005C57.7818 32.6142 60.7359 38.1016 61.6516 44.2611C61.275 43.877 60.7875 43.6259 60.2484 43.5595C54.968 42.9022 49.7172 43.2936 45.2787 43.7663L44.3186 43.8696L44.6362 44.7781C45.035 45.9228 45.2418 47.0971 45.2418 48.2714C45.2418 49.1872 45.1088 50.1325 44.8577 51.0705L44.6066 51.9789L45.5519 52.0306C49.8206 52.2743 54.1187 52.7987 58.1511 53.3083C58.2544 53.323 58.3578 53.3304 58.4612 53.3304C59.5468 53.3304 60.5069 52.6066 60.758 51.5505C60.9722 50.6717 61.2676 49.7559 61.5556 48.877C61.6959 48.4486 61.8215 48.0129 61.9471 47.5845C61.9471 47.8135 61.984 48.035 61.984 48.264C61.984 54.357 59.9604 59.9773 56.578 64.5268C56.578 63.995 56.4082 63.478 56.0832 63.0571C52.8263 58.8769 48.8309 55.4353 45.3525 52.614L44.5992 52.0084L44.1783 52.8799C43.233 54.8223 41.7559 56.4175 39.8801 57.481L39.0603 57.9537L39.6881 58.6627C42.524 61.8459 45.1974 65.2579 47.6863 68.4706C48.1589 69.0836 48.8679 69.4086 49.5769 69.4086C49.9904 69.4086 50.404 69.2978 50.7733 69.0762C51.5487 68.6036 52.398 68.1752 53.2178 67.7542C53.6166 67.5548 54.0006 67.3333 54.392 67.1265C50.2784 71.4396 44.7912 74.3938 38.6246 75.3022C39.0086 74.9255 39.2598 74.4381 39.3262 73.8989C39.9835 68.6183 39.5921 63.3673 39.1194 58.9286L39.016 57.9685L38.1076 58.2861C36.0619 58.9951 33.9424 59.0837 31.8081 58.5002L30.8997 58.2491L30.848 59.1945C30.6043 63.4633 30.0799 67.7616 29.5704 71.7867C29.4153 72.9905 30.1686 74.1131 31.328 74.3938C32.2069 74.6079 33.1152 74.9034 33.9867 75.1914C34.4224 75.3317 34.8582 75.4573 35.2865 75.5902C35.0576 75.5902 34.836 75.6271 34.6071 75.6271C28.5143 75.6271 22.9015 73.6035 18.3523 70.221L18.3449 70.2136ZM22.8572 51.3437C18.7067 51.7573 13.9211 52.0454 9.15769 51.4545C8.91398 51.425 8.69242 51.2846 8.5521 51.0779C8.41178 50.8637 8.36749 50.62 8.43396 50.3762C8.63336 49.6155 8.88446 48.8548 9.12817 48.1015C9.42358 47.2005 9.72637 46.2699 9.95531 45.332C10.0439 44.9701 10.3836 44.719 10.7677 44.719C10.8046 44.719 10.8489 44.719 10.8858 44.7264C14.6597 45.2064 18.6624 45.6939 22.68 45.9597C22.5323 46.7278 22.451 47.4959 22.451 48.2566C22.451 49.2906 22.584 50.3245 22.8572 51.3363V51.3437ZM14.6006 31.2553C15.28 30.8638 15.989 30.502 16.6906 30.1401C17.5399 29.7043 18.4187 29.2612 19.2385 28.759C19.364 28.6851 19.5043 28.6482 19.6373 28.6482C19.8884 28.6482 20.1469 28.7664 20.3167 28.9879C22.6505 32.0012 25.1319 35.177 27.7832 38.1976C26.2766 39.2168 25.0285 40.5536 24.1127 42.1267C20.878 39.4753 17.2814 36.2995 14.3421 32.5256C14.1944 32.3336 14.1353 32.0824 14.1796 31.8313C14.2239 31.5876 14.379 31.3734 14.5858 31.2479L14.6006 31.2553ZM32.4801 22.0899C33.2408 22.2893 33.9941 22.5404 34.7548 22.7842C35.6558 23.0796 36.5937 23.3824 37.5242 23.6113C37.923 23.7073 38.1815 24.1062 38.1298 24.5419C37.6498 28.3306 37.1623 32.3483 36.8965 36.3365C35.0723 35.982 33.2777 36.0484 31.5201 36.5137C31.1065 32.3631 30.8111 27.5847 31.4093 22.8137C31.4388 22.57 31.5791 22.3484 31.7859 22.2081C31.9336 22.1121 32.0961 22.0604 32.266 22.0604C32.3398 22.0604 32.4137 22.0678 32.4875 22.0899H32.4801ZM52.7156 30.3469C53.1513 31.1962 53.5944 32.0751 54.0966 32.8948C54.3108 33.2494 54.2074 33.7146 53.8677 33.9805C50.8619 36.3069 47.6862 38.7885 44.6583 41.4472C43.6391 39.9406 42.3024 38.6924 40.7294 37.7766C43.3807 34.5418 46.5563 30.9451 50.3375 28.0057C50.5295 27.858 50.788 27.7915 51.0243 27.8432C51.268 27.8875 51.4822 28.0426 51.6078 28.2494C51.9992 28.9289 52.3611 29.6305 52.7156 30.3395V30.3469ZM46.3421 45.1769C50.4926 44.7633 55.2708 44.4753 60.0417 45.0661C60.2854 45.0956 60.5069 45.236 60.6473 45.4428C60.7876 45.6495 60.8319 45.908 60.7654 46.1444C60.566 46.8977 60.3149 47.651 60.0712 48.4043C59.7758 49.3127 59.473 50.2507 59.244 51.1886C59.148 51.5875 58.7492 51.8459 58.3135 51.7942C54.5397 51.3142 50.5369 50.8268 46.5194 50.5609C46.6671 49.7928 46.7483 49.0247 46.7483 48.2714C46.7483 47.2374 46.6154 46.2035 46.3421 45.1916V45.1769ZM54.6062 65.2653C53.9267 65.6568 53.2177 66.0186 52.5088 66.3805C51.6595 66.8089 50.788 67.2594 49.9609 67.7542C49.6138 67.9684 49.1485 67.8724 48.8753 67.5253C46.5415 64.512 44.0527 61.3363 41.4088 58.3156C42.9154 57.2964 44.1635 55.9596 45.0793 54.3865C48.314 57.0379 51.9105 60.2137 54.8499 63.9876C54.9976 64.1797 55.0567 64.4381 55.0124 64.6819C54.968 64.933 54.8203 65.1398 54.6062 65.2579V65.2653ZM36.7192 74.4233C35.9585 74.2239 35.2052 73.9728 34.4446 73.7291C33.5436 73.4336 32.6057 73.1308 31.6751 72.9019C31.2763 72.8059 31.0179 72.4071 31.0696 71.9713C31.5496 68.1974 32.037 64.1944 32.3029 60.1767C34.1123 60.5312 35.9216 60.4648 37.6793 59.9995C38.0929 64.1501 38.3883 68.9359 37.7901 73.6995C37.7605 73.9432 37.6202 74.1648 37.4134 74.3051C37.2066 74.4455 36.9482 74.4898 36.7118 74.4233H36.7192ZM66.873 75.6197H43.809C55.2339 71.7645 63.4905 60.967 63.4905 48.2566C63.4905 32.3262 50.5295 19.3647 34.5997 19.3647C18.6698 19.3647 5.70882 32.3262 5.70882 48.2566C5.70882 60.967 13.9655 71.7645 25.3904 75.6197H2.32639V18.7295H66.8656V75.6197H66.873Z" fill="#BB3434"/>
<path d="M44.3925 48.2566C44.3925 42.8578 39.9983 38.4635 34.5997 38.4635C29.2011 38.4635 24.8069 42.8578 24.8069 48.2566C24.8069 53.6554 29.2011 58.0497 34.5997 58.0497C39.9983 58.0497 44.3925 53.6554 44.3925 48.2566ZM26.343 48.2566C26.343 43.6998 30.0504 39.9997 34.5997 39.9997C39.149 39.9997 42.8563 43.7072 42.8563 48.2566C42.8563 52.8061 39.149 56.5136 34.5997 56.5136C30.0504 56.5136 26.343 52.8061 26.343 48.2566Z" fill="#BB3434"/>
<path d="M67.3308 13.0206C67.3308 10.6425 65.3959 8.70008 63.0105 8.70008H40.6112L40.434 7.81383C40.242 6.85372 39.4 6.15948 38.4252 6.15948H30.7815C29.8067 6.15948 28.9574 6.85372 28.7728 7.81383L28.5955 8.70008H6.19622C3.8108 8.70008 1.8759 10.6351 1.8759 13.0206V15.8418H67.3382V13.0206H67.3308ZM65.8021 14.313H3.40464V13.0206C3.40464 11.4844 4.65271 10.2363 6.19622 10.2363H30.043V9.46817C30.043 9.40909 30.043 9.34262 30.0208 9.37216L30.272 8.11663C30.3163 7.87291 30.5378 7.69566 30.7815 7.69566H38.4252C38.6763 7.69566 38.8905 7.87291 38.9348 8.11663L39.1711 9.29092L39.1563 10.2289H63.0031C64.5393 10.2289 65.7873 11.477 65.7873 13.0132V14.3056L65.8021 14.313Z" fill="#BB3434"/>
<path d="M28.6398 5.67203H40.5669C41.9553 5.67203 43.0852 4.54206 43.0852 3.15359V2.51844C43.0852 1.12998 41.9553 0 40.5669 0H28.6398C27.2514 0 26.1215 1.12998 26.1215 2.51844V3.15359C26.1215 4.54206 27.2514 5.67203 28.6398 5.67203ZM27.6502 2.51106C27.6502 1.96453 28.0933 1.5214 28.6398 1.5214H40.5669C41.1134 1.5214 41.5565 1.96453 41.5565 2.51106V3.14621C41.5565 3.69273 41.1134 4.13586 40.5669 4.13586H28.6398C28.0933 4.13586 27.6502 3.69273 27.6502 3.14621V2.51106Z" fill="#BB3434"/>
</svg>
