<svg width="25" height="88" viewBox="0 0 25 88" fill="none" xmlns="http://www.w3.org/2000/svg">
<path d="M17.1418 76.7137H8.33127C4.26203 76.7137 0.95343 73.405 0.95343 69.3356V59.3578H24.5196V69.3356C24.5196 73.405 21.211 76.7137 17.1418 76.7137ZM2.06121 60.4657V69.3356C2.06121 72.792 4.87497 75.6132 8.33862 75.6132H17.1491C20.6054 75.6132 23.4266 72.7994 23.4266 69.3356V60.4657H2.0686H2.06121Z" fill="#BB3434"/>
<path d="M14.2246 88.006H11.2558C9.94861 88.006 8.88517 86.9425 8.88517 85.6353V83.9071C8.88517 83.2055 8.31649 82.6368 7.61489 82.6368C6.30772 82.6368 5.24423 81.5733 5.24423 80.2661V77.1642H20.2362V80.2661C20.2362 81.5733 19.1727 82.6368 17.8655 82.6368C17.1639 82.6368 16.5953 83.2055 16.5953 83.9071V85.6353C16.5953 86.9425 15.5318 88.006 14.2246 88.006ZM6.34466 78.2646V80.2661C6.34466 80.9677 6.9133 81.5364 7.61489 81.5364C8.92207 81.5364 9.98556 82.5999 9.98556 83.9071V85.6353C9.98556 86.3369 10.5542 86.9056 11.2558 86.9056H14.2246C14.9262 86.9056 15.4949 86.3369 15.4949 85.6353V83.9071C15.4949 82.5999 16.5584 81.5364 17.8655 81.5364C18.5671 81.5364 19.1358 80.9677 19.1358 80.2661V78.2646H6.34466Z" fill="#BB3434"/>
<path d="M24.5196 58.2944H0.95343V56.5735C0.95343 55.2589 1.95784 54.1659 3.24287 54.0403V53.9222H2.55605V52.2013C2.55605 50.9975 3.39055 49.9931 4.5131 49.7198H3.72288V47.999C3.72288 46.5958 4.86759 45.451 6.27078 45.451H7.37116V44.0035H18.0945V45.451H19.1949C20.598 45.451 21.7428 46.5958 21.7428 47.999V49.7198H20.9525C22.0751 49.9857 22.9096 50.9975 22.9096 52.2013V53.9222H22.2228V54.0403C23.5078 54.1659 24.5122 55.2589 24.5122 56.5735V58.2944H24.5196ZM2.06121 57.1939H23.4192V56.5735C23.4192 55.7759 22.7693 55.126 21.9717 55.126H21.1298V52.8217H21.8166V52.2013C21.8166 51.4037 21.1667 50.7538 20.3691 50.7538H19.8152V48.6194H20.6424V47.999C20.6424 47.2014 19.9925 46.5515 19.1949 46.5515H16.9941V45.1039H8.47155V46.5515H6.27078C5.47317 46.5515 4.82331 47.2014 4.82331 47.999V48.6194H5.65044V50.7538H5.09656C4.29895 50.7538 3.64904 51.4037 3.64904 52.2013V52.8217H4.33586V55.126H3.49394C2.69634 55.126 2.04647 55.7759 2.04647 56.5735V57.1939H2.06121Z" fill="#BB3434"/>
<path d="M16.5953 43.1394H8.88516V10.1485C8.88516 9.4026 9.49071 8.80439 10.2292 8.80439C10.3622 8.80439 10.473 8.6936 10.473 8.56066V1.50015C10.473 0.754222 11.0785 0.156006 11.8171 0.156006H13.6486C14.3945 0.156006 14.9927 0.761608 14.9927 1.50015V8.56066C14.9927 8.6936 15.1035 8.80439 15.2364 8.80439C15.9823 8.80439 16.5805 9.40999 16.5805 10.1485V43.1394H16.5953ZM9.98555 42.039H15.4949V10.1559C15.4949 10.023 15.3841 9.91221 15.2512 9.91221C14.5053 9.91221 13.9071 9.30659 13.9071 8.56805V1.50755C13.9071 1.37461 13.7963 1.26383 13.6634 1.26383H11.8318C11.6989 1.26383 11.5881 1.37461 11.5881 1.50755V8.56805C11.5881 9.31398 10.9825 9.91221 10.244 9.91221C10.1111 9.91221 10.0003 10.023 10.0003 10.1559V42.039H9.98555Z" fill="#BB3434"/>
</svg>
