<svg width="67" height="67" viewBox="0 0 67 67" fill="none" xmlns="http://www.w3.org/2000/svg">
<path d="M22.06 30.3196C21.8458 30.9917 22.2224 31.7155 22.8945 31.9223C23.5665 32.1364 24.2903 31.7598 24.4971 31.0877C24.7112 30.4156 24.3346 29.6918 23.6625 29.485C22.9905 29.2709 22.2668 29.6475 22.06 30.3196Z" fill="#BB3434"/>
<path d="M23.3967 38.8203C23.5666 39.1379 23.958 39.2634 24.2829 39.1009C24.6005 38.9311 24.726 38.5396 24.5635 38.2147C24.3937 37.8971 24.0023 37.7716 23.6774 37.934C23.3598 38.1039 23.2342 38.4953 23.3967 38.8203Z" fill="#BB3434"/>
<path d="M37.2218 43.1556C37.3916 43.4731 37.783 43.5987 38.108 43.4362C38.4256 43.2663 38.5511 42.8749 38.3886 42.55C38.2188 42.2324 37.8273 42.1068 37.5024 42.2693C37.1848 42.4392 37.0593 42.8306 37.2218 43.1556Z" fill="#BB3434"/>
<path d="M41.5643 29.3299C41.7341 29.6475 42.1255 29.7731 42.4505 29.6106C42.768 29.4407 42.8936 29.0493 42.7311 28.7243C42.5613 28.4068 42.1698 28.2812 41.8449 28.4437C41.5273 28.6135 41.4018 29.005 41.5643 29.3299Z" fill="#BB3434"/>
<path d="M27.7392 24.9947C27.909 25.3122 28.3004 25.4378 28.6253 25.2753C28.9429 25.1055 29.0685 24.714 28.906 24.3891C28.7361 24.0715 28.3447 23.9459 28.0198 24.1084C27.7022 24.2783 27.5767 24.6697 27.7392 24.9947Z" fill="#BB3434"/>
<path d="M28.7731 43.1629C28.5589 43.835 28.9355 44.5588 29.6076 44.7656C30.2797 44.9797 31.0034 44.6031 31.2102 43.931C31.4243 43.2589 31.0477 42.5352 30.3756 42.3284C29.7036 42.1216 28.9799 42.4908 28.7731 43.1629Z" fill="#BB3434"/>
<path d="M41.6159 36.4569C41.4018 37.129 41.7784 37.8528 42.4505 38.0596C43.1225 38.2738 43.8463 37.8971 44.053 37.225C44.2672 36.5529 43.8906 35.8292 43.2185 35.6224C42.5465 35.4082 41.8227 35.7849 41.6159 36.4569Z" fill="#BB3434"/>
<path d="M34.9102 23.6136C34.696 24.2857 35.0726 25.0095 35.7447 25.2163C36.4167 25.4304 37.1405 25.0538 37.3473 24.3817C37.5614 23.7096 37.1848 22.9858 36.5127 22.7791C35.8407 22.5649 35.1169 22.9415 34.9102 23.6136Z" fill="#BB3434"/>
<path d="M51.0099 39.4111C47.9007 49.3076 37.3251 54.832 27.4216 51.7301C17.5254 48.6208 11.9939 38.0448 15.1031 28.1409C18.2123 18.2444 28.7879 12.7127 38.6914 15.822C48.5876 18.9312 54.1117 29.5072 51.0026 39.4111H51.0099ZM17.3852 28.8499C14.6748 37.4909 19.4973 46.7301 28.138 49.4406C36.7787 52.151 46.0175 47.3283 48.7279 38.6873C51.4383 30.0463 46.6157 20.8071 37.9751 18.0967C29.3344 15.3862 20.0955 20.2089 17.3852 28.8499Z" fill="#BB3434"/>
<path d="M64.5691 43.6652C59.1115 61.0431 40.5451 70.7402 23.1678 65.2824C5.7904 59.8245 -3.90636 41.2575 1.55129 23.8795C7.00894 6.50152 25.5827 -3.1956 42.9527 2.25487C60.33 7.71273 70.0268 26.2872 64.5691 43.6652ZM3.82594 24.5959C-1.23291 40.7184 7.76223 57.9486 23.8841 63.0077C40.006 68.0667 57.2356 59.0712 62.2945 42.9488C67.3533 26.8263 58.3582 9.59603 42.2437 4.53699C26.1218 -0.522051 8.89214 8.47343 3.83329 24.5959H3.82594Z" fill="#BB3434"/>
<path d="M38.5733 35.5042C37.6206 38.5397 34.3711 40.2383 31.3358 39.2856C28.2931 38.3329 26.6019 35.0833 27.5546 32.0405C28.5073 28.9977 31.7567 27.3064 34.7994 28.2591C37.8348 29.2118 39.5333 32.4614 38.5807 35.5042H38.5733ZM29.8292 32.7569C29.2679 34.5368 30.2649 36.4422 32.0521 37.0035C33.832 37.5648 35.7373 36.5678 36.2986 34.7879C36.8599 33.008 35.8629 31.1025 34.0831 30.5412C32.3032 29.9799 30.3905 30.977 29.8366 32.7569H29.8292Z" fill="#BB3434"/>
<path d="M16.5211 29.655C11.1077 31.0139 5.46542 29.2414 1.80237 25.0317L3.60436 23.4586C6.67659 26.9888 11.4031 28.4659 15.9376 27.3285L16.5211 29.6476V29.655Z" fill="#BB3434"/>
<path d="M28.714 58.3253C27.9164 60.8659 26.4246 63.1923 24.3199 65.0313L22.7542 63.2292C26.2769 60.1569 27.7614 55.4302 26.624 50.8955L28.943 50.3121C29.6224 53.0225 29.519 55.7847 28.7214 58.3253H28.714Z" fill="#BB3434"/>
<path d="M64.318 42.513L62.516 44.0861C59.4438 40.5559 54.7173 39.0788 50.1827 40.2161L49.5993 37.8971C55.0127 36.5382 60.655 38.3107 64.318 42.5204V42.513Z" fill="#BB3434"/>
<path d="M39.4964 16.6491L37.1774 17.2326C35.8186 11.8191 37.591 6.17656 41.8006 2.51337L43.3662 4.31542C39.8509 7.38777 38.3517 12.1071 39.4964 16.6491Z" fill="#BB3434"/>
</svg>
