<svg width="70" height="69" viewBox="0 0 70 69" fill="none" xmlns="http://www.w3.org/2000/svg">
<path d="M34.6415 68.8132C15.6911 68.8132 0.270813 53.3924 0.270813 34.4413C0.270813 15.4902 15.6911 0.0693359 34.6415 0.0693359C53.5919 0.0693359 69.0122 15.4902 69.0122 34.4413C69.0122 53.3924 53.5919 68.8132 34.6415 68.8132ZM34.6415 1.14024C16.2819 1.14024 1.34907 16.0736 1.34907 34.4339C1.34907 52.7941 16.2819 67.7276 34.6415 67.7276C53.001 67.7276 67.9339 52.7941 67.9339 34.4339C67.9339 16.0736 53.001 1.14024 34.6415 1.14024Z" fill="#BB3434"/>
<path d="M34.6415 59.5519C20.7942 59.5519 9.53183 48.289 9.53183 34.4413C9.53183 20.5935 20.7942 9.33072 34.6415 9.33072C48.4887 9.33072 59.7511 20.5935 59.7511 34.4413C59.7511 48.289 48.4887 59.5519 34.6415 59.5519ZM34.6415 10.4016C21.3924 10.4016 10.6101 21.1844 10.6101 34.4339C10.6101 47.6834 21.3924 58.4736 34.6415 58.4736C47.8905 58.4736 58.6803 47.6908 58.6803 34.4339C58.6803 21.177 47.8979 10.4016 34.6415 10.4016Z" fill="#BB3434"/>
<path d="M34.6415 38.5919C32.3521 38.5919 30.4836 36.7234 30.4836 34.4339C30.4836 32.1444 32.3521 30.2759 34.6415 30.2759C36.9309 30.2759 38.7993 32.1444 38.7993 34.4339C38.7993 36.7234 36.9309 38.5919 34.6415 38.5919ZM34.6415 31.3542C32.9429 31.3542 31.5619 32.7352 31.5619 34.4339C31.5619 36.1326 32.9429 37.5136 34.6415 37.5136C36.3401 37.5136 37.7211 36.1326 37.7211 34.4339C37.7211 32.7352 36.3401 31.3542 34.6415 31.3542Z" fill="#BB3434"/>
<path d="M34.6415 31.3541C34.3461 31.3541 34.1024 31.1104 34.1024 30.815V9.86245C34.1024 9.56703 34.3461 9.3233 34.6415 9.3233C34.9369 9.3233 35.1806 9.56703 35.1806 9.86245V30.815C35.1806 31.1104 34.9369 31.3541 34.6415 31.3541Z" fill="#BB3434"/>
<path d="M31.1926 33.8578C31.1409 33.8578 31.0818 33.8504 31.0228 33.8283L11.0975 27.3512C10.8168 27.2626 10.6618 26.9524 10.7504 26.6718C10.839 26.3911 11.1418 26.236 11.4298 26.3246L31.3551 32.8017C31.6357 32.8903 31.7908 33.2005 31.7022 33.4812C31.6283 33.7101 31.4142 33.8504 31.1926 33.8504V33.8578Z" fill="#BB3434"/>
<path d="M20.1961 54.8547C20.0853 54.8547 19.9745 54.8177 19.8785 54.7513C19.6348 54.574 19.5831 54.2417 19.7604 53.9979L32.0788 37.0483C32.2561 36.8046 32.5884 36.7529 32.8321 36.9301C33.0759 37.1074 33.1275 37.4397 32.9503 37.6835L20.6318 54.6331C20.5284 54.7808 20.3659 54.8547 20.1961 54.8547Z" fill="#BB3434"/>
<path d="M49.0796 54.8547C48.9097 54.8547 48.7472 54.7808 48.6438 54.6331L36.3253 37.6835C36.1481 37.4397 36.2071 37.1074 36.4435 36.9301C36.6872 36.7529 37.0195 36.812 37.1968 37.0483L49.5153 53.9979C49.6925 54.2417 49.6334 54.574 49.3971 54.7513C49.3011 54.8177 49.1903 54.8547 49.0796 54.8547Z" fill="#BB3434"/>
<path d="M38.083 33.8578C37.854 33.8578 37.6472 33.7101 37.5734 33.4885C37.4848 33.2079 37.6398 32.9051 37.9205 32.8091L57.8458 26.332C58.1264 26.2434 58.4292 26.3985 58.5252 26.6791C58.6138 26.9598 58.4587 27.2626 58.178 27.3586L38.2528 33.8357C38.2011 33.8504 38.1421 33.8652 38.083 33.8652V33.8578Z" fill="#BB3434"/>
<path d="M34.6415 40.0247C31.5618 40.0247 29.0509 37.521 29.0509 34.4339C29.0509 31.3468 31.5545 28.8431 34.6415 28.8431C37.7285 28.8431 40.2321 31.3468 40.2321 34.4339C40.2321 37.521 37.7285 40.0247 34.6415 40.0247ZM34.6415 29.7589C32.064 29.7589 29.9667 31.8564 29.9667 34.4413C29.9667 37.0262 32.064 39.1163 34.6415 39.1163C37.2189 39.1163 39.3237 37.0188 39.3237 34.4413C39.3237 31.8637 37.2263 29.7589 34.6415 29.7589Z" fill="#BB3434"/>
</svg>
