<svg width="63" height="61" viewBox="0 0 63 61" fill="none" xmlns="http://www.w3.org/2000/svg">
<path d="M7.9556 60.1972L1.06525 53.3066C0.888001 53.1293 0.888001 52.8413 1.06525 52.664L4.69135 49.0378L2.61612 46.9625C2.43887 46.7852 2.43887 46.4972 2.61612 46.3199L4.15964 44.7764C4.33689 44.5991 4.6249 44.5991 4.80215 44.7764L5.14184 45.1161L5.89514 44.3628L5.55541 44.023C5.37816 43.8458 5.37816 43.5578 5.55541 43.3805L7.09893 41.837C7.27618 41.6597 7.5642 41.6597 7.74144 41.837L8.08118 42.1767L8.83443 41.4234L8.49474 41.0836C8.3175 40.9064 8.3175 40.6183 8.49474 40.4411L10.0382 38.8975C10.2155 38.7203 10.5035 38.7203 10.6807 38.8975L11.0205 39.2373L11.7738 38.4839L11.434 38.1442C11.2568 37.967 11.2568 37.6789 11.434 37.5017L12.9776 35.9581C13.1548 35.7809 13.4428 35.7809 13.6201 35.9581L26.6032 48.9418C26.7804 49.119 26.7804 49.407 26.6032 49.5843L25.0597 51.1279C24.8825 51.3051 24.5945 51.3051 24.4172 51.1279L24.0775 50.7881L23.3242 51.5415L23.6639 51.8812C23.8412 52.0584 23.8412 52.3465 23.6639 52.5237L22.1204 54.0673C21.9431 54.2445 21.6551 54.2445 21.4779 54.0673L21.1382 53.7276L20.3849 54.4809L20.7246 54.8206C20.9019 54.9978 20.9019 55.2859 20.7246 55.4631L19.1811 57.0067C19.0038 57.1839 18.7158 57.1839 18.5386 57.0067L18.1988 56.667L17.4456 57.4203L17.7853 57.76C17.9625 57.9373 17.9625 58.2253 17.7853 58.4025L16.2418 59.9461C16.0646 60.1233 15.7765 60.1233 15.5993 59.9461L11.5522 55.8989L10.8949 56.5562C10.7177 56.7334 10.4297 56.7334 10.2524 56.5562L6.34563 52.6493C6.16838 52.472 6.16838 52.184 6.34563 52.0067L7.00292 51.3494L6.39733 50.7438L4.63226 52.509L10.1416 58.0185C10.3189 58.1958 10.3189 58.4838 10.1416 58.661L8.5981 60.2046C8.42086 60.3818 8.13284 60.3818 7.9556 60.2046V60.1972ZM2.0327 52.989L8.28055 59.2371L9.18156 58.3361L3.67219 52.8265C3.49495 52.6493 3.49495 52.3612 3.67219 52.184L6.07977 49.7763C6.25702 49.5991 6.54504 49.5991 6.72228 49.7763L7.97038 51.0245C8.14762 51.2017 8.14762 51.4897 7.97038 51.667L7.31309 52.3243L10.5774 55.5887L11.2346 54.9314C11.4119 54.7541 11.6999 54.7541 11.8771 54.9314L15.9242 58.9786L16.8252 58.0776L16.4855 57.7379C16.3083 57.5606 16.3083 57.2726 16.4855 57.0953L17.8813 55.6995C18.0585 55.5222 18.3466 55.5222 18.5238 55.6995L18.8635 56.0392L19.7646 55.1382L19.4248 54.7984C19.2476 54.6212 19.2476 54.3331 19.4248 54.1559L20.8206 52.7601C20.9979 52.5828 21.2859 52.5828 21.4631 52.7601L21.8028 53.0998L22.7038 52.1988L22.3641 51.859C22.1869 51.6818 22.1869 51.3937 22.3641 51.2165L23.7599 49.8206C23.9372 49.6434 24.2252 49.6434 24.4024 49.8206L24.7422 50.1604L25.6431 49.2593L13.3025 36.9182L12.4015 37.8193L12.7412 38.159C12.9185 38.3362 12.9185 38.6243 12.7412 38.8015L11.3454 40.1974C11.1682 40.3746 10.8802 40.3746 10.7029 40.1974L10.3632 39.8577L9.4622 40.7587L9.80189 41.0984C9.97914 41.2757 9.97914 41.5637 9.80189 41.7409L8.40613 43.1368C8.22888 43.3141 7.94086 43.3141 7.76362 43.1368L7.42388 42.7971L6.52287 43.6981L6.8626 44.0378C7.03985 44.2151 7.03985 44.5031 6.8626 44.6804L5.46679 46.0762C5.28955 46.2535 5.00153 46.2535 4.82428 46.0762L4.48459 45.7365L3.58358 46.6375L5.65881 48.7128C5.83606 48.8901 5.83606 49.1781 5.65881 49.3553L2.0327 52.9816V52.989Z" fill="#BB3434"/>
<path d="M31.1894 51.7335L10.821 31.3644C10.6438 31.1871 10.6438 30.8991 10.821 30.7218L13.7161 27.8267C13.8933 27.6495 14.1813 27.6495 14.3586 27.8267L16.0719 29.5402L19.2623 26.3496L18.6198 25.7071C18.4426 25.5299 18.4426 25.2418 18.6198 25.0646L21.5148 22.1695C21.6921 21.9922 21.9801 21.9922 22.1573 22.1695L40.3766 40.3894C40.5538 40.5667 40.5538 40.8547 40.3766 41.0319L37.4816 43.927C37.3044 44.1043 37.0163 44.1043 36.8391 43.927L36.1966 43.2845L33.0062 46.475L34.7196 48.1885C34.8968 48.3657 34.8968 48.6537 34.7196 48.831L31.8245 51.7261C31.6473 51.9033 31.3593 51.9033 31.182 51.7261L31.1894 51.7335ZM11.7885 31.0394L31.5144 50.766L33.7668 48.5134L32.0535 46.8C31.8762 46.6227 31.8762 46.3347 32.0535 46.1575L35.8864 42.3244C36.0636 42.1471 36.3516 42.1471 36.5289 42.3244L37.1714 42.9669L39.4239 40.7144L21.8471 23.137L19.5947 25.3895L20.2372 26.0321C20.4144 26.2093 20.4144 26.4974 20.2372 26.6746L16.4042 30.5077C16.227 30.6849 15.939 30.6849 15.7617 30.5077L14.0484 28.7942L11.7959 31.0468L11.7885 31.0394Z" fill="#BB3434"/>
<path d="M36.8686 35.1605L27.3934 25.685C27.2162 25.5077 27.2162 25.2197 27.3934 25.0424L31.6178 20.818L31.4701 20.6702C31.2928 20.493 31.2928 20.205 31.4701 20.0277L32.6886 18.8091C32.8659 18.6319 33.1539 18.6319 33.3312 18.8091L33.4788 18.9568L33.7225 18.7131L33.5748 18.5654C33.3976 18.3881 33.3976 18.1001 33.5748 17.9228L34.7934 16.7042C34.9706 16.527 35.2587 16.527 35.4359 16.7042L35.5836 16.852L35.8273 16.6082L35.6796 16.4605C35.5024 16.2833 35.5024 15.9952 35.6796 15.818L36.8982 14.5994C37.0754 14.4221 37.3634 14.4221 37.5407 14.5994L37.6884 14.7471L37.9321 14.5034L37.7844 14.3557C37.6072 14.1784 37.6072 13.8904 37.7844 13.7131L39.003 12.4945C39.1802 12.3173 39.4682 12.3173 39.6455 12.4945L39.7932 12.6422L40.0369 12.3985L39.8892 12.2508C39.712 12.0736 39.712 11.7855 39.8892 11.6083L41.1077 10.3897C41.285 10.2124 41.573 10.2124 41.7502 10.3897L41.898 10.5374L42.1417 10.2937L41.994 10.146C41.8167 9.9687 41.8167 9.68067 41.994 9.50342L43.2125 8.28482C43.3898 8.10757 43.6778 8.10757 43.855 8.28482L44.0027 8.43252L44.2464 8.18881L44.0987 8.04109C43.9215 7.86384 43.9215 7.57581 44.0987 7.39856L45.3173 6.17996C45.4945 6.00271 45.7826 6.00271 45.9598 6.17996L46.1075 6.32768L46.3512 6.08395L46.2035 5.93625C46.0263 5.759 46.0263 5.47095 46.2035 5.2937L47.4221 4.0751C47.5993 3.89785 47.8873 3.89785 48.0646 4.0751L48.2123 4.22282L50.2358 2.19919C50.4131 2.02194 50.7011 2.02194 50.8783 2.19919L52.7468 4.06771L53.3967 3.41781C53.5739 3.24055 53.862 3.24055 54.0392 3.41781L54.4011 3.77969L56.4837 1.69698C56.6609 1.51973 56.949 1.51973 57.1262 1.69698L57.3256 1.8964L58.5959 0.626102C58.7731 0.448851 59.0611 0.448851 59.2384 0.626102L61.9266 3.3144C62.1038 3.49165 62.1038 3.77968 61.9266 3.95693L60.6564 5.22723L60.8557 5.42665C61.033 5.6039 61.033 5.89193 60.8557 6.06918L58.7731 8.15189L59.135 8.51377C59.3122 8.69102 59.3122 8.97905 59.135 9.1563L58.4851 9.80623L60.3535 11.6747C60.5308 11.852 60.5308 12.14 60.3535 12.3173L58.33 14.3409L58.4777 14.4886C58.655 14.6659 58.655 14.9539 58.4777 15.1311L57.2591 16.3497C57.0819 16.527 56.7939 16.527 56.6166 16.3497L56.4689 16.202L56.2252 16.4457L56.3729 16.5935C56.5501 16.7707 56.5501 17.0587 56.3729 17.236L55.1544 18.4546C54.9771 18.6318 54.6891 18.6318 54.5119 18.4546L54.3642 18.3069L54.1204 18.5506L54.2681 18.6983C54.4454 18.8756 54.4454 19.1636 54.2681 19.3409L53.0496 20.5595C52.8723 20.7367 52.5843 20.7367 52.4071 20.5595L52.2594 20.4117L52.0157 20.6555L52.1634 20.8032C52.3406 20.9804 52.3406 21.2685 52.1634 21.4457L50.9448 22.6643C50.7676 22.8416 50.4795 22.8416 50.3023 22.6643L50.1546 22.5166L49.9109 22.7603L50.0586 22.908C50.2358 23.0853 50.2358 23.3733 50.0586 23.5506L48.84 24.7692C48.6628 24.9464 48.3748 24.9464 48.1975 24.7692L48.0498 24.6215L47.8061 24.8652L47.9538 25.0129C48.1311 25.1901 48.1311 25.4782 47.9538 25.6554L46.7352 26.874C46.558 27.0513 46.27 27.0513 46.0927 26.874L45.945 26.7263L45.7013 26.97L45.849 27.1177C46.0263 27.295 46.0263 27.583 45.849 27.7603L44.6305 28.9789C44.4532 29.1561 44.1652 29.1561 43.988 28.9789L43.8403 28.8312L43.5965 29.0749L43.7443 29.2226C43.9215 29.3999 43.9215 29.6879 43.7443 29.8651L42.5257 31.0837C42.3484 31.261 42.0604 31.261 41.8832 31.0837L41.7355 30.936L37.5111 35.1605C37.3339 35.3378 37.0459 35.3378 36.8686 35.1605ZM28.3609 25.36L37.1936 34.193L41.4179 29.9685C41.5951 29.7913 41.8832 29.7913 42.0604 29.9685L42.2081 30.1162L42.7768 29.5402L42.6291 29.3925C42.4518 29.2152 42.4518 28.9272 42.6291 28.7499L43.5153 27.8637C43.6926 27.6864 43.9806 27.6864 44.1578 27.8637L44.3055 28.0114L44.8742 27.4427L44.7265 27.295C44.5492 27.1177 44.5492 26.8297 44.7265 26.6525L45.6127 25.7662C45.79 25.5889 46.078 25.5889 46.2552 25.7662L46.4029 25.9139L46.979 25.3379L46.8313 25.1901C46.654 25.0129 46.654 24.7249 46.8313 24.5476L47.7175 23.6614C47.8947 23.4841 48.1827 23.4841 48.36 23.6614L48.5077 23.8091L49.0837 23.233L48.9361 23.0853C48.7588 22.908 48.7588 22.62 48.9361 22.4427L49.8222 21.5565C49.9995 21.3792 50.2875 21.3792 50.4648 21.5565L50.6125 21.7042L51.1885 21.1281L51.0408 20.9804C50.8636 20.8032 50.8636 20.5152 51.0408 20.3379L51.9271 19.4516C52.1043 19.2744 52.3923 19.2744 52.5696 19.4516L52.7173 19.5994L53.2859 19.0233L53.1382 18.8756C52.9609 18.6983 52.9609 18.4103 53.1382 18.233L54.0244 17.3468C54.2017 17.1695 54.4897 17.1695 54.6669 17.3468L54.8146 17.4945L55.3833 16.9258L55.2356 16.7781C55.0584 16.6009 55.0584 16.3128 55.2356 16.1356L56.1218 15.2493C56.2991 15.0721 56.5871 15.0721 56.7643 15.2493L56.9121 15.397L57.4881 14.821L57.3404 14.6732C57.1631 14.496 57.1631 14.208 57.3404 14.0307L59.3639 12.0071L57.4955 10.1386C57.3182 9.96131 57.3182 9.67328 57.4955 9.49603L58.1454 8.8461L57.7835 8.48422C57.6063 8.30697 57.6063 8.01894 57.7835 7.84169L59.8661 5.75898L59.6667 5.55959C59.4895 5.38233 59.4895 5.0943 59.6667 4.91705L60.937 3.64675L58.8913 1.60097L57.621 2.87127C57.4438 3.04852 57.1557 3.04852 56.9785 2.87127L56.7791 2.67187L54.6965 4.75457C54.5193 4.93182 54.2312 4.93182 54.054 4.75457L53.6921 4.39267L53.0422 5.04259C52.865 5.21984 52.5769 5.21984 52.3997 5.04259L50.5312 3.17407L48.5077 5.1977C48.3305 5.37496 48.0424 5.37496 47.8652 5.1977L47.7175 5.04999L47.1414 5.62605L47.2891 5.77377C47.4664 5.95102 47.4664 6.23905 47.2891 6.4163L46.4029 7.30254C46.2257 7.47979 45.9376 7.47979 45.7604 7.30254L45.6127 7.15485L45.0441 7.72352L45.1918 7.87124C45.369 8.04849 45.369 8.33652 45.1918 8.51377L44.3055 9.40001C44.1283 9.57726 43.8403 9.57726 43.663 9.40001L43.5153 9.25232L42.9466 9.82099L43.0944 9.96871C43.2716 10.146 43.2716 10.434 43.0944 10.6112L42.2081 11.4975C42.0309 11.6748 41.7429 11.6748 41.5656 11.4975L41.4179 11.3498L40.8419 11.9258L40.9896 12.0736C41.1668 12.2508 41.1668 12.5388 40.9896 12.7161L40.1034 13.6023C39.9261 13.7796 39.6381 13.7796 39.4608 13.6023L39.3131 13.4546L38.7445 14.0233L38.8922 14.171C39.0694 14.3483 39.0694 14.6363 38.8922 14.8136L38.0059 15.6998C37.8287 15.8771 37.5407 15.8771 37.3634 15.6998L37.2157 15.5521L36.6397 16.1282L36.7874 16.2759C36.9647 16.4531 36.9647 16.7412 36.7874 16.9184L35.9012 17.8047C35.7239 17.9819 35.4359 17.9819 35.2587 17.8047L35.111 17.657L34.5423 18.233L34.69 18.3807C34.8672 18.558 34.8672 18.846 34.69 19.0233L33.8038 19.9095C33.6265 20.0868 33.3385 20.0868 33.1613 19.9095L33.0135 19.7618L32.4449 20.3305L32.5926 20.4782C32.7699 20.6555 32.7699 20.9435 32.5926 21.1208L28.3683 25.3452L28.3609 25.36Z" fill="#BB3434"/>
<path d="M21.308 49.3332L13.2213 41.2461C13.044 41.0689 13.044 40.7808 13.2213 40.6036C13.3985 40.4263 13.6865 40.4263 13.8638 40.6036L21.9506 48.6907C22.1278 48.8679 22.1278 49.156 21.9506 49.3332C21.7733 49.5105 21.4853 49.5105 21.308 49.3332Z" fill="#BB3434"/>
<path d="M36.5659 32.162L30.3918 25.9878C30.2146 25.8105 30.2146 25.5225 30.3918 25.3452C30.5691 25.168 30.8571 25.168 31.0343 25.3452L37.2084 31.5195C37.3856 31.6967 37.3856 31.9848 37.2084 32.162C37.0311 32.3393 36.7431 32.3393 36.5659 32.162Z" fill="#BB3434"/>
<path d="M38.2423 30.4929L32.0683 24.3187C31.891 24.1414 31.891 23.8534 32.0683 23.6761C32.2455 23.4989 32.5335 23.4989 32.7108 23.6761L38.8848 29.8504C39.062 30.0276 39.062 30.3157 38.8848 30.4929C38.7075 30.6702 38.4195 30.6702 38.2423 30.4929Z" fill="#BB3434"/>
<path d="M39.9187 28.8164L33.7447 22.6422C33.5675 22.4649 33.5675 22.1769 33.7447 21.9996C33.922 21.8224 34.21 21.8224 34.3872 21.9996L40.5612 28.1739C40.7385 28.3511 40.7385 28.6392 40.5612 28.8164C40.384 28.9937 40.096 28.9937 39.9187 28.8164Z" fill="#BB3434"/>
<path d="M41.5952 27.1399L35.4211 20.9657C35.2439 20.7884 35.2439 20.5004 35.4211 20.3231C35.5984 20.1459 35.8864 20.1459 36.0636 20.3231L42.2377 26.4974C42.4149 26.6746 42.4149 26.9627 42.2377 27.1399C42.0604 27.3172 41.7724 27.3172 41.5952 27.1399Z" fill="#BB3434"/>
<path d="M43.2642 25.4634L37.0902 19.2891C36.9129 19.1119 36.9129 18.8239 37.0902 18.6466C37.2674 18.4694 37.5554 18.4694 37.7327 18.6466L43.9067 24.8208C44.0839 24.9981 44.0839 25.2861 43.9067 25.4634C43.7294 25.6406 43.4414 25.6406 43.2642 25.4634Z" fill="#BB3434"/>
<path d="M44.9406 23.7943L38.7666 17.62C38.5894 17.4428 38.5894 17.1548 38.7666 16.9775C38.9439 16.8003 39.2319 16.8003 39.4091 16.9775L45.5831 23.1518C45.7604 23.329 45.7604 23.617 45.5831 23.7943C45.4059 23.9716 45.1179 23.9716 44.9406 23.7943Z" fill="#BB3434"/>
<path d="M46.6171 22.1178L40.4431 15.9435C40.2658 15.7663 40.2658 15.4782 40.4431 15.301C40.6203 15.1237 40.9083 15.1237 41.0856 15.301L47.2596 21.4752C47.4368 21.6525 47.4368 21.9405 47.2596 22.1178C47.0824 22.295 46.7943 22.295 46.6171 22.1178Z" fill="#BB3434"/>
<path d="M48.2935 20.4413L42.1195 14.267C41.9422 14.0898 41.9422 13.8017 42.1195 13.6245C42.2967 13.4472 42.5847 13.4472 42.762 13.6245L48.936 19.7987C49.1133 19.976 49.1133 20.264 48.936 20.4413C48.7588 20.6185 48.4707 20.6185 48.2935 20.4413Z" fill="#BB3434"/>
<path d="M49.9699 18.7648L43.7959 12.5905C43.6187 12.4133 43.6187 12.1253 43.7959 11.948C43.9732 11.7708 44.2612 11.7708 44.4384 11.948L50.6124 18.1223C50.7897 18.2995 50.7897 18.5875 50.6124 18.7648C50.4352 18.942 50.1472 18.942 49.9699 18.7648Z" fill="#BB3434"/>
<path d="M51.639 17.0883L45.465 10.9141C45.2878 10.7368 45.2878 10.4488 45.465 10.2715C45.6422 10.0943 45.9303 10.0943 46.1075 10.2715L52.2815 16.4458C52.4588 16.623 52.4588 16.911 52.2815 17.0883C52.1043 17.2655 51.8162 17.2655 51.639 17.0883Z" fill="#BB3434"/>
<path d="M53.3155 15.4192L47.1414 9.24492C46.9642 9.06767 46.9642 8.77964 47.1414 8.60239C47.3187 8.42514 47.6067 8.42514 47.7839 8.60239L53.958 14.7766C54.1352 14.9539 54.1352 15.2419 53.958 15.4192C53.7807 15.5964 53.4927 15.5964 53.3155 15.4192Z" fill="#BB3434"/>
<path d="M54.9919 13.7427L48.8179 7.56844C48.6406 7.39119 48.6406 7.10316 48.8179 6.92591C48.9951 6.74866 49.2831 6.74866 49.4604 6.92591L55.6344 13.1001C55.8116 13.2774 55.8116 13.5654 55.6344 13.7427C55.4571 13.9199 55.1691 13.9199 54.9919 13.7427Z" fill="#BB3434"/>
<path d="M56.6683 12.0662L50.4943 5.89192C50.3171 5.71467 50.3171 5.42664 50.4943 5.24939C50.6716 5.07214 50.9596 5.07214 51.1368 5.24939L57.3108 11.4237C57.4881 11.6009 57.4881 11.8889 57.3108 12.0662C57.1336 12.2434 56.8456 12.2434 56.6683 12.0662Z" fill="#BB3434"/>
<path d="M18.5608 52.0806L10.474 43.9935C10.2967 43.8163 10.2967 43.5282 10.474 43.351C10.6512 43.1737 10.9392 43.1737 11.1165 43.351L19.2033 51.4381C19.3805 51.6153 19.3805 51.9034 19.2033 52.0806C19.026 52.2579 18.738 52.2579 18.5608 52.0806Z" fill="#BB3434"/>
<path d="M15.8134 54.828L7.72665 46.7409C7.54941 46.5637 7.54941 46.2756 7.72665 46.0984C7.9039 45.9211 8.19192 45.9211 8.36916 46.0984L16.456 54.1855C16.6332 54.3627 16.6332 54.6507 16.456 54.828C16.2787 55.0052 15.9907 55.0052 15.8134 54.828Z" fill="#BB3434"/>
<path d="M30.6281 45.1161L17.4382 31.9257C17.261 31.7484 17.261 31.4604 17.4382 31.2831L21.1013 27.6199C21.2785 27.4427 21.5665 27.4427 21.7438 27.6199L34.9337 40.8104C35.111 40.9876 35.111 41.2757 34.9337 41.4529L31.2706 45.1161C31.0934 45.2933 30.8054 45.2933 30.6281 45.1161ZM18.3983 31.6081L30.9457 44.156L33.9663 41.1353L21.4188 28.5874L18.3983 31.6081Z" fill="#BB3434"/>
</svg>
