<svg width="72" height="71" viewBox="0 0 72 71" fill="none" xmlns="http://www.w3.org/2000/svg">
<path d="M36.1997 70.9063C24.1323 70.9063 13.025 64.8428 6.48909 54.6952C5.19668 52.7159 4.11841 50.5889 3.26911 48.3732C1.66653 44.326 0.854187 40.0129 0.854187 35.5668C0.854187 16.0914 16.7102 0.242188 36.1923 0.242188C55.6744 0.242188 71.5305 16.084 71.5305 35.5668C71.5305 40.0129 70.7181 44.326 69.1155 48.3806C68.2736 50.5889 67.1953 52.7159 65.9029 54.6952C59.3744 64.8428 48.2671 70.9063 36.1997 70.9063ZM36.1997 1.86699C17.6112 1.86699 2.49368 16.9776 2.49368 35.5595C2.49368 39.7987 3.26912 43.9124 4.79785 47.7824C5.60284 49.902 6.63678 51.9183 7.86272 53.8089C14.0958 63.4987 24.6862 69.2815 36.1997 69.2815C47.7132 69.2815 58.3036 63.4987 64.5367 53.8163C65.77 51.9256 66.7965 49.9094 67.6015 47.7972C69.1303 43.9198 69.9131 39.8061 69.9131 35.5668C69.9131 16.985 54.7882 1.87437 36.2071 1.87437L36.1997 1.86699Z" fill="#BB3434"/>
<path d="M36.1997 66.0836C25.7718 66.0836 16.1858 60.8473 10.5435 52.0807C9.42839 50.3673 8.49046 48.5283 7.76671 46.6229C6.38568 43.1295 5.68408 39.3999 5.68408 35.5595C5.68408 18.7354 19.3762 5.05011 36.2071 5.05011C53.0379 5.05011 66.7301 18.7354 66.7301 35.5595C66.7301 39.3999 66.0285 43.1222 64.6401 46.6303C63.9163 48.5283 62.9858 50.3673 61.8632 52.0807C56.2283 60.8399 46.635 66.0762 36.2071 66.0762L36.1997 66.0836ZM36.1997 6.6823C20.2698 6.6823 7.30883 19.6364 7.30883 35.5595C7.30883 39.1931 7.97349 42.716 9.28067 46.032C9.96749 47.8415 10.8537 49.5771 11.9098 51.1945C17.2493 59.4957 26.3331 64.4514 36.1997 64.4514C46.0663 64.4514 55.1501 59.4957 60.4896 51.1945C61.5531 49.5697 62.4319 47.8341 63.1187 46.0394C64.4333 42.716 65.0979 39.1931 65.0979 35.5595C65.0979 19.6364 52.1369 6.6823 36.2071 6.6823H36.1997Z" fill="#BB3434"/>
<path d="M36.1997 66.0836C31.1113 66.0836 26.0746 64.8059 21.6287 62.3761L20.7351 61.8886L21.4071 61.1206C25.1588 56.8444 30.55 54.3924 36.1997 54.3924C41.8494 54.3924 47.2479 56.8444 50.9922 61.1279L51.6643 61.896L50.7707 62.3835C46.3174 64.8059 41.2807 66.0836 36.2071 66.0836H36.1997ZM23.3421 61.4307C31.296 65.3893 41.1034 65.3893 49.0573 61.4307C45.6675 57.9817 41.0444 56.0172 36.1997 56.0172C31.355 56.0172 26.7319 57.9743 23.3421 61.4234V61.4307Z" fill="#BB3434"/>
<path d="M36.1997 44.7913C33.4302 44.7913 31.1852 42.5387 31.1852 39.7766C31.1852 37.0144 33.4376 34.7618 36.1997 34.7618C38.9617 34.7618 41.2142 37.0144 41.2142 39.7766C41.2142 42.5387 38.9617 44.7913 36.1997 44.7913ZM36.1997 36.3866C34.3312 36.3866 32.8099 37.908 32.8099 39.7766C32.8099 41.6451 34.3312 43.1665 36.1997 43.1665C38.0681 43.1665 39.5895 41.6451 39.5895 39.7766C39.5895 37.908 38.0681 36.3866 36.1997 36.3866Z" fill="#BB3434"/>
<path d="M65.5927 43.9863L64.5367 42.3467C58.2962 32.6643 47.6984 26.8815 36.1997 26.8815C24.701 26.8815 14.1032 32.6643 7.86272 42.3467L6.80665 43.9863L6.38568 42.0882C5.92042 39.9907 5.68408 37.7972 5.68408 35.5595C5.68408 18.728 19.3762 5.03534 36.2071 5.03534C53.0379 5.03534 66.7301 18.728 66.7301 35.5595C66.7301 37.7899 66.4937 39.9907 66.0285 42.0882L65.6075 43.9863H65.5927ZM36.1997 25.2567C47.595 25.2567 58.1337 30.6629 64.7804 39.8209C64.9872 38.4324 65.0905 36.9996 65.0905 35.5595C65.0905 19.629 52.1295 6.66753 36.1997 6.66753C20.2698 6.66753 7.30883 19.629 7.30883 35.5595C7.30883 37.007 7.41221 38.4324 7.619 39.8209C14.2657 30.6629 24.8043 25.2567 36.1997 25.2567Z" fill="#BB3434"/>
</svg>
